<?xml version="1.0" encoding="utf-8"?>
<!-- Generator: Adobe Illustrator 24.1.2, SVG Export Plug-In . SVG Version: 6.00 Build 0)  -->
<svg version="1.1" id="Layer_1" xmlns="http://www.w3.org/2000/svg" xmlns:xlink="http://www.w3.org/1999/xlink" x="0px" y="0px"
	 viewBox="0 0 960 560" style="enable-background:new 0 0 960 560;" xml:space="preserve">
<style type="text/css">
	.st0{fill:url(#SVGID_1_);}
	.st1{fill:#DBFDFF;}
	.st2{fill:#C8E7FF;}
	.st3{fill:#FAFFE9;}
	.st4{fill:#DFFFDE;}
	.st5{fill:#F0FFDB;}
	.st6{fill:url(#SVGID_2_);stroke:#AAE3FF;stroke-miterlimit:10;}
	.st7{fill:url(#SVGID_3_);stroke:#AAE3FF;stroke-miterlimit:10;}
	.st8{fill:url(#SVGID_4_);stroke:url(#SVGID_5_);stroke-miterlimit:10;}
	.st9{fill:url(#SVGID_6_);stroke:#A07C15;stroke-miterlimit:10;}
	.st10{fill:url(#SVGID_7_);stroke:#A07C15;stroke-miterlimit:10;}
	.st11{fill:url(#SVGID_8_);stroke:url(#SVGID_9_);stroke-miterlimit:10;}
	.st12{fill:url(#SVGID_10_);stroke:#A07C15;stroke-miterlimit:10;}
	.st13{fill:url(#SVGID_11_);stroke:#E6FBFF;stroke-miterlimit:10;}
	.st14{fill:url(#SVGID_12_);}
	.st15{fill:url(#SVGID_13_);}
	.st16{fill:url(#SVGID_14_);}
	.st17{fill:url(#SVGID_15_);}
	.st18{fill:url(#SVGID_16_);}
	.st19{fill:#A0FF33;stroke:#E6FBFF;stroke-miterlimit:10;}
	.st20{fill:none;}
	.st21{fill:url(#SVGID_17_);}
	.st22{fill:url(#SVGID_18_);}
	.st23{fill:url(#SVGID_19_);}
	.st24{fill:url(#SVGID_20_);}
	.st25{fill:url(#SVGID_21_);}
	.st26{fill:url(#SVGID_22_);}
	.st27{fill:url(#SVGID_23_);}
	.st28{fill:url(#SVGID_24_);}
	.st29{fill:url(#SVGID_25_);}
	.st30{fill:url(#SVGID_26_);}
	.st31{fill:url(#SVGID_27_);}
	.st32{fill:url(#SVGID_28_);}
	.st33{fill:url(#SVGID_29_);}
	.st34{fill:url(#SVGID_30_);}
	.st35{fill:url(#SVGID_31_);}
	.st36{fill:url(#SVGID_32_);}
	.st37{fill:url(#SVGID_33_);}
	.st38{fill:url(#SVGID_34_);}
	.st39{fill:url(#SVGID_35_);}
	.st40{fill:url(#SVGID_36_);}
	.st41{fill:url(#SVGID_37_);}
	.st42{fill:url(#SVGID_38_);}
	.st43{fill:url(#SVGID_39_);}
	.st44{fill:url(#SVGID_40_);}
	.st45{fill:url(#SVGID_41_);}
	.st46{fill:url(#SVGID_42_);}
	.st47{fill:url(#SVGID_43_);}
	.st48{fill:url(#SVGID_44_);}
	.st49{fill:url(#SVGID_45_);stroke:#E6FBFF;stroke-miterlimit:10;}
	.st50{fill:url(#SVGID_46_);}
	.st51{fill:#0C6C00;}
	.st52{fill:#92E5FF;stroke:#E6FBFF;stroke-miterlimit:10;}
	.st53{fill:#5ED4FF;stroke:#E6FBFF;stroke-miterlimit:10;}
	.st54{fill:#FCFF6F;stroke:#E6FBFF;stroke-miterlimit:10;}
	.st55{fill:#627400;}
	.st56{fill:#FFD82B;stroke:#F3FF87;stroke-miterlimit:10;}
	.st57{fill:url(#SVGID_47_);}
</style>
<g>
	<linearGradient id="SVGID_1_" gradientUnits="userSpaceOnUse" x1="8.3521" y1="277.9402" x2="956.4785" y2="277.9402">
		<stop  offset="0" style="stop-color:#A0E2FF"/>
		<stop  offset="1" style="stop-color:#D3F3FF"/>
	</linearGradient>
	<rect x="8.35" y="4.53" class="st0" width="948.13" height="546.82"/>
	<path class="st1" d="M141.89,104.44H76.46c-7.63,0-13.87-6.24-13.87-13.87V90.1c0-7.63,6.24-13.87,13.87-13.87h65.43
		c7.63,0,13.87,6.24,13.87,13.87v0.47C155.76,98.2,149.52,104.44,141.89,104.44z"/>
	<path class="st2" d="M633.06,168.54h-72.58c-8.95,0-16.27-7.32-16.27-16.27v-5.89c0-8.95,7.32-16.27,16.27-16.27h72.58
		c8.95,0,16.27,7.32,16.27,16.27v5.89C649.34,161.21,642.01,168.54,633.06,168.54z"/>
	<path class="st1" d="M391.64,73.98h-67.49c-9.41,0-17.11-7.7-17.11-17.11v-5.95c0-9.41,7.7-17.11,17.11-17.11h67.49
		c9.41,0,17.11,7.7,17.11,17.11v5.95C408.75,66.28,401.05,73.98,391.64,73.98z"/>
	<path class="st1" d="M800.93,277.94h-62.99c-11.35,0-20.64-9.29-20.64-20.64v-6.58c0-11.35,9.29-20.64,20.64-20.64h62.99
		c11.35,0,20.64,9.29,20.64,20.64v6.58C821.57,268.65,812.28,277.94,800.93,277.94z"/>
	<g>
		<g>
			<path class="st1" d="M495.65,186.73H188.79c-9.4,0-17.08,8.03-17.08,17.85v0c0,9.82,7.69,17.85,17.08,17.85h74.16
				c3.55,4.16,5.53,8.77,5.53,13.62c0,5.67-2.7,11.01-7.46,15.69h-39.07c-9.53,0-17.33,8.15-17.33,18.1v0
				c0,9.96,7.8,18.1,17.33,18.1h240.21c9.53,0,17.33-8.15,17.33-18.1v0c0-9.96-7.8-18.1-17.33-18.1h-38.73
				c-3.28-4.03-5.11-8.46-5.11-13.11c0-5.88,2.91-11.4,8-16.2h69.33c9.4,0,17.08-8.03,17.08-17.85v0
				C512.74,194.76,505.05,186.73,495.65,186.73z"/>
		</g>
	</g>
	<path class="st3" d="M622.37,86.63c-0.1-2.14-0.93-4.3-2.3-5.97c-2.52-3.05-6.47-4.6-10.4-5.08c-2.67-0.32-5.71-0.34-7.52-2.33
		c-1.85-2.04-1.52-5.17-2.3-7.81c-0.86-2.93-3.3-5.39-5.97-6.76c-2.75-1.41-5.87-1.94-8.96-2.09c-4.43-0.21-9.52,0.49-12.84,3.71
		c-2.33,2.27-3.5,5.45-5.24,8.2c-0.88,1.39-2.14,2.8-3.79,2.86c-1.54,0.06-2.83-1.08-4.2-1.8c-3.65-1.91-8.31-0.75-11.57,1.76
		c-3.27,2.51-5.45,6.14-7.56,9.69c-2.96-1.43-4.4-5.14-7.47-6.33c-2.99-1.15-6.27,0.51-8.94,2.27c-5.17,3.41-14.78,13.59-5.78,18.71
		c2.79,1.59,6.18,1.58,9.39,1.54c27.08-0.41,54.16-0.82,81.24-1.23c4.69-0.07,10.11-0.5,12.82-4.33
		C622.03,90.19,622.45,88.42,622.37,86.63z"/>
	<path class="st4" d="M317.7,137.79c-0.1-2.14-0.93-4.3-2.3-5.97c-2.52-3.05-6.47-4.6-10.4-5.08c-2.67-0.32-5.71-0.34-7.52-2.33
		c-1.85-2.04-1.52-5.17-2.3-7.81c-0.86-2.93-3.3-5.39-5.97-6.76c-2.75-1.41-5.87-1.94-8.96-2.09c-4.43-0.21-9.52,0.49-12.84,3.71
		c-2.33,2.27-3.5,5.45-5.24,8.2c-0.88,1.39-2.14,2.8-3.79,2.86c-1.54,0.06-2.83-1.08-4.2-1.8c-3.65-1.91-8.31-0.75-11.57,1.76
		c-3.27,2.51-5.45,6.14-7.56,9.69c-2.96-1.43-4.4-5.14-7.47-6.33c-2.99-1.15-6.27,0.51-8.94,2.27c-5.17,3.41-14.78,13.59-5.78,18.71
		c2.79,1.59,6.18,1.58,9.39,1.54c27.08-0.41,54.16-0.82,81.24-1.23c4.69-0.07,10.11-0.5,12.82-4.33
		C317.36,141.35,317.78,139.57,317.7,137.79z"/>
	<path class="st5" d="M791.76,169.62c-0.1-2.14-0.93-4.3-2.3-5.97c-2.52-3.05-6.47-4.6-10.4-5.08c-2.67-0.32-5.71-0.34-7.52-2.33
		c-1.85-2.04-1.52-5.17-2.3-7.81c-0.86-2.93-3.3-5.39-5.97-6.76c-2.75-1.41-5.87-1.94-8.96-2.09c-4.43-0.21-9.52,0.49-12.84,3.71
		c-2.33,2.27-3.5,5.45-5.24,8.2c-0.88,1.39-2.14,2.8-3.79,2.86c-1.54,0.06-2.83-1.08-4.2-1.8c-3.65-1.91-8.31-0.75-11.57,1.76
		s-5.45,6.14-7.56,9.69c-2.96-1.43-4.4-5.14-7.47-6.33c-2.99-1.15-6.27,0.51-8.94,2.27c-5.17,3.41-14.78,13.59-5.78,18.71
		c2.79,1.59,6.18,1.58,9.39,1.54c27.08-0.41,54.16-0.82,81.24-1.23c4.69-0.07,10.11-0.5,12.82-4.33
		C791.42,173.18,791.84,171.4,791.76,169.62z"/>
	<g>
		<linearGradient id="SVGID_2_" gradientUnits="userSpaceOnUse" x1="432.0586" y1="277.3018" x2="377.5419" y2="148.3655">
			<stop  offset="0" style="stop-color:#004951"/>
			<stop  offset="1" style="stop-color:#B0FFF7"/>
		</linearGradient>
		<path class="st6" d="M515.61,342.35c0.6-0.65,3.45-3.5,3.98-5.1c-0.5-2.79-1.56-5.5-2.64-8.19c-1.34-3.34-2.71-6.66-4.1-9.96
			c-0.78-10.64-10.78-15.64-13.78-25.64c0-2,2-3,3.41-4.57c2.34-2.43,5.09-4.93,5.59-8.43c0-3.5-2.5-6-5.13-8.63
			s-5.38-5.37-5.88-9.37c0.5-2.5,0.86-4.86,1.11-7.08c0.95-2.96,4.43-6.19,6.54-9.43c2.11-3.24,2.86-6.49-1.64-9.49
			c-6-0.67-11.22-2.67-15.48-5.7c-2.13-1.52-4.01-3.29-5.62-5.28c-4.91-5.02,1.09-10.02,2.09-14.02c3-9-9-12-11.29-19.8
			c-1.11-2.33-1.85-4.28-2.56-6.1c-0.71-1.82-1.46-3.63-2.23-5.44c-0.77-1.81-1.56-3.64-2.21-5.22
			c-0.71-10.43-3.71-21.43-10.35-28.76c-0.86-2.36-1.72-4.71-2.61-7.06c-2.64-7.03-5.39-14-8.24-20.9h-3.51
			c-0.36,0.41-0.6,0.87-0.6,1.53c-1.16,6.1-0.58,12.97-2.91,19.08c-0.58,1.91-1.6,3.82-2.62,5.63c-1.02,1.81-1.89,3.55-1.88,5.41
			c1.01,9.64-0.99,19.64-11.28,22.2c-1.67,1.92-2.53,4.33-3.22,6.96c-0.48,1.96-0.92,3.93-1.38,5.87s-0.96,3.87-1.54,5.76
			c-1.57,5.85-5.57,10.85-8.5,15.85c-1.19,1.67-2.42,3.34-3.68,5.01c-0.73,2.11-1.23,4.28-1.4,6.52c-0.17,2.24,0,4.56,0.59,6.98
			c-0.59,2.58-1.09,5.16-1.59,7.82c-4,11.67-7,21.67-8,34.67c-1,11-8,20-15.19,29.09c-1.24,2.48-2.25,5.15-3.13,7.82
			c-1.45,4.96-3.05,10.11-4.65,15.26c-0.8,2.58-1.61,5.16-2.31,7.98c-0.45,2.31-1.35,4.32-1.64,6.43c2.73,2.61,5.71,4.62,8.86,6.26
			c2.51,1.04,5.03,2.07,7.55,3.06c2.5,0.99,5.02,1.94,7.54,2.83c4.97,1.27,9.97,3.27,14.97,4.27c-8,7-19,2-28,5c15,0,32,4,46-4
			c-6-4-14-5-19.53-7.7c-2.12-0.94-4.17-1.98-6.06-3.21c-2.32-1.78-4.06-4.04-4.94-7.35c0.9-1.97,1.78-3.97,2.53-6.04
			c0.84-2.88,1.62-5.78,2.37-8.7c1.31-5.11,2.5-10.28,3.65-15.48c0.58-2.6,1.14-5.21,1.71-7.82c4.27-21.69,7.27-42.69,17.12-63.18
			c1.29-2.13,1.76-4.48,1.87-6.92c0.11-2.44-0.14-4.97-0.28-7.47c-1.43-11.13,11.57-16.13,11.16-27c0.33-2.38,0.31-4.77,0.26-7.16
			s-0.13-4.8,0.15-7.19c14-6.78,11-21.78,8.54-33.33c0.08-1.98,0.12-3.98,0.14-5.98c0.05-5.99-0.12-12.03-0.12-17.99
			c0,5.96,0.17,12,0.12,17.99c-0.02,2-0.06,3.99-0.14,5.98c2.46,11.55,5.46,26.55-8.24,33.33c-0.3,2.38-0.3,4.78-0.29,7.17
			s0.03,4.77-0.14,7.13c2.13,9.91-8.87,12.91-10.65,21.43c-0.56,2.13-0.61,4.34-0.58,6.6c0.04,2.26,0.11,4.55-0.09,6.8
			c-0.2,2.25-0.66,4.48-1.7,6.61c-9.84,20.48-12.84,41.48-17.12,63.18c-0.57,2.61-1.14,5.22-1.71,7.82
			c-1.15,5.2-2.35,10.37-3.65,15.48c-0.75,2.92-1.53,5.82-2.37,8.7c-0.75,2.08-1.62,4.07-2.53,6.04c1.13,3.07,2.87,5.25,5.06,7.03
			c2.12,1.31,4.27,2.41,6.41,3.38c5.07,3.85,12.07,4.85,18.07,6.85c-6,5-15,4-22,6c9-3,17,4,26,2c2-1,5-2,6-4c3-4,0-8-4.31-9.99
			c-1.8-0.99-3.8-1.98-5.64-3.09c-1.86-1.11-3.54-2.34-4.7-3.81c-0.13-2.9,0.36-5.46,0.79-8.03c1.81-10.7,2.76-21.55,3.97-32.34
			c0.24-2.16,0.5-4.31,0.77-6.47c0.12-18.27,9.12-33.27,9.9-51.39c-0.23-3.01-0.65-5.72-0.58-8.82c0.45-2.26,0.42-4.65,0.25-7.05
			s-0.45-4.81-0.37-7.08c1.93-8.93,15.93-12.93,10.13-24.2c-0.45-2.57-1.19-4.92-2-7.28s-1.7-4.73-2.14-7.15
			c6.94-8.3,10.94-20.3,4-30.66c-0.04-1.88,0.08-3.75,0.2-5.61c0.49-7.48,0.86-14.98,1.03-22.54c-0.17,7.57-0.54,15.07-1.03,22.54
			c-0.12,1.87-0.24,3.73-0.2,5.61c6.93,10.36,0.93,22.36-4.01,30.91c0.44,2.46,1.33,4.9,2.14,7.31s1.57,4.78,2.04,7.35
			c5.76,10.79-8.24,14.79-10.17,23.72c-0.08,2.27,0.21,4.68,0.37,7.08s0.2,4.78-0.25,7.05c-0.07,3.1,0.35,5.81,0.53,8.83
			c-1.72,17.12-9.72,33.12-9.84,51.39c-0.27,2.15-0.53,4.31-0.77,6.47c-1.21,10.79-2.16,21.65-3.97,32.34
			c-0.43,2.57-0.92,5.13-0.79,8.03c1.94,1.65,4.05,3.49,6.22,5.38c9.43,10.52,26.43,21.52,38.43,10.52c1-1-4-3-4.19-7.05
			c-1.12-2.78-0.93-5.61,2.96-8.26c1.52-1.81,2.82-3.93,2.41-7.17c-0.11-2.81-0.22-5.63-0.34-8.45c-0.09-2.11-0.17-4.23-0.26-6.34
			c1.42-6.73-0.58-14.73-0.48-21.75c0.08-2.4,0.54-4.87,1.17-7.31c0.64-2.44,1.45-4.86,2.36-7.26c0.49-3.44,0.6-6.96,0.84-10.5
			c0.62-2.29,1-4.56,0.94-6.81c0.11-2.36-0.39-4.7-0.61-7.14c3.55-3.74,4.9-6.74,4.84-9.3s-1.55-4.68-3.67-6.69
			c-1.43-1.41-3.14-2.77-4.92-4.24c-2.26-1.44-4.14-3.14-5.7-5.02c-1.55-1.89-2.78-3.96-3.72-6.13c-0.63-1.59-1.63-4.59-0.63-6.59
			c7-9,6-17-0.17-25.03c-1.07-2.97-1.75-5.5-2.44-8.03c-0.68-2.53-1.38-5.07-1.92-7.65c6.53-9.29-1.47-20.29-3.85-29.36
			c-0.39-2.51-0.37-4.98-0.3-7.46c0.15-4.96,0.44-9.92,0.15-14.88c0.29,4.96,0,9.92-0.15,14.88c-0.07,2.48-0.09,4.95,0.3,7.46
			c4.38,9.07,7.38,19.07,4,29.23c0.62,2.49,1.41,4.94,2.15,7.41c0.74,2.47,1.44,4.95,2.4,7.94c1.83,6.49,6.83,10.49,4.83,16.49
			s-7,11-3.58,16.92c0.91,1.93,2.06,3.73,3.49,5.38c1.43,1.65,3.13,3.14,5.14,4.43c1.78,1.47,3.49,2.82,4.93,4.23
			c2.13,1.99,3.62,4.11,3.7,6.65c0.08,2.54-1.25,5.51-4.78,9.21c0.14,2.55,0.63,5.01,0.51,7.46c0.07,2.33-0.24,4.65-0.8,6.9
			c-1.3,2.91-1.45,6.36-1.71,9.89c-0.97,2.48-1.77,4.97-2.36,7.46c-0.57,2.49-0.94,4.99-0.92,7.41c-0.63,7.05,3.37,15.05,0.95,21.79
			c0.09,2.11,0.18,4.23,0.26,6.34c0.12,2.82,0.23,5.64,0.34,8.45c0.41,3.24-1.39,5.86-3.08,8.25c-2.05,2.11-2.82,4.42-2.68,6.56
			c3.58,10.66,17.58,15.66,27.58,14.66c4,0,10,0,9-5c0-4-8-3-9.86-7.9c0.38-3.09,3.36-4.1,6.59-5.4c3.23-1.29,6.68-2.88,8.08-7.05
			c-0.53-2.32-1.97-4.52-3.39-6.71s-2.82-4.39-4.01-6.7c-1.19-2.31-2.17-4.75-2.41-7.67c0-8.58-9-16.58-4.92-25.43
			c1.08-1.5,2.65-2.94,4.79-4.3c1.33-3.73,1.06-7.3,0.29-10.89c-0.77-3.59-2.04-7.2-3.16-10.95c-1-3-0.5-5.75,0.64-8.55
			c3.36-4.45,12.36-8.45,9.36-12.45c-1.33-1.83-3-3.19-4.86-4.26c-1.89-1.19-3.97-2.06-6.13-2.86c-5.34-0.62-9.67-2.82-13.08-6.02
			c-1.7-1.6-3.17-3.45-4.22-5.4c4.3-13.45,1.3-21.45-7.56-31.27c-0.84-2.1-1.52-3.93-2.27-5.68c-0.63-1.68-1.33-3.33-2.15-4.92
			c-1.09-2.12-2.38-4.13-3.88-5.81c3.16-9.77,0.16-19.77-5.11-28.23c-0.43-2.09-0.69-4.15-0.93-6.21
			c-0.65-6.2-1.09-12.43-1.33-18.79c0.24,6.36,0.69,12.59,1.33,18.79c0.24,2.06,0.49,4.12,0.93,6.21
			c5.28,8.47,8.28,18.47,5.11,28.23c1.51,1.68,2.73,3.57,3.74,5.48c1.51,2.86,2.53,5.77,3.65,8.84c3.78,9.92,18.78,16.92,7.78,28.92
			c0,1,1,3,1.15,5.26c1.07,1.83,2.38,3.55,3.86,5.05c2.96,3.01,6.62,5.17,10.93,5.91c2.08,0.75,4.17,1.44,6.22,2.26
			c2.03,0.71,4,1.52,5.83,2.52c6,4-5,10-8.36,14.45c-1.14,2.8-1.64,5.55-0.64,8.55c1,6,2,10,5,15c1,2.5-0.08,4.76-1.89,7.13
			c-3.28,1.97-5.15,4.19-5.86,6.48c-0.25,8.39,4.75,15.39,5.75,22.97c0.24,2.92,1.22,5.35,2.41,7.67c1.19,2.31,2.59,4.51,4.01,6.7
			s2.85,4.39,3.39,6.71c-0.7,2.09-2.04,3.65-3.62,4.87c-1.58,1.22-3.41,2.1-5.08,2.81c-2.1,0.67-3.1,1.67-5.1,2.67
			c2.5,2.5,5.25,5,8.19,7.01c2.94,2.01,6.07,3.52,9.33,4.05c2.04,0.62,4.1,1.12,6.2,1.51c2.09,0.39,4.21,0.68,6.34,0.89
			c4.26,0.42,8.59,0.53,12.9,0.52c2.59,0.01,5.18,0.01,7.76,0.03c5.16,0.05,10.29,0.24,15.29,0.99c-4-1-8-5-12.57-4.62
			c-2.17-0.59-4.38-1.11-6.6-1.6c-6.67-1.47-13.5-2.65-20.18-4.52C509.35,346.96,511.77,344.65,515.61,342.35z"/>
		<linearGradient id="SVGID_3_" gradientUnits="userSpaceOnUse" x1="581.0422" y1="288.9776" x2="526.5255" y2="160.0412">
			<stop  offset="0" style="stop-color:#004951"/>
			<stop  offset="1" style="stop-color:#B0FFF7"/>
		</linearGradient>
		<path class="st7" d="M664.6,354.02c0.6-0.65,3.45-3.5,3.98-5.1c-0.5-2.79-1.56-5.5-2.64-8.19c-1.34-3.34-2.71-6.66-4.1-9.96
			c-0.78-10.64-10.78-15.64-13.78-25.64c0-2,2-3,3.41-4.57c2.34-2.43,5.09-4.93,5.59-8.43c0-3.5-2.5-6-5.13-8.62
			c-2.63-2.63-5.38-5.38-5.88-9.37c0.5-2.5,0.86-4.86,1.11-7.08c0.95-2.96,4.43-6.19,6.54-9.43c2.11-3.24,2.86-6.49-1.64-9.49
			c-6-0.67-11.22-2.67-15.48-5.7c-2.13-1.52-4.01-3.29-5.62-5.28c-4.91-5.02,1.09-10.02,2.09-14.02c3-9-9-12-11.29-19.8
			c-1.11-2.33-1.85-4.28-2.56-6.1c-0.71-1.82-1.46-3.63-2.23-5.44c-0.77-1.81-1.56-3.64-2.21-5.22
			c-0.71-10.43-3.71-21.43-10.35-28.76c-0.86-2.36-1.72-4.71-2.61-7.06c-2.64-7.03-5.39-14-8.24-20.9h-3.51
			c-0.36,0.41-0.6,0.87-0.6,1.53c-1.16,6.1-0.58,12.97-2.91,19.08c-0.58,1.91-1.6,3.82-2.62,5.63c-1.02,1.81-1.89,3.55-1.88,5.41
			c1.01,9.64-0.99,19.64-11.28,22.2c-1.67,1.92-2.53,4.33-3.22,6.96c-0.48,1.96-0.92,3.93-1.38,5.87s-0.96,3.87-1.54,5.76
			c-1.57,5.85-5.57,10.85-8.5,15.85c-1.19,1.67-2.42,3.34-3.68,5.01c-0.73,2.11-1.23,4.28-1.4,6.52c-0.17,2.24,0,4.56,0.59,6.98
			c-0.59,2.58-1.09,5.16-1.59,7.82c-4,11.67-7,21.67-8,34.67c-1,11-8,20-15.19,29.09c-1.24,2.48-2.25,5.15-3.13,7.82
			c-1.45,4.96-3.05,10.11-4.65,15.26c-0.8,2.58-1.61,5.16-2.31,7.98c-0.45,2.31-1.35,4.32-1.64,6.43c2.73,2.61,5.71,4.62,8.86,6.26
			c2.51,1.04,5.03,2.07,7.55,3.06c2.5,0.99,5.02,1.94,7.54,2.83c4.97,1.27,9.97,3.27,14.97,4.27c-8,7-19,2-28,5c15,0,32,4,46-4
			c-6-4-14-5-19.53-7.7c-2.12-0.94-4.17-1.98-6.06-3.21c-2.32-1.78-4.06-4.04-4.94-7.35c0.9-1.97,1.78-3.97,2.53-6.04
			c0.84-2.88,1.62-5.78,2.37-8.7c1.31-5.11,2.5-10.28,3.65-15.48c0.58-2.6,1.14-5.21,1.71-7.82c4.27-21.69,7.27-42.69,17.12-63.18
			c1.29-2.13,1.76-4.48,1.87-6.92s-0.14-4.97-0.28-7.47c-1.43-11.13,11.57-16.13,11.16-27c0.33-2.38,0.31-4.77,0.26-7.16
			c-0.05-2.39-0.13-4.8,0.15-7.19c14-6.78,11-21.78,8.54-33.33c0.08-1.98,0.12-3.98,0.14-5.98c0.05-5.99-0.12-12.03-0.12-17.99
			c0,5.96,0.17,12,0.12,17.99c-0.02,2-0.06,3.99-0.14,5.98c2.46,11.55,5.46,26.55-8.24,33.33c-0.3,2.38-0.3,4.78-0.29,7.17
			s0.03,4.77-0.14,7.13c2.13,9.91-8.87,12.91-10.65,21.43c-0.56,2.13-0.61,4.34-0.58,6.6s0.11,4.55-0.09,6.8
			c-0.2,2.25-0.66,4.48-1.7,6.61c-9.84,20.48-12.84,41.48-17.12,63.18c-0.57,2.61-1.14,5.22-1.71,7.82
			c-1.15,5.2-2.35,10.37-3.65,15.48c-0.75,2.92-1.53,5.82-2.37,8.7c-0.75,2.08-1.62,4.07-2.53,6.04c1.13,3.07,2.87,5.25,5.06,7.03
			c2.12,1.31,4.27,2.41,6.41,3.38c5.07,3.85,12.07,4.85,18.07,6.85c-6,5-15,4-22,6c9-3,17,4,26,2c2-1,5-2,6-4c3-4,0-8-4.31-9.99
			c-1.8-0.99-3.8-1.98-5.64-3.09c-1.86-1.11-3.54-2.34-4.7-3.81c-0.13-2.9,0.36-5.46,0.79-8.03c1.81-10.7,2.76-21.55,3.97-32.34
			c0.24-2.16,0.5-4.31,0.77-6.47c0.12-18.27,9.12-33.27,9.9-51.39c-0.23-3.01-0.65-5.72-0.58-8.82c0.45-2.26,0.42-4.65,0.25-7.05
			c-0.16-2.4-0.45-4.81-0.37-7.08c1.93-8.93,15.93-12.93,10.13-24.2c-0.45-2.57-1.19-4.92-2-7.28s-1.7-4.73-2.14-7.15
			c6.94-8.3,10.94-20.3,4-30.66c-0.04-1.88,0.08-3.75,0.2-5.61c0.49-7.48,0.86-14.98,1.03-22.54c-0.17,7.57-0.54,15.07-1.03,22.54
			c-0.12,1.87-0.24,3.73-0.2,5.61c6.93,10.36,0.93,22.36-4.01,30.91c0.44,2.46,1.33,4.9,2.14,7.31s1.57,4.78,2.04,7.35
			c5.76,10.79-8.24,14.79-10.17,23.72c-0.08,2.27,0.21,4.68,0.37,7.08c0.16,2.4,0.2,4.78-0.25,7.05c-0.07,3.1,0.35,5.81,0.53,8.83
			c-1.72,17.12-9.72,33.12-9.84,51.39c-0.27,2.15-0.53,4.31-0.77,6.47c-1.21,10.79-2.16,21.65-3.97,32.34
			c-0.43,2.57-0.92,5.13-0.79,8.03c1.94,1.65,4.05,3.49,6.22,5.38c9.43,10.52,26.43,21.52,38.43,10.52c1-1-4-3-4.19-7.05
			c-1.12-2.78-0.93-5.61,2.96-8.26c1.52-1.81,2.82-3.93,2.41-7.17c-0.11-2.81-0.22-5.63-0.34-8.45c-0.09-2.11-0.17-4.23-0.26-6.34
			c1.42-6.73-0.58-14.73-0.48-21.75c0.08-2.4,0.54-4.87,1.17-7.31c0.64-2.44,1.45-4.86,2.36-7.26c0.49-3.44,0.6-6.96,0.84-10.5
			c0.62-2.29,1-4.56,0.94-6.81c0.11-2.36-0.39-4.7-0.61-7.14c3.55-3.74,4.9-6.74,4.84-9.3c-0.07-2.56-1.55-4.68-3.67-6.69
			c-1.43-1.41-3.14-2.77-4.92-4.24c-2.26-1.44-4.14-3.14-5.7-5.02c-1.55-1.89-2.78-3.96-3.72-6.13c-0.63-1.59-1.63-4.59-0.63-6.59
			c7-9,6-17-0.17-25.03c-1.07-2.97-1.75-5.5-2.44-8.03c-0.68-2.53-1.38-5.07-1.92-7.65c6.53-9.29-1.47-20.29-3.85-29.36
			c-0.39-2.51-0.37-4.98-0.3-7.46c0.15-4.96,0.44-9.92,0.15-14.88c0.29,4.96,0,9.92-0.15,14.88c-0.07,2.48-0.09,4.95,0.3,7.46
			c4.38,9.07,7.38,19.07,4,29.23c0.62,2.49,1.41,4.94,2.15,7.41c0.74,2.47,1.44,4.95,2.4,7.94c1.83,6.49,6.83,10.49,4.83,16.49
			s-7,11-3.58,16.92c0.91,1.93,2.06,3.73,3.49,5.38c1.43,1.65,3.13,3.14,5.14,4.43c1.78,1.47,3.49,2.82,4.93,4.23
			c2.13,1.99,3.62,4.11,3.7,6.65c0.08,2.54-1.25,5.51-4.78,9.21c0.14,2.55,0.63,5.01,0.51,7.46c0.07,2.33-0.24,4.65-0.8,6.9
			c-1.3,2.91-1.45,6.36-1.71,9.89c-0.97,2.48-1.77,4.97-2.36,7.46c-0.57,2.49-0.94,4.99-0.92,7.41c-0.63,7.05,3.37,15.05,0.95,21.79
			c0.09,2.11,0.18,4.23,0.26,6.34c0.12,2.82,0.23,5.64,0.34,8.45c0.41,3.24-1.39,5.86-3.08,8.25c-2.05,2.11-2.82,4.42-2.68,6.56
			c3.58,10.66,17.58,15.66,27.58,14.66c4,0,10,0,9-5c0-4-8-3-9.86-7.9c0.38-3.09,3.36-4.1,6.59-5.4c3.23-1.29,6.68-2.88,8.08-7.05
			c-0.53-2.32-1.97-4.52-3.39-6.71c-1.42-2.19-2.82-4.39-4.01-6.7c-1.19-2.31-2.17-4.75-2.41-7.67c0-8.58-9-16.58-4.92-25.43
			c1.08-1.5,2.65-2.94,4.79-4.3c1.33-3.73,1.06-7.3,0.29-10.89s-2.04-7.2-3.16-10.95c-1-3-0.5-5.75,0.64-8.55
			c3.36-4.45,12.36-8.45,9.36-12.45c-1.33-1.83-3-3.19-4.86-4.26c-1.89-1.19-3.97-2.06-6.13-2.86c-5.34-0.62-9.67-2.82-13.08-6.02
			c-1.7-1.6-3.17-3.45-4.22-5.4c4.3-13.45,1.3-21.45-7.56-31.27c-0.84-2.1-1.52-3.93-2.27-5.68c-0.63-1.68-1.33-3.33-2.15-4.92
			c-1.09-2.12-2.38-4.13-3.88-5.81c3.16-9.77,0.16-19.77-5.11-28.23c-0.43-2.09-0.69-4.15-0.93-6.21
			c-0.65-6.2-1.09-12.43-1.33-18.79c0.24,6.36,0.69,12.59,1.33,18.79c0.24,2.06,0.49,4.12,0.93,6.21
			c5.28,8.47,8.28,18.47,5.11,28.23c1.51,1.68,2.73,3.57,3.74,5.48c1.51,2.86,2.53,5.77,3.65,8.84c3.78,9.92,18.78,16.92,7.78,28.92
			c0,1,1,3,1.15,5.26c1.07,1.83,2.38,3.55,3.86,5.05c2.96,3.01,6.62,5.17,10.93,5.91c2.08,0.75,4.17,1.44,6.22,2.26
			c2.03,0.71,4,1.52,5.83,2.52c6,4-5,10-8.36,14.45c-1.14,2.8-1.64,5.55-0.64,8.55c1,6,2,10,5,15c1,2.5-0.08,4.76-1.89,7.13
			c-3.28,1.97-5.15,4.19-5.86,6.48c-0.25,8.39,4.75,15.39,5.75,22.97c0.24,2.92,1.22,5.35,2.41,7.67c1.19,2.31,2.59,4.51,4.01,6.7
			c1.42,2.19,2.85,4.39,3.39,6.71c-0.7,2.09-2.04,3.65-3.62,4.87c-1.58,1.22-3.41,2.1-5.08,2.81c-2.1,0.67-3.1,1.67-5.1,2.67
			c2.5,2.5,5.25,5,8.19,7.01c2.94,2.01,6.07,3.52,9.33,4.05c2.04,0.62,4.1,1.12,6.2,1.51c2.09,0.39,4.21,0.68,6.34,0.89
			c4.26,0.42,8.59,0.53,12.9,0.52c2.59,0.01,5.18,0.01,7.76,0.03c5.16,0.05,10.29,0.24,15.29,0.99c-4-1-8-5-12.57-4.62
			c-2.17-0.59-4.38-1.11-6.6-1.6c-6.67-1.47-13.5-2.65-20.18-4.52C658.34,358.63,660.75,356.32,664.6,354.02z"/>
		<linearGradient id="SVGID_4_" gradientUnits="userSpaceOnUse" x1="287.4825" y1="260.1274" x2="507.8032" y2="260.1274">
			<stop  offset="0" style="stop-color:#001507"/>
			<stop  offset="1" style="stop-color:#00153E"/>
		</linearGradient>
		<linearGradient id="SVGID_5_" gradientUnits="userSpaceOnUse" x1="286.9825" y1="260.1274" x2="508.3032" y2="260.1274">
			<stop  offset="0" style="stop-color:#2E2E2E"/>
			<stop  offset="1" style="stop-color:#808080"/>
		</linearGradient>
		<path class="st8" d="M497.61,341.81c-4.96-0.21-8.96-2.21-12.74-3.31c-1.97-0.95-3.89-2.05-5.73-3.23
			c-1.86-1.18-3.65-2.43-5.37-3.69c-1.47-1.9-2.58-3.6-3.63-5.27c-0.87-1.58-1.66-3.12-2.38-4.59c-1.43-2.4-2.88-4.8-4.34-7.18
			c-3.68-6.04-7.41-12.05-11.02-18.12c-1.2-2.02-2.4-4.05-3.57-6.08c-4.17-14.73,7.83-33.73-8.17-41.73c-8-4-17-8-13.11-17.28
			c-0.4-3.11-0.82-5.67-1.51-8.11c-1.37-4.89-3.82-9.32-7.44-13.07c-1.45-1.5-3.08-2.9-4.91-4.17c-3.03-3.36-3.03-9.36-5.82-12.25
			c-0.91-1.85-1.83-3.69-2.77-5.52c-3.76-7.32-7.73-14.54-11.9-21.67h-3.85c-0.39,0.32-0.66,0.68-0.66,1.19
			c-1.28,4.73-0.64,10.06-3.19,14.79c-1.28,2.96-4.47,5.92-5.74,8.28c-1.49,2.76-2.98,5.47-4.47,8.14
			c-1.49,2.67-2.99,5.31-4.49,7.91c-1.15,9.76-5.15,19.76-12.08,26.27c-2.68,2.75-4.43,5.88-5.75,9.18s-2.32,6.81-3.32,10.31
			c-0.5,1.5-1.25,3.25-2.37,4.8c-1.12,1.55-2.6,2.89-4.57,3.58c-5.06,6.63-9.06,13.63-12.16,21.48c-0.92,2.05-1.71,4.15-2.43,6.31
			s-1.37,4.4-1.95,6.71c-0.64,1.18-0.64,2.96-1.28,4.14c-3.83,2.96-6.38,7.1-8.29,11.24c-1.2,2.88-2.48,5.85-3.79,8.84
			s-2.64,6-4.02,9c-6.14,7.9-23.14,6.9-21.14,16.9c2.25,8.25,11.25,8.63,19.83,7.88c2.86-0.25,5.67-0.63,8.17-0.88c-4-4-15-4-13-9
			c2-8,10.22-9.33,18.75-10.88c2.13-0.39,4.28-0.79,6.36-1.31c2.08-0.52,4.08-1.16,5.92-2.03c1.91-1,3.83-2.21,5.7-3.64
			c1.87-3.36,2.9-6.22,3.87-9.07c1.6-4.76,3.07-9.57,4.55-14.39c0.74-2.41,1.42-4.86,1.98-7.37c-0.53-3.08-0.75-6.01-0.48-8.78
			c1.35-14.52,15.35-21.52,21.35-32.52c2-3,3-7,1.21-9.86c0.07-2.18,0.48-4.19,1.34-6.11c1.36-2.01,2.7-4.07,4.34-6.46
			c3.11-6.57,10.11-12.57,5.11-21.57c0-2,2-4,3.17-5.99c0.91-1.91,1.63-3.85,2.2-5.82c2.85-9.85,1.93-20.4,1.93-30.67
			c0,10.27,0.92,20.82-1.93,30.67c-0.57,1.97-1.29,3.91-2.2,5.82c-1.17,1.99-3.17,3.99-3.17,5.99c5,9-2,15-5.11,21.57
			c-1.64,2.39-2.97,4.45-4.34,6.46c-0.86,1.92-1.27,3.93-1.34,6.11c0.7,2.21,0.72,4.31,0.27,6.29c-0.49,6.57-7.49,10.57-12.49,15.57
			c-5,6-10,12-10.35,20.52c-0.26,2.77-0.05,5.7,0.48,8.78c-0.55,2.52-1.23,4.96-1.98,7.37c-1.48,4.82-2.95,9.63-4.55,14.39
			c-0.97,2.86-2,5.71-3.87,9.07c-1.87,0.93-3.8,2.39-5.64,3.74c-4.09,1.12-7.09,5.12-11.1,4.79c-1.97,0.53-3.97,0.98-5.98,1.44
			c-6.01,1.39-12.01,2.89-17.01,6.89c8.75,8.75,20.63,10.86,32.7,10.97c2.45-0.03,4.89-0.13,7.34-0.3
			c3.97-1.67,9.97,0.33,13.97-1.67c-9-4-19-1-28.84-3.15c-2.35-0.43-4.64-1.06-6.85-1.98c-2.19-0.95-4.31-2.2-6.31-3.87
			c2.33-1.67,4.78-2.94,7.3-3.94c2.52-1,5.13-1.7,7.82-2.22c11.88-4.84,27.88,3.16,36.09-9.23c1.09-1.92,2.41-4.19,3.33-7.11
			c0.58-2.72,0.98-5.23,1.36-7.75c0.38-2.51,0.75-5.03,1.15-7.54c0.4-2.51,0.83-5.01,1.33-7.51c0.81-2.35,0.46-5.02,0.11-7.73
			c7.51-16.96,16.51-33.96,14.86-53.66c2.32-2.15,4.24-4.98,5.57-8.02s2.08-6.29,2.08-9.29c0-5-6-8-4.19-14.18
			c0.27-2.07,0.53-4.13,0.78-6.19c1.27-10.32,2.29-20.64,2.62-31.11c-0.33,10.48-1.36,20.79-2.62,31.11
			c-0.25,2.06-0.52,4.13-0.78,6.19c-1.81,6.18,4.19,8.18,4.19,13.18c0.5,3-0.5,5.75-1.89,8.44s-3.18,5.31-4.24,8.05
			c-1.86,1.51-2.86,4.51-2.86,7.51c3,18-8,32-13.51,47.96c0.35,2.71,0.7,5.39-0.11,7.73c-0.49,2.5-0.92,5-1.33,7.51
			c-0.4,2.51-0.78,5.02-1.15,7.54c-0.38,2.51-0.78,5.03-1.36,7.75c-0.92,2.92-2.27,5.19-3.41,7.11c-8.14,12.4-25.14,4.4-37.44,9.37
			c-2.7,0.67-5.28,1.6-7.74,2.89c-2.46,1.3-4.79,2.96-6.96,5.13c3,0.42,6.06,0.91,9.17,1.45c3.17,0.45,6.36,0.98,9.62,1.5
			c18.6,4.02,37.66,6.29,56.56,5.92c3.15-0.06,6.3-0.2,9.47-0.4c3.7-0.08,7.42-0.28,11.15-0.57c3.73-0.29,7.48-0.67,11.24-1.09
			c14.8-1.8,29.8-3.8,44.8-4.8c-10-4-21-1-32-4c4,0,8,1,12-1c-4-1-6-3-10.21-4.04c-1.75-0.73-3.48-1.45-5.2-2.2
			c-5.16-2.24-10.23-4.72-14.86-7.68c-0.15-2.78,0.46-5.67,0.5-9.19c-0.18-3.01-0.35-5.93-0.53-8.85c-0.17-2.43-0.35-4.87-0.55-7.3
			s-0.41-4.88-0.64-7.33c-0.38-2.6-0.68-5.15,0.41-8.15c5.09-7.26,10.09-14.26,10.09-21.26c0-13-23-18-18.67-33.51
			c0.4-1.92,0.8-3.79,1.06-5.66c1.03-7.44-0.15-14.65-7.68-20.29c-0.65-1.77-0.97-3.54-1.29-5.39c-0.32-1.85-0.64-3.77-1.28-5.84
			c-1.91-7.69,0-15.38-0.64-23.07c0.64,7.69-1.28,15.38,0.64,23.07c0.64,2.07,0.96,3.99,1.28,5.84c0.32,1.85,0.64,3.62,1.29,5.39
			c7.53,5.63,8.71,12.84,7.68,20.29c-0.26,1.86-0.65,3.74-1.06,5.66c-5.33,15.51,17.67,20.51,18.67,33.51c0,7-5,14-10.09,21.26
			c-1.09,3.01-0.79,5.55-0.41,8.15c0.23,2.45,0.44,4.89,0.64,7.33s0.38,4.87,0.55,7.3c0.18,2.92,0.35,5.83,0.53,8.85
			c0.13,4.02-0.24,7.27,1.44,10.57c3.66,3.27,8.25,5.15,12.91,6.84c2.33,0.85,4.69,1.65,7,2.6c2.41,0.1,4.41,2.1,6.41,3.1
			c-2.5,1-5,1.25-7.5,1.25s-5-0.25-7.5-0.25c1.83,0.33,3.69,0.58,5.57,0.78c9.43,1.22,18.43,0.22,27.43,3.22c-6,0-11,2-16,3
			c17,6,35,3,51-4c-9-3-19-4-28.24-7.26c-2.42-0.7-4.81-1.51-7.14-2.49c-2.33-0.98-4.61-2.12-6.8-3.49c-1.69-1.07-3.3-2.32-4.8-3.83
			c-1.46-1.64-2.5-3.19-3.36-4.83c-0.76-1.61-1.35-3.31-1.69-5.15c-0.74-2.56-1.51-5.09-2.28-7.6c-1.29-4.18-2.61-8.28-3.94-12.36
			c-0.66-2.04-1.33-4.07-1.99-6.1c-0.76-15.89,16.24-36.89-5.76-43.89c-9-3-17-8-15.36-17.68c1.33-3.33,1.59-6.14,1.11-8.61
			c-1.43-7.41-9.45-11.76-14.52-17.92c-0.53-1.97-1.03-3.93-1.49-5.87c-2.3-9.72-3.72-19.17-4.25-29.03
			c0.53,9.86,1.95,19.31,4.25,29.03c0.46,1.94,0.96,3.9,1.49,5.87c5.07,6.16,13.09,10.51,14.52,17.92c0.48,2.47,0.22,5.28-1.11,8.61
			c-2.64,9.68,7.36,14.68,15.36,17.68c22,7,5,28,5.76,43.89c0.66,2.03,1.33,4.06,1.99,6.1c1.33,4.08,2.65,8.19,3.94,12.36
			c0.77,2.51,1.54,5.04,2.28,7.6c0.34,1.84,0.92,3.54,1.69,5.15c0.86,1.64,1.89,3.19,3.36,4.83c1.5,1.51,3.1,2.77,4.8,3.83
			c2.2,1.37,4.47,2.52,6.8,3.49c2.33,0.98,4.72,1.79,7.14,2.49c9.24,3.26,19.24,4.26,28.24,7.26c-5,0-8,5-13,6c9-5,23,5,27-6
			c1-2-3,0-4.71-2.29C501.4,342.82,499.64,342.33,497.61,341.81z"/>
		<linearGradient id="SVGID_6_" gradientUnits="userSpaceOnUse" x1="380.645" y1="227.0787" x2="649.645" y2="227.0787">
			<stop  offset="0" style="stop-color:#001507"/>
			<stop  offset="1" style="stop-color:#646000"/>
		</linearGradient>
		<path class="st9" d="M613.15,335.9c-0.65-0.91-1.66-4.29-2.37-5.92c-1.36-2.89-2.75-5.76-4.16-8.61c-0.82-1.66-1.65-3.31-2.5-4.96
			c-0.85-1.65-1.72-3.31-2.62-4.97c-2.86-9.83-17.86-14.83-15.71-26.31c1.61-1.9,4.32-3.77,5.79-6.02c0.39-2.82-0.02-5.36-0.98-7.68
			c-1.9-4.65-5.84-8.49-11.72-11.17c-1.96-2.86-3.35-5.76-4.34-8.83c1.1-1.82,1.1-3.82,2.1-4.82c4-4,15-6,12-11
			c-1.17-1.83-2.75-3.19-4.59-4.26c-1.85-1.11-3.96-1.92-6.19-2.66c-5.74-0.36-10.23-2.38-13.71-5.48
			c-1.74-1.55-3.21-3.36-4.25-5.28c9.75-14.32-3.25-23.32-10.32-35.44c-1.23-2.77-2.43-5.38-3.65-7.98
			c-0.81-1.74-1.64-3.47-2.42-5.19c-0.87-10.71-4.87-20.71-11.51-28.52c-1.02-2.44-2.06-4.87-3.11-7.3
			c-5.26-12.12-10.9-24.03-16.88-35.77h-4.59c-0.47,0.43-0.79,0.93-0.79,1.63c-1.52,6.47-0.76,13.76-3.8,20.23
			c-1.52,4.05-5.32,8.09-6.84,11.33c-1.33,2.83-2.66,5.63-3.99,8.39c0.63,9.3-2.37,17.3-8.79,22.83c-3.22,2.93-6.58,5.64-10.08,8.22
			c-1.75,3.12-2.62,6.43-3.54,9.65c-0.92,3.23-1.9,6.37-3.85,9.15c-2.32,4.2-5.03,7.97-7.96,11.5c-1.43,2.85-2.2,5.96-1.64,9.57
			c0.03,3.19,0.18,6.36-0.16,9.18c-0.35,2.81-0.87,5.44-2.4,7.71c-9.93,12.47-2.93,26.47-9.93,39.47c-4,7-9,14-16.95,19.33
			c-3.27,3.46-4.8,6.42-5.94,9.26c-1.9,5.26-3.99,10.72-6.08,16.18c-0.7,1.82-1.39,3.64-2.08,5.46c-0.87,3.6-2.14,6.56-3.3,9.15
			c3.26,6.47,10.27,9.21,16.94,11.02c2.22,0.6,4.42,1.11,6.44,1.63c-2.83,1.17-5.7,1.88-8.59,2.28s-5.79,0.5-8.69,0.43
			c-11.63-0.3-23.41-3.41-34.74-0.74c10.33,0,21,2.22,31.74,4.59c2.69,0.59,5.37,1.19,8.07,1.78c18.19,4.63,38.19,6.63,55.19-2.37
			c-4-2-9-2-13.04-4.69c-2.31-0.84-4.62-1.73-6.89-2.68c-2.29-0.96-4.53-1.99-6.69-3.11c-2.45-1.95-4.3-4.51-5.28-8.17
			c1.39-2.11,2.63-4.28,3.55-6.6c1.09-3.05,2.12-6.13,3.1-9.22c1.28-4.07,2.48-8.17,3.63-12.29c0.58-2.06,1.14-4.13,1.71-6.2
			c5.91-15.04,8.91-31.04,11.91-47.04c1-3,4-10,7.76-13.68c0.87-2.76,1.72-5.06,2.56-7.36c2.34-3.48,2.01-7.47,1.88-11.52
			c-0.07-2.02-0.08-4.06,0.33-6.04c4.47-7.4,7.47-13.4,9.17-21.74c0.42-2.38,0.76-4.71,1.2-6.99c0.44-2.28,0.99-4.52,1.85-6.73
			c8.24-6.95,18.24-15.95,13.56-27.72c0.21-3.13,0.77-5.97,1.21-8.86c1.77-11.55,0.99-23.62,0.99-35.43
			c0,11.8,0.78,23.88-0.99,35.43c-0.44,2.89-1,5.73-1.21,8.86c4.68,11.77-5.32,20.77-13.41,27.29c-0.78,2.13-1.24,4.36-1.62,6.61
			c-0.37,2.26-0.68,4.54-1.12,6.8c-0.45,2.26-1.01,4.5-1.88,6.69c-1.29,5.38-5.29,8.38-7.22,12.38c-1.57,3.5-1.07,7.25-0.78,10.87
			c0.29,3.62,0.37,7.11-1.97,10.09c-0.83,2.3-1.68,4.6-2.56,7.36c-3.76,3.68-6.76,10.68-7.76,13.68c-3,16-6,32-11.91,47.04
			c-0.56,2.07-1.13,4.14-1.71,6.2c-1.15,4.12-2.35,8.23-3.63,12.29c-0.98,3.1-2,6.17-3.1,9.22c-0.91,2.31-2.16,4.48-3.55,6.6
			c0.97,3.66,2.89,6.29,5.46,8.33c2.36,1.33,4.82,2.52,7.33,3.58c2.48,1.06,5.01,1.99,7.53,2.82c4.58,0.92,9.58,1.92,14.58,3.92
			c-8,7-19,2-28,5c15,1,39,14,43-6c0-3-6-5-9.86-6.09c-1.92-0.94-3.68-2.04-4.86-3.42c-1.59-1.72-2.57-3.76-2.67-6.51
			c0.59-1.89,1.07-3.77,1.3-5.7c0.57-2.72,1.07-5.45,1.53-8.19c1.34-7.99,2.29-16.03,3.38-24.05c0.27-2,0.55-4.01,0.9-6.14
			c-0.72-19.9,11.28-36.9,11.34-56.38c0.74-2.38,0.79-5.04,0.63-7.77s-0.52-5.54-0.61-8.22c0.92-4.52,2.92-9.52,8.92-12.52
			c3-2,3-8,1.32-12.51c-0.32-2.59-0.82-5.07-1.32-7.58c-0.5-2.51-0.99-5.05-1.06-7.62c9.06-8.29,8.06-20.29,4.97-31.49
			c0.24-2.7,0.5-5.41,0.76-8.12c1.03-10.85,1.82-21.73,2.13-32.73c-0.3,11.01-1.09,21.88-2.13,32.73c-0.26,2.71-0.53,5.42-0.76,8.12
			c3.09,11.2,4.09,23.2-4.97,31.49c0.07,2.57,0.56,5.11,1.06,7.62c0.5,2.51,1,5,1.32,7.58c1.68,4.51,1.68,10.51-1.32,12.51
			c-6,3-8,8-8.92,12.52c0.09,2.68,0.45,5.49,0.61,8.22s0.1,5.39-0.63,7.77c-0.06,19.48-12.06,36.48-11.34,56.38
			c-0.35,2.13-0.63,4.14-0.9,6.14c-1.08,8.02-2.04,16.06-3.38,24.05c-0.46,2.74-0.96,5.47-1.53,8.19c-0.23,1.93-0.71,3.81-1.3,5.7
			c-0.1,2.5,0.47,4.41,1.6,6.03c1.45,1.75,3.22,2.93,5.15,3.84c5.63,2.15,12.63,2.15,17.63,8.15c0,1,1,4-2,4c10,0,19,6,29,1
			c3-2,5-4,2.91-9.73c-0.57-2.72-0.74-5.66,2.44-8.04c2.35-2.52,4.55-5.32,3.44-9.4c-0.15-2.99-0.3-5.98-0.45-8.97
			c-0.09-1.87-0.19-3.74-0.28-5.61c4.94-8.24-3.06-16.24-0.28-24.58c0.51-1.92,1.28-3.76,2.3-5.46c0.7-2.9,0.77-5.71,0.92-8.58
			s0.4-5.78,1.24-8.88c1.55-1.74,2.76-3.74,1.76-6.75c-0.75-1.5-1-3.12-1.05-4.81c0.85-1.91,1.75-3.82,3.18-5.83
			c2.87-3.36,5.87-7.36,3.87-9.36c-7.5-3-14.75-7.25-19.56-13.01c-1.6-1.92-2.92-4-3.68-6.18c7.24-11.82,5.24-20.82-2.36-31.64
			c-0.89-1.98-1.8-3.86-2.66-5.76c-0.85-1.9-1.65-3.82-2.14-5.8c2.39-8.62,8.39-19.62-1.62-26.93c-1.6-3.21-2.15-5.88-2.91-8.71
			c-2.28-10.52,0-21.04-0.76-31.56c0.76,10.52-1.52,21.04,0.76,31.56c0.76,2.83,1.32,5.5,2.91,8.71c9.01,6.31,6.01,18.31,1.49,26.79
			c0.6,1.9,1.63,3.73,2.7,5.57s2.18,3.68,3.1,5.77c7.72,12.19,8.72,20.19,1.55,32.01c0.74,2.18,2.04,4.26,3.64,6.18
			c4.78,5.76,12.03,10.01,19.53,13.01c2,2-1,6-3.87,9.36c-1.42,2.01-2.33,3.92-3.18,5.83c0.05,1.69,0.3,3.31,1.05,4.81
			c1,3-0.22,5.01-1.76,6.75c-0.46,3.1-0.61,6.02-0.8,8.88s-0.4,5.67-1.23,8.58c-1.05,1.7-1.84,3.54-2.38,5.46
			c-2.84,8.34,5.16,16.34,0.22,24.58c0.09,1.87,0.18,3.74,0.28,5.61c0.15,2.99,0.3,5.98,0.45,8.97c0.55,2.04,0.15,3.89-0.69,5.57
			s-2.14,3.2-3.32,4.65c-0.78,1.96-3.78,4.96-2.8,6.96c9.02,9,22.02,15,34.97,15.45c2.42,0.26,4.85,0.39,7.28,0.38
			c2.43,0,4.86-0.14,7.28-0.4c4.81-0.41,9.59-1.15,14.28-2.06c2.76-0.28,5.5-0.5,8.21-0.58c2.7-0.08,5.38-0.04,8,0.21
			c-9-6-22,1-30.08-7.89c-1.73-1.32-3.42-2.95-4.92-5.11c0-2,2-3,4.13-2.86c2.95-1.46,6-3.29,6.14-7.45
			c-0.4-1.72-1.51-3.34-2.69-4.93c-2.36-3.18-4.98-6.2-7.26-9.38c-1.14-1.59-2.2-3.21-3.01-4.94c-0.31-9.44-12.31-18.44-6.71-28.15
			c1.28-1.73,3.18-3.52,5.74-5.37c0.94-3.32,0.52-6.28-0.8-9.44c-1.32-3.15-3.54-6.48-6.54-10.48c-0.5-2.01-1.19-4.05-1.32-6.3
			c3.32-5.71,13.32-8.71,11.32-14.71c-1-2.17-2.44-3.81-4.17-5.1c-1.75-1.41-3.79-2.46-5.96-3.45c-5.29-0.48-9.37-2.58-12.63-5.62
			c-1.63-1.52-3.02-3.26-4.05-5.05c5.81-13.77-5.19-22.77-13-32.97c-1.51-3.19-2.8-6-4.12-8.8c-0.89-1.86-1.79-3.72-2.65-5.54
			c0.59-11.47-4.41-19.47-9.69-28.55c-0.85-2.69-1.38-5.33-1.85-7.97c-1.86-10.55-3.04-20.98-3.55-31.77
			c0.51,10.79,1.69,21.22,3.55,31.77c0.46,2.64,0.99,5.28,1.85,7.97c5.29,8.08,10.29,18.08,9.69,28.55
			c0.87,1.82,1.77,3.68,2.65,5.54c0.89,1.86,1.75,3.74,2.58,5.62c3.36,9.36,11.36,13.36,16.36,21.36c2,5-4,9-2,14c1,2,2,3,3.3,4.81
			c1.51,1.49,3.22,2.79,5.19,3.84c1.97,1.05,4.19,1.86,6.73,2.36c2.1,0.89,4.13,1.81,5.99,3.01c1.82,1.04,3.46,2.32,4.79,3.98
			c6,6-7,11-10.32,16.71c0.13,2.25,0.82,4.29,1.32,6.3c3,4,5.22,7.33,6.54,10.48c1.32,3.15,1.74,6.12,0.8,9.44
			c-2.56,1.85-4.46,3.64-5.74,5.37c-5.6,10.71,6.4,17.71,6.71,28.15c0.81,1.73,1.87,3.35,3.01,4.94c2.28,3.18,4.9,6.2,7.26,9.38
			c1.18,1.59,2.29,3.21,2.69,4.93c-0.14,4.15-3.42,6.25-6.37,7.71c-0.91,0.6-2.91,0.6-3.91,1.6c2.63,2,5.34,3.66,8.02,5.11
			c13.98,10.89,32.98,11.89,49.62,11.15c2.9-0.03,5.8-0.1,8.7-0.15c2.9-0.05,5.79-0.1,8.66-0.1c-4-4-9-7-14.93-9.31
			c-1.81-0.77-3.66-1.46-5.56-2.09c-3.8-1.26-7.78-2.25-11.92-3.08C614.82,339.56,613.61,337.69,613.15,335.9z"/>
		<linearGradient id="SVGID_7_" gradientUnits="userSpaceOnUse" x1="372.5392" y1="298.9719" x2="333.1098" y2="205.7183">
			<stop  offset="0" style="stop-color:#001507"/>
			<stop  offset="1" style="stop-color:#B58F00"/>
		</linearGradient>
		<path class="st10" d="M484.42,343.44c-7.78-1.84-16.78-2.84-25.16-5.29c-2.02-0.69-4.01-1.48-5.94-2.38
			c-1.93-0.9-3.81-1.91-5.64-3.06c-2.52-1.47-4.94-3.21-7.22-5.31c-0.28-1.84-0.69-3.6-1.64-5.2c-1.38-2.87-2.7-5.49-4.02-8.1
			c-3.48-6.84-6.97-13.66-10.24-20.6c-1.11-2.33-1.69-4.95-0.91-8.16c1-8.73,10-15.73,6-24.73c-6-11-24-14-22.27-27.18
			c0.42-2.24,0.62-4.19,0.52-6.03c-0.51-9.18-8.48-15.3-14.61-22.85c-0.76-1.8-1.54-3.6-2.32-5.39c-2.36-5.37-4.82-10.69-7.38-15.95
			h-2.92c-0.3,0.29-0.5,0.62-0.5,1.08c-0.97,4.31-0.48,9.16-2.42,13.47c-0.97,2.69-3.38,5.39-4.35,7.54
			c-0.75,11.3-3.75,21.3-11.34,29.2c-1.15,1.9-2.05,3.83-2.89,5.76c-2.2,5.76-3.85,11.5-7.09,16.28c-1.44,2.12-3.19,4.06-5.44,5.72
			c-1.5,1.84-2.75,3.84-3.81,5.94c-1.18,5.4-4.18,9.4-4.74,13.38c-0.6,2.27-1.16,4.52-1.73,6.69c-0.15,2-0.17,4.07-0.06,6.22
			c-0.93,2.16-2.12,4.21-3.51,6.16c-0.48,1.08-0.48,2.69-0.97,3.77c-2.9,2.69-4.83,6.47-6.28,10.24c-0.6,1.75-1.24,3.54-1.89,5.34
			c-0.65,1.8-1.31,3.62-1.98,5.44c-4.04,5.16-9.04,8.16-15.41,9.02c-2.94,0.82-5.72,1.61-7.83,2.81c-2.11,1.21-3.55,2.83-3.8,5.33
			c-0.75,8.25,9.19,9.75,18.42,9.98c3.08,0.08,6.08,0.02,8.58,0.02c-6-4-14-3-20-8c-1-1,0-3,1-4c4-3,8.56-4.33,13.22-5.17
			c2.33-0.42,4.69-0.71,7.03-1.03c6.75-0.8,13.75-1.8,18.74-7.39c1.88-1.84,3.33-4.15,4.1-7.06c0.74-2.6,1.43-5.22,2.11-7.85
			c0.68-2.63,1.35-5.26,2.03-7.9c0.68-2.63,1.37-5.27,2.1-7.9c-0.08-2.68-0.27-5.44-0.26-8.17c-0.07-14.54,14.93-22.54,18.33-36.97
			c0.4-1.84,0.67-3.72,0.93-5.64s0.53-3.87,0.97-5.84c0.93-2.27,2-4.54,3.26-6.95c7.44-9.14,7.44-19.14,5.69-28.73
			c0.3-3.33,0.36-6.72,0.35-10.11s-0.11-6.79-0.11-10.16c0,3.37,0.09,6.77,0.11,10.16s-0.05,6.78-0.35,10.11
			c1.75,9.58,0.75,19.58-5.69,28.73c-1.27,2.41-2.34,4.68-3.26,6.95c-0.45,1.97-0.72,3.92-0.97,5.84s-0.53,3.8-0.93,5.64
			c-3.4,14.43-18.4,22.43-18.33,36.97c-0.01,2.74,0.18,5.5,0.26,8.17c-0.73,2.63-1.42,5.26-2.1,7.9c-0.68,2.63-1.35,5.27-2.03,7.9
			c-0.68,2.63-1.37,5.24-2.11,7.85c-0.77,2.91-2.22,5.22-4.1,7.06c-4.98,5.59-11.98,6.59-18.74,7.39c-2.33,0.32-4.69,0.61-7.03,1.03
			c-4.67,0.84-9.22,2.17-13.22,5.17c-1,1-2,3-1,4c7.5,5,15.5,7,23.75,7.75c2.76,0.23,5.56,0.31,8.38,0.31
			c5.87-0.06,10.87,0.94,16.87-1.06c-9-3-18-1-27.15-3.81c-2.26-0.49-4.47-1.12-6.63-1.95c-2.14-0.85-4.23-1.91-6.23-3.24
			c2.17-1.67,4.44-2.92,6.8-3.87c2.36-0.95,4.79-1.61,7.3-2.08c12.9-3.05,29.9,1.95,36.89-12.25c1.37-2.21,2.28-4.96,2.53-8.39
			c0.29-2.29,0.57-4.58,0.88-6.86c0.46-3.43,0.96-6.85,1.6-10.24s1.09-6.93,0.71-10.7c2.3-10.6,6.3-21.6,11.3-31.6
			c3-5-1-11,0.18-16.64c0.69-2.6,1.35-5.1,2.27-7.77c2.54-6.59,7.54-15.59,0.58-21.72c-0.56-2.59-0.39-5.53-0.14-8.55
			c0.5-6.03,0.88-12.07,1.04-18.18c-0.16,6.11-0.54,12.15-1.04,18.18c-0.25,3.01-0.42,5.96,0.14,8.55
			c7.96,7.13,1.96,17.13-1.32,23.75c-0.78,1.87-1.33,3.85-0.9,6.34c2.18,17.04-9.82,31.04-12.12,47.64c0.38,3.77-0.07,7.3-0.71,10.7
			s-1.15,6.81-1.6,10.24c-0.3,2.29-0.59,4.58-0.88,6.86c-0.25,3.1-1.1,5.6-2.4,7.63c-8.11,11.96-24.11,8.96-36.01,12.68
			c-2.67,0.58-5.27,1.32-7.8,2.33s-4.97,2.29-7.3,3.95c2.9,0.9,5.91,1.81,9.01,2.7c3.14,0.81,6.36,1.64,9.64,2.4
			c18.81,5.94,38.21,6.51,57.42,4.51c3.2-0.33,6.43-0.73,9.77-1.17c6.58-0.22,12.87-1.09,19.14-1.89c2.09-0.27,4.17-0.54,6.28-0.76
			c3.74-1.8,8.74-0.8,12.74-0.8c-3-1-5-1-8-1.42c-2.75-0.42-5.5-0.76-8-0.94c-2.68-0.3-5.35-0.55-8.02-0.76
			c-8.02-0.62-16.05-0.86-24.13-0.84c-3.41,0.02-6.75,0.07-10.1,0.04c-9.73,0.06-19.38-0.45-28.76-3.08
			c8.25-1.88,16.64-2.48,25.07-2.62c2.83-0.03,5.67-0.01,8.53,0.04c12.4,1.58,24.4,0.58,36.4,0.58c-4-3-9-4-12.92-5.97
			c-1.98-0.91-3.69-1.95-4.93-3.41c-1.14-1.42-1.8-3.26-1.68-5.81c0.38-4.33,0.09-7.21-0.02-9.86c-0.39-6.64-0.85-13.31-1.48-20.02
			c-0.42-2.35-0.52-4.71,0.28-7.57c10.75-14.36,0.75-29.36-7.25-42.36c-1-2,0-4-0.16-6.2c-0.11-2.06,0.01-4.12,0.62-6.48
			c4.54-8.32,3.54-18.32-5.67-22.08c-1.13-3.27-1.13-6.77-1.01-10.28c0.12-3.5,0.36-7,0.12-10.51c0.24,3.5,0,7-0.12,10.51
			c-0.12,3.5-0.12,7,1.01,10.28c9.2,3.76,10.2,13.76,5.67,22.08c-0.61,2.35-0.73,4.41-0.62,6.48c0.16,2.2-0.84,4.2,0.16,6.2
			c10,12,18,29,7.25,42.36c-0.8,2.86-0.7,5.22-0.28,7.57c0.62,6.72,1.09,13.38,1.48,20.02c0.11,2.66,0.4,5.53,0.02,9.86
			c0.38,2.54,1.3,4.52,2.57,6.07c1.44,1.63,3.22,2.83,5.33,3.84c4.63,1.27,9.63,3.27,14.63,4.27c-12,4-24,1-36.3,1.09
			c-2.91-0.11-5.78-0.19-8.64-0.24c-8.43-0.06-16.82,0.27-25.07,2.14c8.1-0.6,16.11-0.3,24.08,0.47c2.71,0.28,5.41,0.61,8.16,1
			c10.25,1.51,20.75,3.52,31.35,5.12c2.65,0.4,5.3,0.77,7.96,1.11c19.45,1.31,38.45,3.31,56.45-3.69c-10,0-20-2-29.84-4.18
			c-2.49-0.6-4.96-1.28-7.41-2.06c-2.46-0.78-4.9-1.65-7.33-2.62c-2.33-0.92-4.61-1.95-6.85-3.13s-4.42-2.51-6.54-4.02
			c-1.09-2.72-0.72-5.01-0.59-7.2s-0.26-4.42-1.54-6.63c-0.49-1.9-0.98-3.79-1.48-5.66c-0.62-2.34-1.25-4.67-1.88-6.99
			c-0.63-2.32-1.26-4.63-1.88-6.93c-0.42-1.89-0.98-3.75-1.4-5.66c12.73-17.9,6.73-35.9-13.27-44.9c-3-2-2-6-2.43-9
			c-0.23-2.04-0.29-4-0.16-6.08c1.58-7.92-2.42-15.92-9.14-20.2c-1.1-2.3-1.56-4.9-1.93-7.53c-0.73-5.25-1.21-10.51-1.45-15.89
			c0.24,5.39,0.73,10.64,1.45,15.89c0.36,2.63,0.83,5.23,1.93,7.53c6.72,4.28,10.72,12.28,9.36,20.2c-0.08,2.09,0.01,4.04,0.22,6.09
			c0.14,12.99,20.14,15.99,23.14,27.99c2,9-5,17-7.73,25.9c0.42,1.92,0.98,3.77,1.4,5.66c0.63,2.31,1.26,4.62,1.88,6.93
			c0.63,2.32,1.26,4.64,1.88,6.99c0.5,1.88,0.99,3.76,1.48,5.66c1.02,2.21,1.54,4.56,1.6,6.92c0.25,2.66,1.15,4.73,2.51,6.39
			c1.8,1.86,3.92,3.25,6.5,4.48c1.94,0.88,3.9,1.66,5.87,2.34c1.98,0.69,3.98,1.3,6.03,1.89c2.1,0.64,4.2,1.23,6.32,1.78
			c2.12,0.55,4.25,1.06,6.38,1.55c7.88,2.51,16.88,3.51,24.88,5.51c-7,6-16,2-24,5c12,3,24-1,35-4.6
			C489.93,344.98,487.99,344.15,484.42,343.44z"/>
		<linearGradient id="SVGID_8_" gradientUnits="userSpaceOnUse" x1="549.645" y1="259.9363" x2="772.2522" y2="259.9363">
			<stop  offset="0" style="stop-color:#001507"/>
			<stop  offset="1" style="stop-color:#00153E"/>
		</linearGradient>
		<linearGradient id="SVGID_9_" gradientUnits="userSpaceOnUse" x1="548.7919" y1="259.9363" x2="772.8102" y2="259.9363">
			<stop  offset="0" style="stop-color:#2E2E2E"/>
			<stop  offset="1" style="stop-color:#808080"/>
		</linearGradient>
		<path class="st11" d="M772.25,340.17c-1.77-1.62-3.74-2.87-5.84-3.9s-4.32-1.85-6.57-2.59c-4.52-1.48-9.2-2.65-13.38-4.62
			c-2.09-0.98-4.02-2.16-5.16-3.65c1.09-2.95,1.71-5.73,1.85-8.34c0.3-2.74,0.11-5.31-0.44-7.85c0.16-3.1-0.34-5.72-1.31-8.01
			c-2.51-7.74-8.23-12.54-14.44-16.96c-3.1-2.21-6.32-4.32-9.32-6.65c2.25-4.75,3-8.5,2.66-11.62s-1.75-5.62-3.24-8.16
			c-1.42-2.22-1.42-5.22-3.41-7.22c-12.01-7.99-21.01-19.99-20.17-34.62c-0.46-1.85-1.24-3.77-2.36-5.82
			c-1.12-2.04-2.58-4.21-4.4-6.54c-0.88-2.35-1.68-4.46-2.48-6.57c-0.72-1.88-1.45-3.75-2.17-5.63c-1.23-2.37-2.55-4.68-3.93-6.96
			c-4.13-6.83-8.75-13.29-13-19.71c-0.87-1.78-1.9-3.64-2.94-5.49h-3.84c-0.39,0.33-0.66,0.7-0.66,1.24
			c-4.22,12.58-9.78,25.09-17.16,35.56c-1.51,2.24-3.09,4.37-4.76,6.5c-1.92,3.02-3.82,6.04-5.7,9.01
			c-1.88,2.97-3.72,5.93-5.49,8.84c-4.95,7.19-4.95,15.19-9.99,22.67c-0.83,1.96-1.57,3.8-2.44,5.56c-0.05,2.03,0.1,4.09,0.24,6.2
			c-2.76,5.76,2.24,10.76,1.24,17.76c-0.5,2-1.38,3.63-2.56,5.04c-2.07,1.49-4.38,2.79-6.76,4.02c-2.36,1.22-4.75,2.35-6.89,3.46
			c-9.79,2.49-11.79,14.49-11.72,23.61c-0.74,2.4-1.46,4.51-2.32,6.57c-0.85,2.05-1.73,4.13-2.6,6.2c-0.87,2.07-1.75,4.15-2.64,6.19
			c-3.66,5.01-9.06,7.21-14.86,8.88c-1.93,0.56-3.91,1.06-5.89,1.58c-2.76,1.45-4.76,1.45-7.76,2.45c5,6,12,9,20.11,12.33
			c2.16,0.83,4.35,1.49,6.61,1.94s4.59,0.69,7.02,0.68c4.71,0.27,9.44-0.11,14.03-1.19c2.81-0.67,5.56-1.58,8.22-2.75
			c-2-1.52-4.5-2.77-6.62-4.39s-3.88-3.63-4.38-6.63c0.5-1.5,2.25-2.75,4.26-4c2.01-1.25,4.27-2.49,5.79-3.99
			c2.35-2.79,3.64-5.63,4.72-8.55c0.81-2.19,1.57-4.39,2.31-6.61c0.73-2.22,1.44-4.45,1.97-6.77c-2.04-9.09-2.04-20.09,5.91-26.11
			c1.51-1.37,3.2-2.71,5.03-4.06c2.03-2.96,3.53-6.19,4.69-9.56c1.16-3.36,1.98-6.86,2.62-10.35c1.29-3.14,2.54-6.34,3.55-9.65
			c-2.21-1.09-3.8-2.54-4.84-4.18c-0.75-2.05-0.93-3.95-0.7-5.75c0.71-6.43,4.71-9.43,8.52-13.11c1.87-1.69,3.76-3.31,5.28-4.98
			c1.55-1.68,2.93-3.5,4.05-5.47c2.24-3.94,3.47-8.52,3.18-13.98c1.36-2.18,2.56-4.13,3.57-6.33c4.53-8.88,3.28-19.6,4.13-29.79
			c0.29-2.39,0.32-4.92,0.32-7.48c0,2.56-0.03,5.09-0.32,7.48c-0.84,10.19,0.4,20.92-4.13,29.79c-1.01,2.2-2.2,4.16-3.57,6.33
			c0.28,5.46-0.94,10.03-3.18,13.98c-1.12,1.97-2.5,3.79-4.05,5.47c-1.52,1.66-3.35,3.29-5.14,4.97c-2.9,2.38-4.85,5.3-6.09,8.51
			c-1.24,3.21-1.66,6.76-1.45,10.35c1,1.65,2.46,3.09,4.42,4.18c-1,3.31-2.26,6.76-3.54,10.03c-0.64,3.3-1.71,6.71-3,10.02
			c-1.28,3.32-2.78,6.54-4.31,9.51c-1.83,1.35-3.52,2.69-5.03,4.06c-6.95,6.02-7.95,17.02-5.91,26.11
			c-0.53,2.32-1.23,4.55-1.97,6.77c-0.73,2.22-1.5,4.42-2.31,6.61c-1.08,2.92-2.37,5.76-4.72,8.55c-1.02,2.49-3.53,4.74-5.41,6.61
			c-1.88,1.87-3.14,3.38-1.68,4.4c1.88,2.12,3.9,3.93,6.04,5.47c2.14,1.55,4.38,2.83,6.72,3.9c7.3,4.59,15.3,3.59,22.79,4.65
			c2.65,0.12,5.31,0.15,7.96,0.15c5.3-0.02,10.55-0.2,15.55-0.2c-1-4-3-8-7.12-8.96c-1.81-0.86-3.78-1.58-5.67-2.45
			c-1.89-0.87-3.7-1.87-5.2-3.3c-1.5-1.15-3.01-2.21-4.19-3.59c-1.18-1.31-2.03-2.92-2.23-5.14c0.67-2.6,1.29-5.18,1.82-7.77
			c0.53-2.59,0.99-5.19,1.41-7.8c0.42-2.61,0.8-5.22,1.18-7.83c0-2.04-0.12-4.13-0.14-6.25c0.14-5.89,0.14-12.89,3.93-17.56
			c0.92-2.75,1.56-5.38,2.5-7.96c1.71-4.37,5.71-7.37,7.95-11.71c1.2-2.22,1.8-4.52,1.95-6.88c1.45-2.69,1.66-4.84,1.11-6.65
			c-0.56-1.82-1.89-3.31-3.53-4.68c-1.89-1.22-3.58-2.58-4.93-4.01c-3.42-2.72-3.88-6.07-2.63-9.03c1.25-2.96,4.22-5.52,7.66-6.65
			c1.63-1.06,3.13-2.25,4.13-3.75c1-2,2-3,2.34-4.58c0.97-1.73,1.71-3.58,2.18-5.54c0.94-3.92,0.84-8.27-0.48-12.96
			c0-3.87,0.05-7.41,0.07-10.98c0.12-1.99,0.21-3.99,0.28-5.99c0.22-6,0.34-12.04,1.06-18.11c0.49-2.4,0.71-4.95,0.79-7.56
			c-0.08,2.61-0.29,5.16-0.79,7.56c-0.73,6.07-0.59,12.11-0.74,18.11c-0.05,2-0.13,4-0.28,5.99c-0.27,3.57-0.49,7.11-0.6,10.98
			c1.05,4.36,1.09,8.6,0.18,12.52c-0.45,1.96-1.15,3.84-2.06,5.61c-1.33,1.83-2.88,3.57-4.45,5.25c-1.58,1.68-3.18,3.31-4.61,4.9
			c-1.95,1.4-3.42,3.85-4.03,6.47c-0.61,2.61-0.36,5.39,1.15,7.45c1.38,1.57,3.53,3.18,6.64,4.83c1.2,1.5,2.06,3.11,2.39,4.9
			c0.32,1.78,0.11,3.74-0.84,5.93c-0.15,2.36-0.75,4.66-1.95,6.88c-2.24,4.34-6.24,7.34-7.95,11.71c-0.94,2.58-1.58,5.21-2.5,7.96
			c-3.79,4.67-3.79,11.67-3.93,17.56c0.02,2.13,0.14,4.22,0.14,6.25c-0.38,2.61-0.76,5.22-1.18,7.83c-0.42,2.61-0.88,5.21-1.41,7.8
			c-0.53,2.59-1.15,5.17-1.82,7.77c1.84,2.05,3.88,3.95,6.08,5.78c1.73,2.57,3.61,4.92,5.55,7.09c4.78,8.58,14.78,11.58,24.18,13.19
			c2.43,0.28,4.88,0.4,7.3,0.39c2.42-0.01,4.81-0.14,7.11-0.37c2.73-0.42,5.42-1.12,8.03-2.09c2.61-0.97,5.13-2.23,7.52-3.76
			c2.5-1.43,4.91-3.13,7.2-5.09c2.29-1.96,4.45-4.19,6.45-6.69c-2.5-1-5-2-7.57-2.9c-2.57-0.9-5.2-1.69-7.98-2.27
			c-2.65-0.87-5.18-1.89-7.39-3.35c-2.21-1.46-4.09-3.38-5.43-6.01c-0.74-2.94-1.01-5.64-1.07-8.31c-0.28-2.58,0.08-4.87,0.76-7.14
			c0.68-2.27,1.73-4.56,2.96-7.26c1.86-5.38,3.04-10.57,2.5-15.29c-0.54-4.72-2.79-8.97-7.72-12.53c1.47-3.47,4.7-6.21,7.44-8.95
			s4.99-5.49,4.73-9.17c1.38-2.91,0.57-5.11-1.09-6.84c-7.16-6.98-20.16-2.98-27.16-9.98c-6-7,5-13,4.75-21.5
			c0.93-3.13,1.21-6.51,0.85-10.23c-0.36-3.72-1.37-7.79-2.97-12.29c0.09-2.11-0.1-4.09-0.45-6.04c-1.84-9.33-7.68-17.94-5.18-27.94
			c-2.5,10,3.33,18.61,5.18,27.94c0.35,1.95,0.54,3.93,0.45,6.04c1.59,4.51,2.6,8.57,2.97,12.29c0.36,3.72,0.09,7.1-0.85,10.23
			c0.25,6.5-6.75,11.5-4.75,17.5c2,10,15,6,23,10c2,1,3,2,3.26,3.58c1.07,1.76,1.77,4.1,1.98,7.24c0.26,3.18-1.99,5.68-4.47,8.28
			c-2.48,2.6-5.18,5.31-5.58,8.73c0.65,2.33,1.41,4.5,2.1,6.62c2.22,6.22,3.77,11.98,1,19.27c-0.46,2.32-1.2,4.55-2.16,6.64
			c-1,3.69-1.86,7.23-1.58,10.81c0.06,2.67,0.33,5.37,1.07,8.31c0.37,1.53,1.37,3.53,3.37,4.53c1.75,0.75,3.69,1.37,5.64,2.03
			c1.95,0.66,3.92,1.35,5.73,2.25c1.66,0.93,3.09,2.19,4.25,3.66c1.17,1.48,2.07,3.2,2.67,5.18c0.7,3.87,1.7,8.87-1.3,12.87
			c12,1,24-2,36.05-6.31c2.2-0.97,4.36-2.1,6.44-3.38c2.16-1.14,4.29-2.32,6.38-3.53c2.09-1.21,4.13-2.44,6.13-3.68
			c-2.17-2.05-4.53-3.55-7.01-4.69c-2.49-1.14-5.1-1.92-7.77-2.54c-8.01-1.86-16.53-2.24-23.7-6.09c-2.33-1.28-4.5-2.94-5.96-5.17
			c0.86-1.9,1.7-3.96,2.34-6.08c0.76-2.22,1.33-4.52,1.66-6.9c0.22-2.32,0.83-4.73,1.04-7.25c1.7-6.19,0.55-11.54-2.4-15.59
			c-2.95-4.05-7.7-6.8-13.2-7.8c3.75-4.25,5.5-8.13,5.77-11.65s-0.93-6.69-2.6-9.86c-0.09-2.75-0.38-5.12-1.15-6.94
			c-15.03-9.56-36.03-10.56-26.67-33.18c-0.02-1.65-0.45-3.35-1.4-5.09s-2.41-3.53-4.51-5.38c-0.67-2.43-1.16-4.41-1.65-6.44
			c-0.33-1.54-0.62-2.99-0.9-4.47c-3.59-11.37-9.56-22.34-7.9-34.01c-1.67,11.67,4.31,22.64,7.9,34.01c0.28,1.48,0.57,2.93,0.9,4.47
			c0.49,2.03,0.98,4.01,1.65,6.44c2.89,2.52,4.62,5.04,5.43,7.5c0.81,2.46,0.71,4.88,0.4,7.23c-0.28,6.35-6.28,12.35,1.72,17.35
			c8,6,19,0,24.27,8.86c1.76,2.13,2.73,6.14,1.91,9.64c1.66,3.16,2.87,6.33,2.6,9.86s-2.02,7.4-5.77,11.65
			c5.5,1,10.25,3.75,13.2,7.8c2.95,4.05,4.1,9.39,2.4,15.59c-0.21,2.53-0.82,4.94-1.04,7.25c-0.33,2.38-0.9,4.68-1.66,6.9
			c-0.64,2.12-1.48,4.17-2.34,6.08c1.47,2.22,3.69,3.83,6.09,5.03c7.37,3.61,16.17,3.56,23.28,5.63c2.37,0.69,4.56,1.62,6.44,3.02
			s3.47,3.27,4.63,5.84c-1.5,1.93-4.25,3.65-6.37,5.52c-2.12,1.88-3.62,3.91-2.62,6.37c2,4.47,5.5,3.72,9.17,1.38
			c3.67-2.34,7.52-6.26,10.22-8.12C768.84,345.36,771.6,342.75,772.25,340.17z"/>
		<linearGradient id="SVGID_10_" gradientUnits="userSpaceOnUse" x1="637.2007" y1="296.4977" x2="595.9108" y2="198.8436">
			<stop  offset="0" style="stop-color:#001507"/>
			<stop  offset="1" style="stop-color:#B58F00"/>
		</linearGradient>
		<path class="st12" d="M759.76,342.28c-1.12-1.62-3.12-3.67-5.12-4.68c-4.33-1.67-9.11-2.56-13.89-3.49
			c-4.78-0.93-9.55-1.9-13.88-3.73c-2.16-0.92-4.22-2.05-6.02-3.49c-2.22-1.29-3.22-3.29-3.22-5.29c1-2,1.63-4,1.88-5.94
			c0.37-2.04,0.37-4.02,0.13-5.99c0-2.51-0.44-4.75-1.19-6.8c-0.55-9.51-6.95-14.02-13.53-18.93c-3.29-2.45-6.62-5.01-9.03-8.57
			c0.87-2.89,3.3-5.33,5.27-7.68s3.47-4.6,2.52-7.14c-0.68-2.83-1.9-5.04-3.53-6.83c-1.62-1.81-3.59-3.21-5.7-4.43
			c-7.83-4.69-20.83-6.69-21.83-16.69c0-5,3-11,1.27-16.58c-0.4-1.81-1.17-3.7-2.33-5.71c-1.16-2.01-2.7-4.13-4.65-6.42
			c-0.94-3.05-1.55-5.26-2.11-7.58c-3.38-9.24-6.85-17.71-15.19-22.71c-3,5.5-4.25,11.5-6.37,16.87c-0.71,1.79-1.51,3.51-2.51,5.12
			c-2.02,1.67-3.84,3.48-5.5,5.4c-3.62,3.62-5.62,8.62-8.94,13.9c-1.18,2.68-2.2,5.4-3.38,8.03c-3.3,8.69-4.3,17.69-10.87,24.74
			c-0.81,2.17-1.64,4.35-2.34,6.58c-1.04,2.19-1.3,4.55-1.18,6.95c2.02,2.61,2.91,5.13,3.01,7.53c0.09,2.4-0.61,4.69-1.77,6.83
			c-1.54,2.77-3.69,4.72-6.11,6.25c-12.04,2.83-20.04,10.83-16.04,24.83c0,3-2,5-3.94,6.52c-0.7,1.82-1.44,3.68-2.19,5.55
			c-0.75,1.87-1.53,3.76-2.3,5.65c-0.77,1.89-1.55,3.78-3.05,5.69c-2.45,2.47-6.09,3.87-9.79,4.93c-3.7,1.05-7.46,1.75-10.14,2.82
			c-1.6-0.16-3.6,0.84-3.6,2.84c1,1.5,2.05,3.06,3.2,4.6c3.8,4.4,7.8,9.4,13.82,10.7c2.26,0.76,4.64,1.21,7.04,1.37
			c2.39,0.16,4.8,0.01,7.08-0.43c4.81-0.5,9.62-1.63,14-2.83c2.72-0.75,5.37-1.58,7.87-2.41c-4,0-7-1-10-1.86
			c-3-1.13-5.5-3.13-7-7.13c-1.5-3.5,0.5-4.5,3.29-5.26c2.79-0.76,6.37-1.27,8.03-3.79c2.15-1.54,3.81-3.65,4.52-6.88
			c0.95-2.66,1.84-5.35,2.68-8.05c1.05-3.38,2-6.81,2.39-10.68c-4.92-8.33-1.92-21.33,6.92-24.81c1.69-1.26,3.43-2.47,5.08-3.66
			c1.94-3.2,3.49-6.52,4.6-9.93s1.79-6.92,1.98-10.51c0.4-2.05,0.71-4.13,1.1-6.2c0.7-3.61-1.65-6.17-3.16-8.69
			c-2.44-9.53,6.56-15.53,12.8-21.63c1.25-1.79,2.24-3.72,3.06-5.72c1.63-4.02,2.57-8.35,3.43-12.51c1.22-2.75,2.26-5.26,3.03-7.98
			c2.06-7.06,1.5-14.94-0.75-21.69c2.25,6.75,2.81,14.63,0.75,21.69c-0.77,2.72-1.81,5.23-3.03,7.98c-0.86,4.17-1.79,8.5-3.43,12.51
			c-0.82,2.01-1.81,3.94-3.06,5.72c-6.24,6.09-14.24,12.09-12.8,21.63c1.51,2.52,3.86,5.08,3.16,8.69c-0.39,2.08-0.7,4.16-1.1,6.2
			c-0.19,3.59-0.87,7.1-1.98,10.51s-2.66,6.73-4.6,9.93c-1.65,1.19-3.39,2.4-5.08,3.66c-8.84,3.47-11.84,16.47-6.92,24.81
			c-0.39,3.87-1.34,7.3-2.39,10.68c-0.84,2.7-1.73,5.39-2.68,8.05c-0.71,3.23-2.62,5.47-4.95,7.19c-1.45,2.37-5.17,3.3-8.03,4.15
			c-2.86,0.84-4.86,1.59-2.86,3.59c2,2.13,4.13,3.97,6.35,5.56c2.23,1.6,4.56,2.96,6.97,4.11c9.68,3.33,20.68,6.33,31.54,5.37
			c2.73-0.05,5.45-0.19,8.15-0.38s5.37-0.42,7.99-0.67c-2-4-5-7-8.97-8.79c-1.86-0.9-3.84-1.62-5.84-2.32
			c-2-0.7-4.02-1.39-5.96-2.23c-1.95-1.39-3.44-3.31-4.18-6.19c0.47-2.6,1.1-4.94,1.57-7.3c0.98-4.92,1.68-9.89,2.37-14.85
			c0.35-2.48,0.44-5.09,0.28-7.8c-1.27-6.52-0.27-12.52,3.11-19.31c1.23-2.02,2.6-4.12,3.93-6.43c0.98-2.9,2.24-5.85,3.37-8.84
			c1.13-2.99,2.14-6.01,2.63-9.04c0.43-1.83,0.72-3.66,0.91-5.55c0.78-2.37,1.78-5.37,0.78-6.37c-3-1.5-5.5-3.75-6.94-6.5
			c-2.03-3.75-1.53-6.87-0.02-9.67c1.52-2.79,3.99-5.29,5.99-7.76c1.9-2.81,3.31-6,4.04-9.46s0.68-7.2-0.08-11.16
			c0.47-3.56,1.3-6.3,2.08-9.19c2-7.27,2.93-14.77-0.07-22.27c3,7.5,2.06,15,0.07,22.27c-0.78,2.89-1.61,5.62-2.08,9.19
			c0.01,3.77,0.51,8.66-0.24,13.14c-0.37,2.24-0.98,4.37-1.92,6.2c-5.83,3.21-9.83,8.21-10.52,14.79c-0.17,3.74,1.46,7.06,6.22,7.71
			c3.03,2.06,5.08,4.4,2.69,9.09c-0.19,1.89-0.48,3.72-0.91,5.55c-0.49,3.03-1.5,6.05-2.63,9.04c-1.13,2.99-2.39,5.94-3.37,8.84
			c-1.33,2.3-2.69,4.4-3.93,6.43c-3.38,6.78-5.38,12.78-3.11,19.31c0.16,2.71,0.07,5.32-0.28,7.8c-0.69,4.96-1.4,9.92-2.37,14.85
			c-0.47,2.36-1.1,4.7-1.57,7.3c1.62,1.69,3.43,3.33,5.38,4.89c1.45,2.46,3.12,4.73,4.97,6.83c6.59,7.81,17.59,13.81,28.99,13.72
			c2.7,0.11,5.41-0.07,8.08-0.56c5.34-0.97,10.53-3.18,15.19-6.79c1.71-1.59,2.84-3.42,2.94-5.45c0.1-2.03-0.83-4.25-3.24-6.63
			c-2.13-1.68-4.89-2.89-7.4-4.29c-2.14-1-4.29-2.04-6.1-3.46c-1.81-1.42-3.29-3.24-4.1-5.74c-0.48-2.53-0.68-4.93-0.88-7.31
			c-0.11-1.88-0.19-3.75-0.24-5.63c-0.05-1.88-0.14-3.75-0.28-5.64c1.12-2.86,1.64-5.59,1.77-8.3c-0.57-2.06-0.11-3.84,0.37-5.6
			c0.48-1.77,0.98-3.52,0.48-5.52c-1-2.25-1.63-4.44-2.03-6.59c-0.28-2.26-0.34-4.48-0.2-6.8c2.08-4.2,3.57-8.22,4.04-11.92
			c0.47-3.7,0.48-7.38,0.29-10.65c-2.33-9.02-11.34-7.34-18.66-9.31c-2.44-0.66-4.69-1.72-6.43-3.72c-2.89-4-1.69-6.75,0.66-9.07
			c2.41-2.32,5.98-4.22,7.62-6.52c1.36-2.43,1.51-5.42,1.06-8.68c-0.45-3.27-1.79-6.82-3.26-10.48c-0.96-4.11-1.14-6.94-1.1-9.81
			c-0.29-6.92,0.27-13.67-1.98-20.42c2.25,6.75,1.69,13.5,1.98,20.42c-0.04,2.87,0.14,5.71,1.1,9.81c1.47,3.66,2.81,7.22,3.3,10.48
			s0.41,6.25-0.8,8.67c-1.29,2.81-4.94,4.96-7.5,7.29c-2.51,2.33-3.97,4.83-1.08,8.33c1.49,2,3.43,3.25,5.59,4.14
			c6.47,2.67,14.93,2.12,19.5,8.89c0.2,3.27,0.18,6.95-0.29,10.65c-0.47,3.7-1.96,7.72-4.04,11.92c-0.14,2.32-0.08,4.55,0.2,6.8
			c0.4,2.15,1.03,4.34,2.03,6.59c0.5,2,0,3.75-0.48,5.52c-0.48,1.76-0.95,3.54-0.37,5.6c-0.14,2.71-0.66,5.44-1.77,8.3
			c0.14,1.88,0.23,3.76,0.28,5.64c0.05,1.88,0.13,3.75,0.24,5.63c0.2,2.38,0.4,4.78,0.88,7.31c1.23,2.01,2.23,5.01,4.23,7.01
			c2,1.25,3.81,2.69,5.52,4.22c9.48,19.78,30.48,25.78,48.19,11.58c2.76-1.59,5.5-3.19,8.22-4.67c2.72-1.49,5.41-2.89,8.08-4.04
			c-2.17-1.88-4.47-3.29-6.87-4.38s-4.9-1.87-7.45-2.49c-10.2-2.45-21.23-2.24-30.32-8.28c-2.15-1.8-3.91-4.1-4.54-7.11
			c0.59-2.91,0.64-5.87,0.48-8.84c0.18-2.5,0.43-4.99,0.56-7.4c0.2-2.6,0.45-5.36,0.92-8.56c-0.77-3.03,2.23-8.03-0.77-9.03
			s-5.13-2.25-6.64-3.71c-1.42-1.53-2.23-3.28-2.6-5.27c0.12-3.01,0.92-5.51,2.08-7.89s2.65-4.63,4.15-7.13c0.5-2.5,0-5-1.13-7.13
			s-2.87-3.88-4.81-4.93c-7.38-3.96-16.95-3.95-24.29-7.06c-1.83-0.78-3.53-1.75-5.02-3.03c-2.76-1.86-5.76-6.86-1.89-9.87
			c1.62-1.51,3.62-3.02,4.12-5.04c0.86-3.17,0.33-6.79-0.67-10.53c-1-3.74-2.61-7.61-3.38-11.33c-0.11-3.01-0.1-5.46-0.17-8.02
			c-0.46-6.57-1.77-13.32-4.77-20.07c3.75,6,3.56,12.56,4.06,19.33c0.1,2.55,0.28,5.08,0.79,8.06c-0.32,3.6,1.31,7.12,2.83,10.49
			c1.52,3.37,2.94,6.6,2.65,9.64c-1.66,2.74-3.75,5.36-4.66,8.04c-0.92,2.68-0.67,5.43,2.33,8.43c2,2,4.25,3.38,6.64,4.41
			c7.17,3.1,15.59,3.12,22.29,7.72c1.47,1.09,2.82,2.44,3.97,4.15c1.11,2.07,1.33,3.87,0.71,5.69c-0.23,4.78-7.34,9.26-6.51,15.95
			c1.95,2.04,3.61,3.94,4.99,5.83c4.21,5.6,5.84,11.1,5.63,19.63c0.24,2.35,0.2,4.73-0.16,7.1c-0.6,3.48-1.65,6.94-1.74,10.35
			c0.65,2.84,2.4,5.01,4.52,6.7c7.77,6.32,20.14,4.87,29.01,7.64c2.22,0.69,4.21,1.65,5.86,3.07c1.65,1.42,2.96,3.3,3.79,5.87
			c0,2.95-2.25,3.67-4.63,4.28c-4.38,1.61-7.38,4.61-3.38,7.61c3,3,6,0,8.93-1.11c2.68-1.39,5.29-3.38,8.52-4.88
			c2.73-1.63,5.38-3.09,7.65-3.78C756.74,344.66,758.47,343.48,759.76,342.28z"/>
		<linearGradient id="SVGID_11_" gradientUnits="userSpaceOnUse" x1="499.6261" y1="271.4429" x2="445.1094" y2="142.5065">
			<stop  offset="0" style="stop-color:#001507"/>
			<stop  offset="1" style="stop-color:#1C7CF8"/>
		</linearGradient>
		<path class="st13" d="M583.18,336.49c0.6-0.65,3.45-3.5,3.98-5.1c-0.5-2.79-1.56-5.5-2.64-8.19c-1.34-3.34-2.71-6.66-4.1-9.96
			c-0.78-10.64-10.78-15.64-13.78-25.64c0-2,2-3,3.41-4.57c2.34-2.43,5.09-4.93,5.59-8.43c0-3.5-2.5-6-5.13-8.63
			c-2.63-2.63-5.38-5.37-5.88-9.37c0.5-2.5,0.86-4.86,1.11-7.08c0.95-2.96,4.43-6.19,6.54-9.43c2.11-3.24,2.86-6.49-1.64-9.49
			c-6-0.67-11.22-2.67-15.48-5.7c-2.13-1.52-4.01-3.29-5.62-5.28c-4.91-5.02,1.09-10.02,2.09-14.02c3-9-9-12-11.29-19.8
			c-1.11-2.33-1.85-4.28-2.56-6.1c-0.71-1.82-1.46-3.63-2.23-5.44c-0.77-1.81-1.56-3.64-2.21-5.22
			c-0.71-10.43-3.71-21.43-10.35-28.76c-0.86-2.36-1.72-4.71-2.61-7.06c-2.64-7.03-5.39-14-8.24-20.9h-3.51
			c-0.36,0.41-0.6,0.87-0.6,1.53c-1.16,6.1-0.58,12.97-2.91,19.08c-0.58,1.91-1.6,3.82-2.62,5.63c-1.02,1.81-1.89,3.55-1.88,5.41
			c1.01,9.64-0.99,19.64-11.28,22.2c-1.67,1.92-2.53,4.33-3.22,6.96c-0.48,1.96-0.92,3.93-1.38,5.87c-0.46,1.94-0.96,3.87-1.54,5.76
			c-1.57,5.85-5.57,10.85-8.5,15.85c-1.19,1.67-2.42,3.34-3.68,5.01c-0.73,2.11-1.23,4.28-1.4,6.52c-0.17,2.24,0,4.56,0.59,6.98
			c-0.59,2.58-1.09,5.16-1.59,7.82c-4,11.67-7,21.67-8,34.67c-1,11-8,20-15.19,29.09c-1.24,2.48-2.25,5.15-3.13,7.82
			c-1.45,4.96-3.05,10.11-4.65,15.26c-0.8,2.58-1.61,5.16-2.31,7.98c-0.45,2.31-1.35,4.32-1.64,6.43c2.73,2.61,5.71,4.62,8.86,6.26
			c2.51,1.04,5.03,2.07,7.55,3.06c2.5,0.99,5.02,1.94,7.54,2.83c4.97,1.27,9.97,3.27,14.97,4.27c-8,7-19,2-28,5c15,0,32,4,46-4
			c-6-4-14-5-19.53-7.7c-2.12-0.94-4.17-1.98-6.06-3.21c-2.32-1.78-4.06-4.04-4.94-7.35c0.9-1.97,1.78-3.97,2.53-6.04
			c0.84-2.88,1.62-5.78,2.37-8.7c1.31-5.11,2.5-10.28,3.65-15.48c0.58-2.6,1.14-5.21,1.71-7.82c4.27-21.69,7.27-42.69,17.12-63.18
			c1.29-2.13,1.76-4.48,1.87-6.92s-0.14-4.97-0.28-7.47c-1.43-11.13,11.57-16.13,11.16-27c0.33-2.38,0.31-4.77,0.26-7.16
			c-0.05-2.39-0.13-4.8,0.15-7.19c14-6.78,11-21.78,8.54-33.33c0.08-1.98,0.12-3.98,0.14-5.98c0.05-5.99-0.12-12.03-0.12-17.99
			c0,5.96,0.17,12,0.12,17.99c-0.02,2-0.06,3.99-0.14,5.98c2.46,11.55,5.46,26.55-8.24,33.33c-0.3,2.38-0.3,4.78-0.29,7.17
			c0.01,2.39,0.03,4.77-0.14,7.13c2.13,9.91-8.87,12.91-10.65,21.43c-0.56,2.13-0.61,4.34-0.58,6.6c0.04,2.26,0.11,4.55-0.09,6.8
			c-0.2,2.25-0.66,4.48-1.7,6.61c-9.84,20.48-12.84,41.48-17.12,63.18c-0.57,2.61-1.14,5.22-1.71,7.82
			c-1.15,5.2-2.35,10.37-3.65,15.48c-0.75,2.92-1.53,5.82-2.37,8.7c-0.75,2.08-1.62,4.07-2.53,6.04c1.13,3.07,2.87,5.25,5.06,7.03
			c2.12,1.31,4.27,2.41,6.41,3.38c5.07,3.85,12.07,4.85,18.07,6.85c-6,5-15,4-22,6c9-3,17,4,26,2c2-1,5-2,6-4c3-4,0-8-4.31-9.99
			c-1.8-0.99-3.8-1.98-5.64-3.09c-1.86-1.11-3.54-2.34-4.7-3.81c-0.13-2.9,0.36-5.46,0.79-8.03c1.81-10.7,2.76-21.55,3.97-32.34
			c0.24-2.16,0.5-4.31,0.77-6.47c0.12-18.27,9.12-33.27,9.9-51.39c-0.23-3.01-0.65-5.72-0.58-8.82c0.45-2.26,0.42-4.65,0.25-7.05
			s-0.45-4.81-0.37-7.08c1.93-8.93,15.93-12.93,10.13-24.2c-0.45-2.57-1.19-4.92-2-7.28s-1.7-4.73-2.14-7.15
			c6.94-8.3,10.94-20.3,4-30.66c-0.04-1.88,0.08-3.75,0.2-5.61c0.49-7.48,0.86-14.98,1.03-22.54c-0.17,7.57-0.54,15.07-1.03,22.54
			c-0.12,1.87-0.24,3.73-0.2,5.61c6.93,10.36,0.93,22.36-4.01,30.91c0.44,2.46,1.33,4.9,2.14,7.31s1.57,4.78,2.04,7.35
			c5.76,10.79-8.24,14.79-10.17,23.72c-0.08,2.27,0.21,4.68,0.37,7.08s0.2,4.78-0.25,7.05c-0.07,3.1,0.35,5.81,0.53,8.83
			c-1.72,17.12-9.72,33.12-9.84,51.39c-0.27,2.15-0.53,4.31-0.77,6.47c-1.21,10.79-2.16,21.65-3.97,32.34
			c-0.43,2.57-0.92,5.13-0.79,8.03c1.94,1.65,4.05,3.49,6.22,5.38c9.43,10.52,26.43,21.52,38.43,10.52c1-1-4-3-4.19-7.05
			c-1.12-2.78-0.93-5.61,2.96-8.26c1.52-1.81,2.82-3.93,2.41-7.17c-0.11-2.81-0.22-5.63-0.34-8.45c-0.09-2.11-0.17-4.23-0.26-6.34
			c1.42-6.73-0.58-14.73-0.48-21.75c0.08-2.4,0.54-4.87,1.17-7.31c0.64-2.44,1.45-4.86,2.36-7.26c0.49-3.44,0.6-6.96,0.84-10.5
			c0.62-2.29,1-4.56,0.94-6.81c0.11-2.36-0.39-4.7-0.61-7.14c3.55-3.74,4.9-6.74,4.84-9.3c-0.07-2.56-1.55-4.68-3.67-6.69
			c-1.43-1.41-3.14-2.77-4.92-4.24c-2.26-1.44-4.14-3.14-5.7-5.02c-1.55-1.89-2.78-3.96-3.72-6.13c-0.63-1.59-1.63-4.59-0.63-6.59
			c7-9,6-17-0.17-25.03c-1.07-2.97-1.75-5.5-2.44-8.03c-0.68-2.53-1.38-5.07-1.92-7.65c6.53-9.29-1.47-20.29-3.85-29.36
			c-0.39-2.51-0.37-4.98-0.3-7.46c0.15-4.96,0.44-9.92,0.15-14.88c0.29,4.96,0,9.92-0.15,14.88c-0.07,2.48-0.09,4.95,0.3,7.46
			c4.38,9.07,7.38,19.07,4,29.23c0.62,2.49,1.41,4.94,2.15,7.41c0.74,2.47,1.44,4.95,2.4,7.94c1.83,6.49,6.83,10.49,4.83,16.49
			s-7,11-3.58,16.92c0.91,1.93,2.06,3.73,3.49,5.38c1.43,1.65,3.13,3.14,5.14,4.43c1.78,1.47,3.49,2.82,4.93,4.23
			c2.13,1.99,3.62,4.11,3.7,6.65c0.08,2.54-1.25,5.51-4.78,9.21c0.14,2.55,0.63,5.01,0.51,7.46c0.07,2.33-0.24,4.65-0.8,6.9
			c-1.3,2.91-1.45,6.36-1.71,9.89c-0.97,2.48-1.77,4.97-2.36,7.46c-0.57,2.49-0.94,4.99-0.92,7.41c-0.63,7.05,3.37,15.05,0.95,21.79
			c0.09,2.11,0.18,4.23,0.26,6.34c0.12,2.82,0.23,5.64,0.34,8.45c0.41,3.24-1.39,5.86-3.08,8.25c-2.05,2.11-2.82,4.42-2.68,6.56
			c3.58,10.66,17.58,15.66,27.58,14.66c4,0,10,0,9-5c0-4-8-3-9.86-7.9c0.38-3.09,3.36-4.1,6.59-5.4c3.23-1.29,6.68-2.88,8.08-7.05
			c-0.53-2.32-1.97-4.52-3.39-6.71c-1.42-2.19-2.82-4.39-4.01-6.7c-1.19-2.31-2.17-4.75-2.41-7.67c0-8.58-9-16.58-4.92-25.43
			c1.08-1.5,2.65-2.94,4.79-4.3c1.33-3.73,1.06-7.3,0.29-10.89c-0.77-3.59-2.04-7.2-3.16-10.95c-1-3-0.5-5.75,0.64-8.55
			c3.36-4.45,12.36-8.45,9.36-12.45c-1.33-1.83-3-3.19-4.86-4.26c-1.89-1.19-3.97-2.06-6.13-2.86c-5.34-0.62-9.67-2.82-13.08-6.02
			c-1.7-1.6-3.17-3.45-4.22-5.4c4.3-13.45,1.3-21.45-7.56-31.27c-0.84-2.1-1.52-3.93-2.27-5.68c-0.63-1.68-1.33-3.33-2.15-4.92
			c-1.09-2.12-2.38-4.13-3.88-5.81c3.16-9.77,0.16-19.77-5.11-28.23c-0.43-2.09-0.69-4.15-0.93-6.21
			c-0.65-6.2-1.09-12.43-1.33-18.79c0.24,6.36,0.69,12.59,1.33,18.79c0.24,2.06,0.49,4.12,0.93,6.21
			c5.28,8.47,8.28,18.47,5.11,28.23c1.51,1.68,2.73,3.57,3.74,5.48c1.51,2.86,2.53,5.77,3.65,8.84c3.78,9.92,18.78,16.92,7.78,28.92
			c0,1,1,3,1.15,5.26c1.07,1.83,2.38,3.55,3.86,5.05c2.96,3.01,6.62,5.17,10.93,5.91c2.08,0.75,4.17,1.44,6.22,2.26
			c2.03,0.71,4,1.52,5.83,2.52c6,4-5,10-8.36,14.45c-1.14,2.8-1.64,5.55-0.64,8.55c1,6,2,10,5,15c1,2.5-0.08,4.76-1.89,7.13
			c-3.28,1.97-5.15,4.19-5.86,6.48c-0.25,8.39,4.75,15.39,5.75,22.97c0.24,2.92,1.22,5.35,2.41,7.67c1.19,2.31,2.59,4.51,4.01,6.7
			c1.42,2.19,2.85,4.39,3.39,6.71c-0.7,2.09-2.04,3.65-3.62,4.87c-1.58,1.22-3.41,2.1-5.08,2.81c-2.1,0.67-3.1,1.67-5.1,2.67
			c2.5,2.5,5.25,5,8.19,7.01c2.94,2.01,6.07,3.52,9.33,4.05c2.04,0.62,4.1,1.12,6.2,1.51s4.21,0.68,6.34,0.89
			c4.26,0.42,8.59,0.53,12.9,0.52c2.59,0.01,5.18,0.01,7.76,0.03c5.16,0.05,10.29,0.24,15.29,0.99c-4-1-8-5-12.57-4.62
			c-2.17-0.59-4.38-1.11-6.6-1.6c-6.67-1.47-13.5-2.65-20.18-4.52C576.92,341.1,579.33,338.79,583.18,336.49z"/>
	</g>
	<g>
		<linearGradient id="SVGID_12_" gradientUnits="userSpaceOnUse" x1="214.2007" y1="299.4021" x2="425.4553" y2="299.4021">
			<stop  offset="0" style="stop-color:#613F00"/>
			<stop  offset="1" style="stop-color:#000D05"/>
		</linearGradient>
		<path class="st14" d="M425.46,341.25H214.2l29.37-44.72c31.79-48.4,100.51-52.45,137.63-8.12L425.46,341.25z"/>
		<linearGradient id="SVGID_13_" gradientUnits="userSpaceOnUse" x1="383.0248" y1="304.3877" x2="594.2795" y2="304.3877">
			<stop  offset="0" style="stop-color:#613F00"/>
			<stop  offset="1" style="stop-color:#000D05"/>
		</linearGradient>
		<path class="st15" d="M594.28,351.22H383.02l29.37-50.04c31.79-54.17,100.51-58.7,137.63-9.09L594.28,351.22z"/>
		<linearGradient id="SVGID_14_" gradientUnits="userSpaceOnUse" x1="552.3954" y1="296.9576" x2="763.65" y2="296.9576">
			<stop  offset="0" style="stop-color:#613F00"/>
			<stop  offset="1" style="stop-color:#000D05"/>
		</linearGradient>
		<path class="st16" d="M763.65,351.22H552.4l29.37-57.98c31.79-62.76,100.51-68.02,137.63-10.53L763.65,351.22z"/>
		<linearGradient id="SVGID_15_" gradientUnits="userSpaceOnUse" x1="194.6575" y1="324.7902" x2="487.7006" y2="324.7902">
			<stop  offset="0" style="stop-color:#CD8A4C"/>
			<stop  offset="1" style="stop-color:#58D000"/>
		</linearGradient>
		<path class="st17" d="M487.7,361.66H194.66l40.74-39.39c44.1-42.63,139.42-46.21,190.92-7.15L487.7,361.66z"/>
		<linearGradient id="SVGID_16_" gradientUnits="userSpaceOnUse" x1="450.976" y1="318.4308" x2="823.4073" y2="318.4308">
			<stop  offset="0" style="stop-color:#CD8A4C"/>
			<stop  offset="1" style="stop-color:#58D000"/>
		</linearGradient>
		<path class="st18" d="M823.41,358.28H450.98l51.78-42.58c56.05-46.08,177.19-49.94,242.64-7.73L823.41,358.28z"/>
		<g>
			<polygon class="st19" points="136.03,333.62 223.23,335.67 186.68,205.57 			"/>
			<polygon class="st19" points="168.79,334.04 193.15,334.61 185.89,205.21 			"/>
		</g>
		<g>
			<polygon class="st19" points="67.6,367.05 154.8,369.09 118.25,239 			"/>
			<polygon class="st19" points="100.37,367.47 124.73,368.04 117.46,238.63 			"/>
		</g>
		<g>
			<polygon class="st19" points="262.71,333.09 349.9,335.14 313.35,205.05 			"/>
			<polygon class="st19" points="295.47,333.51 319.83,334.09 312.56,204.68 			"/>
		</g>
		<g>
			<polygon class="st19" points="550.68,332.57 637.88,334.61 601.32,204.52 			"/>
			<polygon class="st19" points="583.44,332.99 607.8,333.56 600.54,204.15 			"/>
		</g>
		<g>
			<polygon class="st19" points="614.42,367.57 701.62,369.62 665.07,239.53 			"/>
			<polygon class="st19" points="647.19,367.99 671.55,368.56 664.28,239.16 			"/>
		</g>
		<g>
			<polygon class="st19" points="743.28,381.62 830.48,383.66 793.92,253.57 			"/>
			<polygon class="st19" points="776.04,382.04 800.4,382.61 793.13,253.2 			"/>
		</g>
		<g>
			<path class="st20" d="M60.88,232.59"/>
			<g>
				<linearGradient id="SVGID_17_" gradientUnits="userSpaceOnUse" x1="462.4061" y1="357.2905" x2="391.5717" y2="189.7617">
					<stop  offset="0" style="stop-color:#AAFF64"/>
					<stop  offset="1" style="stop-color:#EBFFBD"/>
				</linearGradient>
				<path class="st21" d="M848.5,365.72H66.14c-11.3,0-20.46-9.16-20.46-20.46v0c0-11.3,9.16-20.46,20.46-20.46H848.5
					c11.3,0,20.46,9.16,20.46,20.46v0C868.96,356.55,859.8,365.72,848.5,365.72z"/>
				<linearGradient id="SVGID_18_" gradientUnits="userSpaceOnUse" x1="297.8035" y1="362.3372" x2="286.2437" y2="334.9974">
					<stop  offset="0" style="stop-color:#001000"/>
					<stop  offset="1" style="stop-color:#7C6200"/>
				</linearGradient>
				<ellipse class="st22" cx="296.97" cy="360.37" rx="42.17" ry="24.89"/>
				<g>
					<linearGradient id="SVGID_19_" gradientUnits="userSpaceOnUse" x1="369.7402" y1="361.9789" x2="360.2888" y2="339.6255">
						<stop  offset="0" style="stop-color:#001000"/>
						<stop  offset="1" style="stop-color:#7C6200"/>
					</linearGradient>
					<ellipse class="st23" cx="369.06" cy="360.37" rx="6.32" ry="24.89"/>
					<linearGradient id="SVGID_20_" gradientUnits="userSpaceOnUse" x1="387.7087" y1="361.9789" x2="378.2573" y2="339.6255">
						<stop  offset="0" style="stop-color:#001000"/>
						<stop  offset="1" style="stop-color:#7C6200"/>
					</linearGradient>
					<ellipse class="st24" cx="387.03" cy="360.37" rx="6.32" ry="24.89"/>
					<linearGradient id="SVGID_21_" gradientUnits="userSpaceOnUse" x1="405.6773" y1="361.9789" x2="396.2258" y2="339.6255">
						<stop  offset="0" style="stop-color:#001000"/>
						<stop  offset="1" style="stop-color:#7C6200"/>
					</linearGradient>
					<ellipse class="st25" cx="405" cy="360.37" rx="6.32" ry="24.89"/>
					<linearGradient id="SVGID_22_" gradientUnits="userSpaceOnUse" x1="423.6458" y1="361.9789" x2="414.1943" y2="339.6255">
						<stop  offset="0" style="stop-color:#001000"/>
						<stop  offset="1" style="stop-color:#7C6200"/>
					</linearGradient>
					<ellipse class="st26" cx="422.97" cy="360.37" rx="6.32" ry="24.89"/>
					<linearGradient id="SVGID_23_" gradientUnits="userSpaceOnUse" x1="441.6143" y1="361.9789" x2="432.1628" y2="339.6255">
						<stop  offset="0" style="stop-color:#001000"/>
						<stop  offset="1" style="stop-color:#7C6200"/>
					</linearGradient>
					<ellipse class="st27" cx="440.94" cy="360.37" rx="6.32" ry="24.89"/>
					<linearGradient id="SVGID_24_" gradientUnits="userSpaceOnUse" x1="459.5828" y1="361.9789" x2="450.1314" y2="339.6255">
						<stop  offset="0" style="stop-color:#001000"/>
						<stop  offset="1" style="stop-color:#7C6200"/>
					</linearGradient>
					<ellipse class="st28" cx="458.9" cy="360.37" rx="6.32" ry="24.89"/>
				</g>
				<g>
					<linearGradient id="SVGID_25_" gradientUnits="userSpaceOnUse" x1="458.807" y1="363.7525" x2="449.3556" y2="341.399">
						<stop  offset="0" style="stop-color:#001000"/>
						<stop  offset="1" style="stop-color:#7C6200"/>
					</linearGradient>
					<ellipse class="st29" cx="458.13" cy="362.15" rx="6.32" ry="24.89"/>
					<linearGradient id="SVGID_26_" gradientUnits="userSpaceOnUse" x1="476.7756" y1="363.7525" x2="467.3241" y2="341.399">
						<stop  offset="0" style="stop-color:#001000"/>
						<stop  offset="1" style="stop-color:#7C6200"/>
					</linearGradient>
					<ellipse class="st30" cx="476.1" cy="362.15" rx="6.32" ry="24.89"/>
					<linearGradient id="SVGID_27_" gradientUnits="userSpaceOnUse" x1="494.7441" y1="363.7525" x2="485.2926" y2="341.399">
						<stop  offset="0" style="stop-color:#001000"/>
						<stop  offset="1" style="stop-color:#7C6200"/>
					</linearGradient>
					<ellipse class="st31" cx="494.06" cy="362.15" rx="6.32" ry="24.89"/>
					<linearGradient id="SVGID_28_" gradientUnits="userSpaceOnUse" x1="512.7126" y1="363.7525" x2="503.2611" y2="341.399">
						<stop  offset="0" style="stop-color:#001000"/>
						<stop  offset="1" style="stop-color:#7C6200"/>
					</linearGradient>
					<ellipse class="st32" cx="512.03" cy="362.15" rx="6.32" ry="24.89"/>
					<linearGradient id="SVGID_29_" gradientUnits="userSpaceOnUse" x1="530.6812" y1="363.7525" x2="521.2297" y2="341.399">
						<stop  offset="0" style="stop-color:#001000"/>
						<stop  offset="1" style="stop-color:#7C6200"/>
					</linearGradient>
					<ellipse class="st33" cx="530" cy="362.15" rx="6.32" ry="24.89"/>
					<linearGradient id="SVGID_30_" gradientUnits="userSpaceOnUse" x1="548.6497" y1="363.7525" x2="539.1982" y2="341.399">
						<stop  offset="0" style="stop-color:#001000"/>
						<stop  offset="1" style="stop-color:#7C6200"/>
					</linearGradient>
					<ellipse class="st34" cx="547.97" cy="362.15" rx="6.32" ry="24.89"/>
				</g>
				<g>
					<linearGradient id="SVGID_31_" gradientUnits="userSpaceOnUse" x1="712.0183" y1="356.8572" x2="702.5801" y2="334.5352">
						<stop  offset="0" style="stop-color:#001000"/>
						<stop  offset="1" style="stop-color:#7C6200"/>
					</linearGradient>
					<ellipse class="st35" cx="711.34" cy="355.25" rx="5.5" ry="24.89"/>
					<linearGradient id="SVGID_32_" gradientUnits="userSpaceOnUse" x1="727.6497" y1="356.8572" x2="718.2115" y2="334.5352">
						<stop  offset="0" style="stop-color:#001000"/>
						<stop  offset="1" style="stop-color:#7C6200"/>
					</linearGradient>
					<ellipse class="st36" cx="726.97" cy="355.25" rx="5.5" ry="24.89"/>
					<linearGradient id="SVGID_33_" gradientUnits="userSpaceOnUse" x1="743.2812" y1="356.8572" x2="733.843" y2="334.5352">
						<stop  offset="0" style="stop-color:#001000"/>
						<stop  offset="1" style="stop-color:#7C6200"/>
					</linearGradient>
					<ellipse class="st37" cx="742.6" cy="355.25" rx="5.5" ry="24.89"/>
					<linearGradient id="SVGID_34_" gradientUnits="userSpaceOnUse" x1="758.9127" y1="356.8572" x2="749.4744" y2="334.5352">
						<stop  offset="0" style="stop-color:#001000"/>
						<stop  offset="1" style="stop-color:#7C6200"/>
					</linearGradient>
					<ellipse class="st38" cx="758.23" cy="355.25" rx="5.5" ry="24.89"/>
					<linearGradient id="SVGID_35_" gradientUnits="userSpaceOnUse" x1="774.5441" y1="356.8572" x2="765.1059" y2="334.5352">
						<stop  offset="0" style="stop-color:#001000"/>
						<stop  offset="1" style="stop-color:#7C6200"/>
					</linearGradient>
					<ellipse class="st39" cx="773.87" cy="355.25" rx="5.5" ry="24.89"/>
					<linearGradient id="SVGID_36_" gradientUnits="userSpaceOnUse" x1="790.1756" y1="356.8572" x2="780.7374" y2="334.5352">
						<stop  offset="0" style="stop-color:#001000"/>
						<stop  offset="1" style="stop-color:#7C6200"/>
					</linearGradient>
					<ellipse class="st40" cx="789.5" cy="355.25" rx="5.5" ry="24.89"/>
				</g>
				<g>
					<linearGradient id="SVGID_37_" gradientUnits="userSpaceOnUse" x1="63.2378" y1="362.9793" x2="53.7839" y2="340.6201">
						<stop  offset="0" style="stop-color:#001000"/>
						<stop  offset="1" style="stop-color:#7C6200"/>
					</linearGradient>
					<ellipse class="st41" cx="62.56" cy="361.37" rx="6.46" ry="24.89"/>
					<linearGradient id="SVGID_38_" gradientUnits="userSpaceOnUse" x1="81.6059" y1="362.9793" x2="72.152" y2="340.6201">
						<stop  offset="0" style="stop-color:#001000"/>
						<stop  offset="1" style="stop-color:#7C6200"/>
					</linearGradient>
					<ellipse class="st42" cx="80.93" cy="361.37" rx="6.46" ry="24.89"/>
					<linearGradient id="SVGID_39_" gradientUnits="userSpaceOnUse" x1="99.9739" y1="362.9793" x2="90.52" y2="340.6201">
						<stop  offset="0" style="stop-color:#001000"/>
						<stop  offset="1" style="stop-color:#7C6200"/>
					</linearGradient>
					<ellipse class="st43" cx="99.29" cy="361.37" rx="6.46" ry="24.89"/>
					<linearGradient id="SVGID_40_" gradientUnits="userSpaceOnUse" x1="118.342" y1="362.9793" x2="108.8881" y2="340.6201">
						<stop  offset="0" style="stop-color:#001000"/>
						<stop  offset="1" style="stop-color:#7C6200"/>
					</linearGradient>
					<ellipse class="st44" cx="117.66" cy="361.37" rx="6.46" ry="24.89"/>
					<linearGradient id="SVGID_41_" gradientUnits="userSpaceOnUse" x1="136.71" y1="362.9793" x2="127.2561" y2="340.6201">
						<stop  offset="0" style="stop-color:#001000"/>
						<stop  offset="1" style="stop-color:#7C6200"/>
					</linearGradient>
					<ellipse class="st45" cx="136.03" cy="361.37" rx="6.46" ry="24.89"/>
					<linearGradient id="SVGID_42_" gradientUnits="userSpaceOnUse" x1="155.0781" y1="362.9793" x2="145.6242" y2="340.6201">
						<stop  offset="0" style="stop-color:#001000"/>
						<stop  offset="1" style="stop-color:#7C6200"/>
					</linearGradient>
					<ellipse class="st46" cx="154.4" cy="361.37" rx="6.46" ry="24.89"/>
				</g>
				<linearGradient id="SVGID_43_" gradientUnits="userSpaceOnUse" x1="239.4518" y1="369.5078" x2="228.697" y2="344.0719">
					<stop  offset="0" style="stop-color:#001000"/>
					<stop  offset="1" style="stop-color:#7C6200"/>
				</linearGradient>
				<ellipse class="st47" cx="238.68" cy="367.68" rx="32.75" ry="24.89"/>
				<linearGradient id="SVGID_44_" gradientUnits="userSpaceOnUse" x1="816.4861" y1="362.1516" x2="806.0188" y2="337.3955">
					<stop  offset="0" style="stop-color:#001000"/>
					<stop  offset="1" style="stop-color:#7C6200"/>
				</linearGradient>
				<ellipse class="st48" cx="815.73" cy="360.37" rx="28.86" ry="24.89"/>
				<g>
					<linearGradient id="SVGID_45_" gradientUnits="userSpaceOnUse" x1="470.0918" y1="387.8731" x2="399.2575" y2="220.3442">
						<stop  offset="0" style="stop-color:#100600"/>
						<stop  offset="1" style="stop-color:#1B2300"/>
					</linearGradient>
					<path class="st49" d="M856.18,396.3H73.82c-11.3,0-20.46-9.16-20.46-20.46v0c0-11.3,9.16-20.46,20.46-20.46h782.36
						c11.3,0,20.46,9.16,20.46,20.46v0C876.65,387.14,867.48,396.3,856.18,396.3z"/>
					<linearGradient id="SVGID_46_" gradientUnits="userSpaceOnUse" x1="462.4061" y1="379.7173" x2="391.5717" y2="212.1884">
						<stop  offset="0" style="stop-color:#7EFF64"/>
						<stop  offset="1" style="stop-color:#7EFF59"/>
					</linearGradient>
					<path class="st50" d="M848.5,388.14H66.14c-11.3,0-20.46-9.16-20.46-20.46v0c0-11.3,9.16-20.46,20.46-20.46H848.5
						c11.3,0,20.46,9.16,20.46,20.46v0C868.96,378.98,859.8,388.14,848.5,388.14z"/>
				</g>
				<path class="st51" d="M682.33,397.07l-3.2-13.96l1.63-14.62l-6.55,18.65c-0.17-1.03-0.29-1.88-0.29-2.29
					c0,0-0.75-23.15-1.81-23.09c-1.07,0.05-2.07,23.29-2.07,23.29c-0.46,0.98-0.86,2.14-1.18,3.33l-5.45-18.77l0.18,14.22
					l-5.58,14.57L682.33,397.07z M671.48,394.91l-0.39,1.11l-0.31-1.08L671.48,394.91z"/>
				<path class="st51" d="M770.39,393.59l-3.2-13.96l1.63-14.62l-6.55,18.65c-0.17-1.03-0.29-1.88-0.29-2.29
					c0,0-0.75-23.15-1.81-23.09s-2.07,23.29-2.07,23.29c-0.46,0.98-0.86,2.14-1.18,3.33l-5.45-18.77l0.18,14.22l-5.58,14.57
					L770.39,393.59z M759.54,391.43l-0.39,1.11l-0.31-1.08L759.54,391.43z"/>
				<path class="st51" d="M819.31,397.84l-3.2-13.96l1.63-14.62l-6.55,18.65c-0.17-1.03-0.29-1.88-0.29-2.29
					c0,0-0.75-23.15-1.81-23.09s-2.07,23.29-2.07,23.29c-0.46,0.98-0.86,2.14-1.18,3.33l-5.45-18.77l0.18,14.22l-5.58,14.57
					L819.31,397.84z M808.46,395.67l-0.39,1.11l-0.31-1.08L808.46,395.67z"/>
				<path class="st51" d="M718,397.84l-3.2-13.96l1.63-14.62l-6.55,18.65c-0.17-1.03-0.29-1.88-0.29-2.29c0,0-0.75-23.15-1.81-23.09
					s-2.07,23.29-2.07,23.29c-0.46,0.98-0.86,2.14-1.18,3.33l-5.45-18.77l0.18,14.22l-5.58,14.57L718,397.84z M707.15,395.67
					l-0.39,1.11l-0.31-1.08L707.15,395.67z"/>
			</g>
		</g>
	</g>
	<g>
		<g>
			<path class="st52" d="M901.36,414.61c0-6.59-8.41-12.34-20.86-15.36v-5.22h-9.21c-7.51-3.96-18.94-6.5-31.75-6.5
				s-24.24,2.53-31.75,6.5h-8.8c-7.11-3.96-17.93-6.5-30.06-6.5c-10.93,0-20.79,2.06-27.84,5.37c-7.05-3.28-17.59-5.37-29.38-5.37
				c-13.09,0-24.65,2.57-31.58,6.5h-13.46c-6.63-5.4-19.31-9.05-33.87-9.05c-12.72,0-24.01,2.79-31.09,7.09
				c-6.87-2.82-15.98-4.54-25.97-4.54c-12.13,0-22.95,2.53-30.06,6.5h-23.05c-10.17-4.01-24.2-6.5-39.69-6.5
				c-5.42,0-10.66,0.31-15.62,0.88c-4.96-0.57-10.2-0.88-15.62-0.88c-6.68,0-13.08,0.46-19.02,1.31
				c-9.92-3.47-22.94-5.58-37.22-5.58c-20.43,0-38.31,4.31-48.16,10.77h-6.47c-7.82-3.92-20.86-6.5-35.62-6.5
				c-14.77,0-27.8,2.57-35.62,6.5h-32.74c-6.49-2.87-15.47-4.64-25.4-4.64c-9.47,0-18.07,1.62-24.48,4.25
				c-9.43-3.71-24.56-6.11-41.61-6.11c-17.64,0-33.21,2.57-42.55,6.5H85.24v3.24c-19.94,1.35-34.99,7.46-34.99,14.8
				c0,1.89,1.01,3.7,2.83,5.37c-1.83,1.67-2.83,3.47-2.83,5.37c0,7.33,15.05,13.44,34.99,14.8v3.76h795.25v-3.2
				c12.45-3.02,20.86-8.77,20.86-15.36c0-1.41-0.39-2.78-1.12-4.09C900.96,417.39,901.36,416.02,901.36,414.61z"/>
			<path class="st53" d="M909.67,419.47c0-5.39-8.85-10.09-21.96-12.57v-4.27h-9.69c-7.9-3.24-19.94-5.31-33.42-5.31
				c-13.48,0-25.51,2.07-33.42,5.31h-9.26c-7.48-3.24-18.88-5.31-31.64-5.31c-11.5,0-21.89,1.68-29.31,4.39
				c-7.42-2.68-18.52-4.39-30.93-4.39c-13.78,0-25.94,2.1-33.24,5.31h-14.17c-6.98-4.41-20.32-7.4-35.65-7.4
				c-13.39,0-25.28,2.28-32.72,5.8c-7.24-2.31-16.82-3.71-27.33-3.71c-12.76,0-24.15,2.07-31.64,5.31h-24.26
				c-10.71-3.28-25.47-5.31-41.78-5.31c-5.71,0-11.22,0.25-16.44,0.72c-5.22-0.46-10.73-0.72-16.44-0.72
				c-7.03,0-13.77,0.38-20.02,1.07c-10.44-2.84-24.15-4.57-39.17-4.57c-21.5,0-40.32,3.53-50.69,8.81h-6.81
				c-8.24-3.21-21.95-5.31-37.5-5.31c-15.54,0-29.26,2.1-37.5,5.31h-34.46c-6.83-2.34-16.29-3.8-26.73-3.8
				c-9.96,0-19.02,1.32-25.77,3.48c-9.93-3.03-25.85-5-43.8-5c-18.56,0-34.95,2.1-44.79,5.31H50.67v2.65
				c-20.99,1.11-36.83,6.11-36.83,12.11c0,1.55,1.06,3.03,2.98,4.39c-1.92,1.36-2.98,2.84-2.98,4.39c0,6,15.84,11,36.83,12.11v3.08
				h837.05v-2.62c13.1-2.47,21.96-7.17,21.96-12.57c0-1.15-0.42-2.27-1.18-3.35C909.26,421.74,909.67,420.62,909.67,419.47z"/>
			<path class="st52" d="M163.33,417.58c0,0-8.58,0-19.16,0s-19.16,0-19.16,0s8.58,0,19.16,0S163.33,417.58,163.33,417.58z"/>
			<ellipse class="st52" cx="223.76" cy="425.75" rx="37.44" ry="3.76"/>
			<ellipse class="st52" cx="341.06" cy="421.67" rx="18.68" ry="4.08"/>
			<ellipse class="st52" cx="465.83" cy="419.79" rx="20.84" ry="2.2"/>
			<ellipse class="st52" cx="515.49" cy="420.89" rx="17.34" ry="1.1"/>
			<ellipse class="st52" cx="590.86" cy="420.89" rx="28.83" ry="1.1"/>
			<ellipse class="st52" cx="674.42" cy="425.2" rx="37.81" ry="4.31"/>
		</g>
		<g>
			<path class="st52" d="M604.77,459.53c0-5.9-5.23-11.04-12.97-13.74v-4.67h-5.72c-4.67-3.55-11.78-5.81-19.74-5.81
				s-15.07,2.26-19.74,5.81h-5.47c-4.42-3.55-11.15-5.81-18.69-5.81c-6.8,0-12.93,1.84-17.31,4.8c-4.38-2.93-10.94-4.8-18.27-4.8
				c-8.14,0-15.32,2.3-19.64,5.81h-8.37c-4.12-4.83-12.01-8.09-21.06-8.09c-7.91,0-14.93,2.49-19.33,6.34
				c-4.27-2.52-9.93-4.06-16.14-4.06c-7.54,0-14.27,2.26-18.69,5.81h-14.33c-6.32-3.59-15.05-5.81-24.68-5.81
				c-3.37,0-6.63,0.28-9.71,0.78c-3.08-0.51-6.34-0.78-9.71-0.78c-4.15,0-8.13,0.41-11.83,1.17c-6.17-3.1-14.26-4.99-23.14-4.99
				c-12.7,0-23.82,3.86-29.95,9.63h-4.02c-4.87-3.51-12.97-5.81-22.15-5.81c-9.18,0-17.29,2.3-22.15,5.81h-20.36
				c-4.04-2.56-9.62-4.15-15.79-4.15c-5.89,0-11.24,1.45-15.22,3.8c-5.86-3.32-15.27-5.46-25.87-5.46c-10.97,0-20.65,2.3-26.46,5.81
				H97.32v2.9c-12.4,1.21-21.75,6.68-21.75,13.23c0,1.69,0.63,3.31,1.76,4.8c-1.14,1.49-1.76,3.11-1.76,4.8
				c0,6.56,9.36,12.02,21.75,13.23v3.37h494.47v-2.86c7.74-2.71,12.97-7.84,12.97-13.74c0-1.26-0.25-2.48-0.7-3.66
				C604.52,462.01,604.77,460.79,604.77,459.53z"/>
			<path class="st53" d="M609.94,463.87c0-4.83-5.51-9.03-13.65-11.24v-3.82h-6.03c-4.91-2.9-12.4-4.75-20.78-4.75
				s-15.86,1.85-20.78,4.75h-5.76c-4.65-2.9-11.74-4.75-19.67-4.75c-7.15,0-13.61,1.51-18.22,3.93c-4.61-2.4-11.51-3.93-19.23-3.93
				c-8.57,0-16.13,1.88-20.67,4.75h-8.81c-4.34-3.95-12.64-6.62-22.17-6.62c-8.33,0-15.72,2.04-20.34,5.19
				c-4.5-2.06-10.46-3.32-16.99-3.32c-7.94,0-15.02,1.85-19.67,4.75h-15.09c-6.66-2.94-15.84-4.75-25.98-4.75
				c-3.55,0-6.98,0.23-10.22,0.64c-3.25-0.42-6.67-0.64-10.22-0.64c-4.37,0-8.56,0.34-12.45,0.96c-6.49-2.54-15.01-4.08-24.36-4.08
				c-13.37,0-25.07,3.16-31.52,7.88h-4.24c-5.12-2.87-13.65-4.75-23.31-4.75c-9.66,0-18.19,1.88-23.31,4.75h-21.43
				c-4.25-2.1-10.13-3.4-16.62-3.4c-6.2,0-11.83,1.18-16.02,3.11c-6.17-2.71-16.07-4.47-27.23-4.47c-11.54,0-21.73,1.88-27.85,4.75
				H75.83v2.37c-13.05,0.99-22.9,5.46-22.9,10.83c0,1.38,0.66,2.71,1.86,3.93c-1.19,1.22-1.86,2.54-1.86,3.93
				c0,5.37,9.85,9.84,22.9,10.83v2.75h520.46v-2.34c8.15-2.21,13.65-6.42,13.65-11.24c0-1.03-0.26-2.03-0.73-2.99
				C609.68,465.91,609.94,464.91,609.94,463.87z"/>
			<path class="st52" d="M145.88,462.19c0,0-5.33,0-11.91,0s-11.91,0-11.91,0s5.33,0,11.91,0S145.88,462.19,145.88,462.19z"/>
			<ellipse class="st52" cx="183.45" cy="469.49" rx="23.28" ry="3.37"/>
			<ellipse class="st52" cx="256.39" cy="465.84" rx="11.61" ry="3.65"/>
			<ellipse class="st52" cx="333.96" cy="464.16" rx="12.96" ry="1.97"/>
			<ellipse class="st52" cx="364.84" cy="465.14" rx="10.78" ry="0.98"/>
			<ellipse class="st52" cx="411.71" cy="465.14" rx="17.92" ry="0.98"/>
			<ellipse class="st52" cx="463.66" cy="469" rx="23.51" ry="3.86"/>
		</g>
		<path class="st54" d="M302.71,469.28l0.8-2.92l3.16-8.61l-5.75,5.43l1.3-4.91l-4.15,3.65l-3.16-4.83l-0.26,4.37l-4.52-2.04
			l3.51,10c-1.17,0.34-1.89,0.8-1.89,1.31c0,1.04,2.99,1.88,6.68,1.88c3.69,0,6.68-0.84,6.68-1.88
			C305.11,470.15,304.18,469.63,302.71,469.28z"/>
		<path class="st54" d="M287.14,467.9l0.8-2.92l3.16-8.61l-5.75,5.43l1.3-4.91l-4.15,3.65l-3.16-4.83l-0.26,4.37l-4.52-2.04l3.51,10
			c-1.17,0.34-1.89,0.8-1.89,1.31c0,1.04,2.99,1.88,6.68,1.88s6.68-0.84,6.68-1.88C289.54,468.76,288.61,468.25,287.14,467.9z"/>
		<path class="st54" d="M321.17,469.28l0.8-2.92l3.16-8.61l-5.75,5.43l1.3-4.91l-4.15,3.65l-3.16-4.83l-0.26,4.37l-4.52-2.04
			l3.51,10c-1.17,0.34-1.89,0.8-1.89,1.31c0,1.04,2.99,1.88,6.68,1.88c3.69,0,6.68-0.84,6.68-1.88
			C323.57,470.15,322.63,469.63,321.17,469.28z"/>
		<path class="st54" d="M339.51,469.28l0.8-2.92l3.16-8.61l-5.75,5.43l1.3-4.91l-4.15,3.65l-3.16-4.83l-0.26,4.37l-4.52-2.04
			l3.51,10c-1.17,0.34-1.89,0.8-1.89,1.31c0,1.04,2.99,1.88,6.68,1.88c3.69,0,6.68-0.84,6.68-1.88
			C341.91,470.15,340.98,469.63,339.51,469.28z"/>
		<path class="st54" d="M420.97,471.25l0.8-2.92l3.16-8.61l-5.75,5.43l1.3-4.91l-4.15,3.65l-3.16-4.83l-0.26,4.37l-4.52-2.04
			l3.51,10c-1.17,0.34-1.89,0.8-1.89,1.31c0,1.04,2.99,1.88,6.68,1.88c3.69,0,6.68-0.84,6.68-1.88
			C423.37,472.12,422.44,471.6,420.97,471.25z"/>
		<path class="st54" d="M405.4,469.87l0.8-2.92l3.16-8.61l-5.75,5.43l1.3-4.91l-4.15,3.65l-3.16-4.83l-0.26,4.37l-4.52-2.04l3.51,10
			c-1.17,0.34-1.89,0.8-1.89,1.31c0,1.04,2.99,1.88,6.68,1.88c3.69,0,6.68-0.84,6.68-1.88C407.8,470.73,406.87,470.22,405.4,469.87z
			"/>
		<path class="st54" d="M439.43,471.25l0.8-2.92l3.16-8.61l-5.75,5.43l1.3-4.91l-4.15,3.65l-3.16-4.83l-0.26,4.37l-4.52-2.04
			l3.51,10c-1.17,0.34-1.89,0.8-1.89,1.31c0,1.04,2.99,1.88,6.68,1.88s6.68-0.84,6.68-1.88
			C441.83,472.12,440.89,471.6,439.43,471.25z"/>
		<path class="st54" d="M457.77,471.25l0.8-2.92l3.16-8.61l-5.75,5.43l1.3-4.91l-4.15,3.65l-3.16-4.83l-0.26,4.37l-4.52-2.04
			l3.51,10c-1.17,0.34-1.89,0.8-1.89,1.31c0,1.04,2.99,1.88,6.68,1.88c3.69,0,6.68-0.84,6.68-1.88
			C460.17,472.12,459.24,471.6,457.77,471.25z"/>
		<path class="st54" d="M200.43,426.8l0.8-2.92l3.16-8.61l-5.75,5.43l1.3-4.91l-4.15,3.65l-3.16-4.83l-0.26,4.37l-4.52-2.04l3.51,10
			c-1.17,0.34-1.89,0.8-1.89,1.31c0,1.04,2.99,1.88,6.68,1.88s6.68-0.84,6.68-1.88C202.83,427.66,201.9,427.14,200.43,426.8z"/>
		<path class="st54" d="M184.86,425.41l0.8-2.92l3.16-8.61l-5.75,5.43l1.3-4.91l-4.15,3.65l-3.16-4.83l-0.26,4.37l-4.52-2.04
			l3.51,10c-1.17,0.34-1.89,0.8-1.89,1.31c0,1.04,2.99,1.88,6.68,1.88s6.68-0.84,6.68-1.88
			C187.26,426.28,186.32,425.76,184.86,425.41z"/>
		<path class="st54" d="M218.88,426.8l0.8-2.92l3.16-8.61l-5.75,5.43l1.3-4.91l-4.15,3.65l-3.16-4.83l-0.26,4.37l-4.52-2.04l3.51,10
			c-1.17,0.34-1.89,0.8-1.89,1.31c0,1.04,2.99,1.88,6.68,1.88c3.69,0,6.68-0.84,6.68-1.88C221.29,427.66,220.35,427.14,218.88,426.8
			z"/>
		<path class="st54" d="M237.23,426.8l0.8-2.92l3.16-8.61l-5.75,5.43l1.3-4.91l-4.15,3.65l-3.16-4.83l-0.26,4.37l-4.52-2.04l3.51,10
			c-1.17,0.34-1.89,0.8-1.89,1.31c0,1.04,2.99,1.88,6.68,1.88c3.69,0,6.68-0.84,6.68-1.88C239.63,427.66,238.7,427.14,237.23,426.8z
			"/>
		<path class="st54" d="M394.78,427.49l0.8-2.92l3.16-8.61l-5.75,5.43l1.3-4.91l-4.15,3.65l-3.16-4.83l-0.26,4.37l-4.52-2.04
			l3.51,10c-1.17,0.34-1.89,0.8-1.89,1.31c0,1.04,2.99,1.88,6.68,1.88c3.69,0,6.68-0.84,6.68-1.88
			C397.19,428.35,396.25,427.83,394.78,427.49z"/>
		<path class="st54" d="M379.21,426.11l0.8-2.92l3.16-8.61l-5.75,5.43l1.3-4.91l-4.15,3.65l-3.16-4.83l-0.26,4.37l-4.52-2.04
			l3.51,10c-1.17,0.34-1.89,0.8-1.89,1.31c0,1.04,2.99,1.88,6.68,1.88c3.69,0,6.68-0.84,6.68-1.88
			C381.61,426.97,380.68,426.45,379.21,426.11z"/>
		<path class="st54" d="M820.8,428.16l0.8-2.92l3.16-8.61l-5.75,5.43l1.3-4.91l-4.15,3.65l-3.16-4.83l-0.26,4.37l-4.52-2.04l3.51,10
			c-1.17,0.34-1.89,0.8-1.89,1.31c0,1.04,2.99,1.88,6.68,1.88s6.68-0.84,6.68-1.88C823.2,429.03,822.26,428.51,820.8,428.16z"/>
		<path class="st54" d="M431.59,427.49l0.8-2.92l3.16-8.61l-5.75,5.43l1.3-4.91l-4.15,3.65l-3.16-4.83l-0.26,4.37l-4.52-2.04
			l3.51,10c-1.17,0.34-1.89,0.8-1.89,1.31c0,1.04,2.99,1.88,6.68,1.88s6.68-0.84,6.68-1.88
			C433.99,428.35,433.05,427.83,431.59,427.49z"/>
		<path class="st54" d="M863.62,435.92l0.8-2.92l3.16-8.61l-5.75,5.43l1.3-4.91l-4.15,3.65l-3.16-4.83l-0.26,4.37l-4.52-2.04
			l3.51,10c-1.17,0.34-1.89,0.8-1.89,1.31c0,1.04,2.99,1.88,6.68,1.88s6.68-0.84,6.68-1.88
			C866.02,436.78,865.08,436.26,863.62,435.92z"/>
		<path class="st54" d="M655.01,420.41l0.8-2.92l3.16-8.61l-5.75,5.43l1.3-4.91l-4.15,3.65l-3.16-4.83l-0.26,4.37l-4.52-2.04
			l3.51,10c-1.17,0.34-1.89,0.8-1.89,1.31c0,1.04,2.99,1.88,6.68,1.88s6.68-0.84,6.68-1.88
			C657.42,421.27,656.48,420.75,655.01,420.41z"/>
		<path class="st54" d="M886.62,430.19l0.8-2.92l3.16-8.61l-5.75,5.43l1.3-4.91l-4.15,3.65l-3.16-4.83l-0.26,4.37l-4.52-2.04
			l3.51,10c-1.17,0.34-1.89,0.8-1.89,1.31c0,1.04,2.99,1.88,6.68,1.88c3.69,0,6.68-0.84,6.68-1.88
			C889.02,431.05,888.09,430.53,886.62,430.19z"/>
		<path class="st54" d="M696.69,426.8l0.8-2.92l3.16-8.61l-5.75,5.43l1.3-4.91l-4.15,3.65l-3.16-4.83l-0.26,4.37l-4.52-2.04l3.51,10
			c-1.17,0.34-1.89,0.8-1.89,1.31c0,1.04,2.99,1.88,6.68,1.88s6.68-0.84,6.68-1.88C699.09,427.66,698.15,427.14,696.69,426.8z"/>
		<ellipse class="st54" cx="203.83" cy="430.12" rx="58.79" ry="1.9"/>
		<ellipse class="st54" cx="397.76" cy="430.81" rx="58.79" ry="1.9"/>
		<ellipse class="st54" cx="443.38" cy="474.57" rx="58.79" ry="1.9"/>
		<ellipse class="st54" cx="662.71" cy="429.42" rx="58.79" ry="1.9"/>
		<ellipse class="st54" cx="315.74" cy="472.47" rx="58.79" ry="1.9"/>
	</g>
	<path class="st55" d="M453.46,281.98c0-6.27,10.45-11.36,23.34-11.36c12.89,0,23.34,5.09,23.34,11.36c0,5.04-6.75,9.31-16.08,10.8
		c0.77,2.3,1.23,5.22,1.23,8.39c0,3.84-0.67,7.31-1.76,9.77c8.06,0.31,14.08,1.54,14.08,3.02c0,1.71-8.05,3.09-17.99,3.09
		c-9.93,0-17.99-1.38-17.99-3.09c0-1.48,6.03-2.71,14.08-3.02c-1.08-2.46-1.76-5.92-1.76-9.77c0-2.94,0.39-5.65,1.06-7.86
		C462.97,292.86,453.46,287.96,453.46,281.98z"/>
	<path class="st55" d="M551.08,284.52c0-7.17,13.71-12.99,30.61-12.99s30.61,5.82,30.61,12.99c0,5.76-8.85,10.65-21.09,12.35
		c1.01,2.63,1.61,5.97,1.61,9.59c0,4.4-0.89,8.36-2.3,11.17c10.57,0.35,18.47,1.76,18.47,3.45c0,1.95-10.56,3.53-23.59,3.53
		c-13.03,0-23.59-1.58-23.59-3.53c0-1.69,7.91-3.1,18.47-3.45c-1.42-2.81-2.3-6.77-2.3-11.17c0-3.36,0.52-6.46,1.39-8.99
		C563.55,296.96,551.08,291.36,551.08,284.52z"/>
	<path class="st55" d="M778.93,281.57c0-6.49-6.84-11.75-15.28-11.75s-15.28,5.26-15.28,11.75c0,5.21,4.42,9.63,10.53,11.17
		c-0.5,2.38-0.8,5.4-0.8,8.68c0,3.98,0.44,7.56,1.15,10.11c-5.27,0.32-9.22,1.59-9.22,3.12c0,1.77,5.27,3.2,11.77,3.2
		s11.77-1.43,11.77-3.2c0-1.53-3.95-2.8-9.22-3.12c0.71-2.54,1.15-6.13,1.15-10.11c0-3.04-0.26-5.84-0.69-8.14
		C772.7,292.83,778.93,287.76,778.93,281.57z"/>
	<g>
		<path class="st56" d="M688.41,44.69l0.36,2.62c0.38,2.73,4.38,3.22,5.5,0.68l1.07-2.44c1.28-2.91,5.94-1.74,5.5,1.38l-0.37,2.61
			c-0.39,2.73,3.34,4.17,5.12,1.98l1.71-2.1c2.04-2.5,6.22-0.24,4.93,2.66l-1.08,2.43c-1.13,2.54,2.07,4.84,4.4,3.16l2.23-1.61
			c2.66-1.92,6.07,1.27,4.02,3.76l-1.72,2.09c-1.8,2.18,0.66,5.17,3.38,4.11l2.6-1.01c3.1-1.21,5.52,2.7,2.84,4.61l-2.24,1.6
			c-2.34,1.67-0.79,5.16,2.12,4.79l2.79-0.35c3.33-0.42,4.58,3.94,1.47,5.14l-2.61,1c-2.72,1.05-2.19,4.79,0.72,5.14l2.8,0.34
			c3.33,0.4,3.33,4.92,0,5.32l-2.8,0.34c-2.92,0.35-3.44,4.09-0.72,5.14l2.61,1c3.11,1.2,1.86,5.56-1.47,5.14l-2.79-0.35
			c-2.92-0.37-4.46,3.12-2.12,4.79l2.24,1.6c2.67,1.91,0.26,5.82-2.84,4.61l-2.6-1.01c-2.71-1.06-5.17,1.94-3.38,4.11l1.72,2.09
			c2.05,2.49-1.36,5.68-4.02,3.76l-2.23-1.61c-2.33-1.68-5.53,0.62-4.4,3.16l1.08,2.43c1.29,2.9-2.89,5.16-4.93,2.66l-1.71-2.1
			c-1.79-2.19-5.51-0.74-5.12,1.98l0.37,2.61c0.45,3.12-4.22,4.29-5.5,1.38l-1.07-2.44c-1.12-2.54-5.12-2.05-5.5,0.68l-0.36,2.62
			c-0.43,3.12-5.26,3.12-5.69,0l-0.36-2.62c-0.38-2.73-4.38-3.22-5.5-0.68l-1.07,2.44c-1.28,2.91-5.94,1.74-5.5-1.38l0.37-2.61
			c0.39-2.73-3.34-4.17-5.12-1.98l-1.71,2.1c-2.04,2.5-6.22,0.24-4.93-2.66l1.08-2.43c1.13-2.54-2.07-4.84-4.4-3.16l-2.23,1.61
			c-2.66,1.92-6.07-1.27-4.02-3.76l1.72-2.09c1.8-2.18-0.66-5.17-3.38-4.11l-2.6,1.01c-3.1,1.21-5.52-2.7-2.84-4.61l2.24-1.6
			c2.34-1.67,0.79-5.16-2.12-4.79l-2.79,0.35c-3.33,0.42-4.58-3.94-1.47-5.14l2.61-1c2.72-1.05,2.19-4.79-0.72-5.14l-2.8-0.34
			c-3.33-0.4-3.33-4.92,0-5.32l2.8-0.34c2.92-0.35,3.44-4.09,0.72-5.14l-2.61-1c-3.11-1.2-1.86-5.56,1.47-5.14l2.79,0.35
			c2.92,0.37,4.46-3.12,2.12-4.79l-2.24-1.6c-2.67-1.91-0.26-5.82,2.84-4.61l2.6,1.01c2.71,1.06,5.17-1.94,3.38-4.11l-1.72-2.09
			c-2.05-2.49,1.36-5.68,4.02-3.76l2.23,1.61c2.33,1.68,5.53-0.62,4.4-3.16l-1.08-2.43c-1.29-2.9,2.89-5.16,4.93-2.66l1.71,2.1
			c1.79,2.19,5.51,0.74,5.12-1.98l-0.37-2.61c-0.45-3.12,4.22-4.29,5.5-1.38l1.07,2.44c1.12,2.54,5.12,2.05,5.5-0.68l0.36-2.62
			C683.16,41.57,687.98,41.57,688.41,44.69z"/>
		
			<radialGradient id="SVGID_47_" cx="690.5404" cy="97.3591" r="31.4423" gradientTransform="matrix(1.0852 0 0 1.1802 -62.7219 -24.7882)" gradientUnits="userSpaceOnUse">
			<stop  offset="0.877" style="stop-color:#FFFC6F"/>
			<stop  offset="1" style="stop-color:#FFFEE2"/>
		</radialGradient>
		<ellipse class="st57" cx="686.63" cy="90.11" rx="36.58" ry="34.22"/>
	</g>
	<path class="st55" d="M392.63,278.56c0-7.71-10.2-13.96-22.78-13.96c-12.58,0-22.78,6.25-22.78,13.96c0,6.2,6.58,11.45,15.7,13.27
		c-0.75,2.83-1.2,6.42-1.2,10.32c0,4.73,0.66,8.99,1.71,12.01c-7.86,0.38-13.75,1.89-13.75,3.71c0,2.1,7.86,3.8,17.56,3.8
		c9.7,0,17.56-1.7,17.56-3.8c0-1.81-5.88-3.33-13.75-3.71c1.06-3.02,1.71-7.28,1.71-12.01c0-3.61-0.38-6.94-1.04-9.67
		C383.35,291.94,392.63,285.92,392.63,278.56z"/>
</g>
</svg>
