<?xml version="1.0" encoding="utf-8"?>
<!-- Generator: Adobe Illustrator 24.1.2, SVG Export Plug-In . SVG Version: 6.00 Build 0)  -->
<svg version="1.1" id="Layer_1" xmlns="http://www.w3.org/2000/svg" xmlns:xlink="http://www.w3.org/1999/xlink" x="0px" y="0px"
	 viewBox="0 0 960 560" style="enable-background:new 0 0 960 560;" xml:space="preserve">
<style type="text/css">
	.st0{fill:#A4E9FF;stroke:#0A0808;stroke-width:2;stroke-miterlimit:37;}
	.st1{fill:#93CCFA;stroke:#4686D3;stroke-width:0.25;stroke-linejoin:bevel;stroke-miterlimit:37;}
	.st2{fill:#DD7B31;stroke:#0A0808;stroke-width:2;stroke-miterlimit:37;}
	.st3{fill:#E58B48;stroke:#0A0808;stroke-width:2;stroke-miterlimit:37;}
	.st4{fill:#93CCFA;stroke:#000000;stroke-miterlimit:10;}
	.st5{fill:#F9FEFF;stroke:#CECECE;stroke-miterlimit:37;}
	.st6{fill:none;stroke:#040607;stroke-width:2;stroke-miterlimit:37;}
	.st7{fill:#F3FCFF;stroke:#0A0808;stroke-miterlimit:37;}
	.st8{fill:#FF7728;stroke:#0A0808;stroke-width:2;stroke-miterlimit:37;}
	.st9{fill:#0A0808;stroke:#A4E9FF;stroke-width:2;stroke-miterlimit:37;}
	.st10{fill:none;stroke:#0A0808;stroke-miterlimit:37;}
	.st11{fill:#A4E9FF;stroke:#0A0808;stroke-miterlimit:37;}
	.st12{fill:#A4E9FF;stroke:#0A0808;stroke-width:0.25;stroke-miterlimit:37;}
	.st13{fill:#191716;stroke:#1DD000;stroke-width:0.25;stroke-miterlimit:37;}
	.st14{fill:#FF9205;stroke:#E4EAE4;stroke-width:0.25;stroke-miterlimit:37;}
	.st15{fill:#FFF1C6;}
</style>
<g>
	<path class="st0" d="M964.31,562.55L6.36,567.07L3.72,8.89c0,0,79.28-0.37,192.22-0.91c5.38-0.03,10.83-0.05,16.36-0.08
		c5.53-0.03,11.12-0.05,16.79-0.08c283.19-1.34,732.6-3.46,732.6-3.46L964.31,562.55z"/>
	<path class="st1" d="M177.05,369.04c0.03-0.68,0.08-1.33,0.16-2.16c-0.43,1.01-0.46,1.97-0.39,2.96c0.03,0.49,0.08,0.99,0.11,1.48
		c0.03,0.04,0.05,0.08,0.08,0.11C177,370.43,177.01,369.72,177.05,369.04z"/>
	<path class="st1" d="M166.59,345.38c0.03-0.28,0.04-0.55,0.03-0.83C166.59,344.8,166.58,345.06,166.59,345.38z"/>
	<path class="st1" d="M410.12,296.21c0.19,0.41,0.47,0.81,0.88,1.22C410.69,297.02,410.41,296.62,410.12,296.21z"/>
	<path class="st1" d="M248.27,268.39c-0.07,0.69-0.16,1.37-0.27,2.04C248.24,269.7,248.31,269.02,248.27,268.39z"/>
	<path class="st1" d="M168.96,304.19c-0.29,0.42-0.6,0.83-0.96,1.24C168.69,304.97,168.94,304.57,168.96,304.19z"/>
	<path class="st1" d="M168.01,302.7c-0.01,0.24-0.01,0.49-0.01,0.73c0.14-0.14,0.25-0.27,0.36-0.39
		C168.25,302.93,168.13,302.82,168.01,302.7z"/>
	<path class="st1" d="M167,301.5c0-0.36,0-0.72,0-1.07C166.8,300.82,166.84,301.17,167,301.5z"/>
	<path class="st2" d="M465.12,247.41c-2.07-2.19-7.38-1.17-12.26-0.65c-0.61,0.06-1.21,0.12-1.8,0.16
		c-8.57-0.11-16.57-4.11-25.57-0.11c-3,1-7-2-10-2c-8.99-1-14.99,4.99-23.98,1.01c0,0,0-0.01,0-0.01c0.98-0.01,0.98-1,0.98-1
		c-45,1-89-2-134,1c4-1,7-2,11-2c-20,1-40-2-60,0c1,0,1,0,2,0c-7,1-14,1-21,1h1c-13-1-26,2-39-1c1,0,1-1,1-1c-7,0-14,2-21,0
		c1,0,2,2,3,1c-43,2-87,0-130.11,0.39c-0.45,0-0.83,0-1.13,0c-0.61,0-0.93,0-0.93,0s0,160.99,0,256.28c0,0.32,0.07,0.64,0.38,0.96
		c0.23,0.32,0.09,0.64-0.24,0.95c-0.14,0.32-0.14,0.63-0.14,0.95c0,2.21,0,4.38,0,6.5c0,0.59,0,1.17,0,1.75
		c0.01,1.1,0.02,2.19,0.04,3.29c0.01,0.55,0.02,1.09,0.03,1.64c0.5,2.43,0.5,4.43,0.18,6.56c0.01,0.54,0.02,1.09,0.04,1.63
		c0.05,1.64,0.09,3.27,0.13,4.91c0.01,0.55,0.1,1.06,0.1,1.61c2.05,4.71,1.05,11.71-2.95,15.71c3,0,5,2,8,1c-1,1-3,1-3.65,1.18
		c-0.66,0.23-1.09,0.42-1.82,0.64c-0.03,0.41-0.06,0.83-0.1,1.24c0,0,0,0,0,0c0,0.35-0.01,0.69-0.01,1.04s0,0.68,0,1.02
		c-0.02,0.43-0.02,0.84-0.01,1.24c0,0.4-0.44,0.91-0.65,1.36c-0.76,5.28,1.24,11.28-5.76,9.28c4,3,10-1,14,2c-3,0-6,0-7.58,1.56
		c0,0.32,0,0.48,0,0.48s0.04-0.2,0.1-0.58c0.95-0.16,1.29-0.32,1.73-0.51c2.74,0.05,4.74,0.05,6.74-1.95c-5,0-11,0-16-1
		c13,3,7-14,17-18c-3,0-5,0-8-1c3-2,5-5,6-8c0,1,2,1,1,2c-1-4,2-7,3-11c1-1,2,1,3,2c4-9-5-19,1-28c0,1,1,1,1,1c1-6,4-8,0-13
		c-1-1-1,0-1,1c1-2,0-5,0-7v1c-1-2,1-4,0-6c4-1,6,2,7,5c0-2-2-2-1-4v1c1-5-1-17,7-16c1,0,1,3,3,4h-1c1,1-3,4,1,3c5-3,0-3,0-8
		c3,1,3-3,6-2c-2,0-3-2-4.82-1.64c-0.54-0.78-0.48-1.1-0.37-1.42c0,0,0,0,0-0.01c2.19-2.93,4.19-4.93,6.85-4.8
		c0.55-0.01,1.09-0.21,1.61-0.44s1-0.49,1.34-0.69c2.39-3.01,3.39,3.99,5.39,0.99c-1,2-3,3-4,4c1,0,3,0,4,0c-1,0-1,0-2,0
		c0-2,2-3,3-4c-1,0-2,0-3,0c4-2,1-8,4-8c3-1,1,2,0,4c1-1,4,2,3,0c0-5,7-5,2.3-8.18c-0.46-0.35-0.44-0.59-0.42-0.83
		c1.77-1.66,3.45-1.94,4.42-0.53c0.19,0.28,0.36,0.63,0.49,1.05c0.2,1.48,0.2,2.48,0.2,3.48c1,0,2,0,3,0c-1,0-2,2-3,2c2,0,3-3,6-2
		c-1-2-3-1-4-1c4-1,2-5,3.78-7.1c0.32-0.34,0.72-0.65,1.22-0.9c0.5,0,0.31,0.91,0.49,1.49c0.51,0.51,1.51,0.51,2.19-0.3
		c0.16-0.25,0.38-0.62,0.61-1c0.52-2.06-0.8-4.69,0.7-6.19h-1c1,0,3,0,3,0c0.19,0.5,0.36,1,0.51,1.51c0.15,0.51,0.29,1.02,0.3,1.65
		c0.01,0.63,0.34,0.9,0.44,1.41c0.05,0.26,0.1,0.51,0.09,0.81c-0.01,0.3-0.08,0.65-0.5,1.46c1.16,4.15-0.84,10.15,5.16,9.15
		c1,0-2,2-1,3c4,1,7,0,11,0c-4,0-6,2-10,2c1,1-1,2,0,3c0-1,0-3,0-3c3-1,7-1,10-2c-3,0-6,0-9,0c0-1,0-2,1-3c-3,1-4-1-5-3c2,1,2-3,4-1
		c-4,1,1-6-4-4c4-2,0-5-0.02-7.7c0-0.42,0-0.79,0.04-1.16c0.05-0.37,0.14-0.75,0.31-1.12c0.32-0.62,0.32-1.11,0.33-1.57
		c0.04-1.84,0.21-3.12,0.57-3.51c0.78-0.76,1.48-1.33,2.05-1.79c1.14-0.92,1.77-1.44,1.77-1.44s0.3-0.11,0.87-0.32
		c0.57-0.21,1.39-0.51,2.46-0.94c2.37-0.49,2.96-3.98,4.38-4.86c0.47-0.29,1.03-0.29,1.78,0.21c0.35,0.47,0.74,1.59,1.13,3.16
		c0.1,0.39,0.2,0.82,0.3,1.33c0.15,0.96,0.31,1.92,0.49,2.89c0.09,0.48,0.01,1.06,0.19,1.5c-1.65,8.31,3.35,14.31,11.35,12.31
		c-7,1-9,1-8,8c0-1,0-2,1-2c2,3,1,5,5,4c-2,1-5,3-4.73,5.53c0.07,0.41,0.19,0.79,0.4,1.12c0.41,0.66,1.13,1.14,2.33,1.34
		c-1,0-3,0-3-1c0.17-0.33,0.33-0.69,0.5-1.07c0.16-0.38,0.42-0.8,0.59-1.22c-0.09-3.71,3.91-3.71,5.91-5.71c-6,4-5-2-6-5
		c-1-4,5-2,7-4c-8,3-11-6-9.47-12.5c0.07-0.3,0.19-0.61,0.46-0.98c0.07-1.29,0.2-2.58,0.39-3.88c0.06-0.48,0.14-0.96,0.24-1.46
		c0.21-0.77,0.46-1.55,0.84-2.34c0,0,0,0,0,0c1.72,0.81,3.39,0.94,4.48,2.12c0.22,0.24,0.41,0.53,0.58,0.85
		c0.11-0.43,0.25-0.89,0.41-1.33c0.16-0.44,0.34-0.88,0.55-1.29c0.51-1.19,0.51-1.19,1.48-2.45c0.29-0.38,0.59-0.74,0.92-1.08
		s0.67-0.66,1.02-0.96c0.27-0.22,0.55-0.43,0.83-0.62c0.26-0.08,1.26-0.08,0.89-0.51c0.37,0.4,0.71,0.81,1.05,1.21
		c0.29,0.35,0.57,0.7,0.84,1.05c0.27,0.35,0.52,0.7,0.59,1.08c-0.1,2.09,2.9,4.09,2.9,6.09c0-2,1-2,2-3
		c-0.38,1.13-0.89,2.11-1.39,3.06c-0.17,0.32-0.33,0.63-0.52,0.95c-1.09,0.99-1.09,0.99-2.09,1.99h1c-1,2-3,2-5,2h1c-1,0-3,0-4,0
		c4-1,4,1,6,4c0,1-3,3-2,5c1,0,2,0,3,0c-1,1-3,2-4,3c1,1,3-1,2,1c-1,0-2,0-3,1c2,0,3-1,4-2c-1,1-2,2-4,3c0,1,1,2,2,2
		c-1,2-4,1-5,3.04c-0.2,0.49-0.39,0.98-0.56,1.47s-0.32,0.99,0.82,0.97c-0.98,0.07-0.7-0.37-0.42-0.8c0.42-0.65,0.83-1.29,1.24-1.92
		c0.24-0.18,0.41-0.33,0.79-0.5c2.13-1.26,4.13-1.26,5.13-2.26c-2,1-1-3-3-2c2,0,3-1,4-3c-2,0-2,1-3,2c3-4,6-9,4-14c0,0-2,0-3,0
		c4,0,5-2,7.95-4.44c0.09-0.4,0.14-0.8,0.17-1.21c0.12-1.65-0.13-3.45-0.15-5.56c0.13-0.36,0.11-0.71,0.1-1.06
		c-0.01-0.26-0.02-0.52-0.1-0.78c1.03-2.96,0.03-5.96,2.03-8.96c4,2,0,6,1.74,9.31c0.08,0.47,0.18,0.93,0.31,1.38
		c0.59,2.07,0.81,4.41,0.9,6.6c0.01,0.22-0.11,0.45-0.34,0.69c-0.61,0.02-2.61,1.02-1.61,2.02c0,0,1,0,2,0c-2,0-3,3-5,2c2,3,5,4,9,3
		c0,2-1,2-2,3h1c-2,1-3,4-5,6c2,0,4,0,6-1c-1,2-4,2-3.11,5.34c-0.03,0.28-0.06,0.57-0.07,0.88c-0.01,0.3,0,0.62,0.07,0.94
		c-0.34,0.83-0.38,1.33-0.41,1.84c0,0.28,0.02,0.52,0.06,0.74c0.07,0.46,0.16,0.91,0.27,1.35c-0.13,0.29-0.13,0.55-0.12,0.81
		c0.1,2.55,0.19,4.21,0.26,4.35c0.07,0.15,0.12-1.53,0.15-4.2c0-0.27,0.01-0.54,0.12-0.83c-0.01-0.56-0.02-1.11-0.03-1.65
		c-0.01-0.23-0.02-0.46-0.03-0.68c0.03-0.5,0.04-0.89,0.13-1.36c-0.06-0.43-0.1-0.86-0.14-1.28c-0.04-0.42-0.07-0.83-0.07-1.26
		c-0.08-1.99-0.08-3.99,1.92-4.99c-2,0-4,2-6,1c5-2,5-8,10-9c-2-1-3,2-5,1l1-1c-2,1-3-1-5-1c2-3,2-2,2.85-5.79
		c0.64-0.44,0.66-0.85,0.68-1.26c0.12-2.05,0.27-4.12,0.45-6.23c0.02-0.34,0.05-0.69,0.07-1.03c0.02-0.26-0.12-0.53-0.32-0.8
		c0.27-4.89,3.27-8.89,3.87-13.69c0.27-0.42,0.57-0.83,0.89-1.22s0.67-0.78,1.05-1.16c0.13,0.81,0.23,1.62,0.31,2.43
		c0.12,0.3,0.24,0.6,0.46,0.93c2.69,4.83,1.69,11.83-4.31,11.83c2-1,4,1,6.23,1.46c0.14,0.34,0.3,0.73,0.43,1.28
		c0.13,0.54,0.44,0.87,0.72,1.4c0.41,0.21,0.59,0.5,0.65,0.82c0.07,0.32,0.03,0.68-0.01,1.04c0.97,4.99,1.97,6.99,6.97,6.99
		c-3-2-4,2-6,3c3,5,8,6,14,7c-2,2-4,1-6.32,1.43c-0.67,0.64-0.46,1.09-0.27,1.48c0.56,1.17,0.93,1.82,1.01,1.69
		c0.17-0.27,0.25-0.71,0.26-1.29c0-0.29-0.01-0.62-0.04-0.98c1.38-2.33,5.38-0.33,6.38-2.33c-5,0-7-3-11-5c2-2,1-5,4-6c-1,0-2,0-3,0
		c-3-1,3-3,0-4l-1,1c1-3-1-5-1.68-7.28c-0.07-0.3-0.2-0.52-0.32-0.72c-2-1-5-1-7-1c0.67,0,1.33-0.11,1.99-0.25
		c2.01-0.75,5.01-0.75,3.83-3.35c-0.31-0.39-0.53-0.84-0.68-1.31c-0.75-2.31,0.36-5.09,2.86-5.09c0-2-2-2-3-2c2,1,4,1,6,2
		c-3.75-1.5-5.25,0.94-5.25,3.74c0,0.47,0.04,0.95,0.12,1.42c1.13,3.84,0.13,3.84-2.85,4.35c-0.33,0.07-0.67,0.15-1.01,0.23
		c-0.68,0.15-1.34,0.26-2.01,0.26c2-0.4,3.68,0,4.91,0.94c0.31,0.23,0.59,0.5,0.84,0.8c1.25,3.26,1.25,7.26,1.25,10.26c1-2,2,3,3,0
		c0,2-5,1-4,5l1-1c-2,6,2,6,6,7c-2-1-4,0-5,2.49c0,0.49,0,0.98,0,1.45c0.04,0.33,0.05,0.64,0.07,0.93c0.16,3.51,0.16,4.21-0.07,0.39
		c-0.02-0.32-0.04-0.67-0.06-1.05c0.03-0.61,0.04-1.16,0.05-1.69c0.01-2.53,3.01-2.53,5.01-2.53c-3-1-7-2-6-7c-1,1-2,1-3,1
		c7-4,3-7,2.12-15.21c-0.22-0.31-0.48-0.58-0.78-0.83c-1.18-0.96-2.94-1.36-5.34-0.96c3,0,5,0,8,1c-0.67-0.67-1.34-0.88-2-0.92
		c-0.67-0.04-1.33,0.11-2,0.18c-0.67,0.07-1.33,0.07-2-0.26c0.33,0.17,0.67,0.22,1,0.2c0.33-0.02,0.66-0.11,0.99-0.24
		c3.01-0.97,6.01-0.97,5.11-5.19c-0.18-0.46-0.25-0.93-0.22-1.39c0.13-2.28,2.63-4.22,5.13-3.39c-1-1-2-2-4-2c0,0,1,0,0.51-0.38
		c0.48-0.13,0.9-0.19,1.24-0.18s0.62,0.07,0.84,0.19c1.41,1.37,3.41,1.37,4.41,3.37c-1-1-2,2-3.42,1.01
		c-0.01,0.29,0.13,0.63,0.29,1.01c0.12,0.29,0.25,0.61,0.39,0.95c0.14,0.34,0.14,0.75-0.29,1.52c-0.96,1.51,1.04,2.51,2.04,3.51
		c-3,0-5,2-8,1c4,2,14-1,10,7c1,0,3,0,4,0c0,2-1,4-0.67,5.6c-0.06,0.54-0.12,0.96-0.18,1.46c-0.08,0.71-0.15,1.38-0.15,1.94
		c0.5-0.17,0.97-0.22,1.41-0.19c0.44,0.04,0.85,0.17,1.22,0.37c2.37-0.19,1.37,0.81,1.74,1.96c0.2,0.43,0.36,0.89,0.47,1.36
		c0.11,0.48,0.17,0.96,0.19,1.44c0.15-0.64,0.23-1.21,0.23-1.72s-0.06-0.95-0.09-1.57c-0.03-0.61-0.12-1.18-0.49-1.19
		s-0.74-0.14-1.09-0.36c-0.7-0.44-1.59-0.78-2.59-1.11c0.25-0.17,0.46-0.34,0.63-0.52c0.18-0.25,0.33-0.51,0.45-0.84
		c0.25-0.66,0.42-1.66,0.38-1.6s-0.12-0.13-0.21-0.54c-0.04-0.21-0.09-0.47-0.14-0.79c-0.05-0.32-0.1-0.71-0.15-1.17
		c0.04-0.53,0.04-1.53,0.04-2.53c-1,0-2,0-3,0c5-1-1-5,2-6c-3-1-7,1-10,0c3,0,5-1,8-2c-1-1-4-2-1.77-4.92
		c-0.15-0.47-0.3-0.92-0.45-1.37c-0.1-0.3,0.15-0.61,1.13-0.95c1.09,1.23,2.09-1.77,3.09-0.77c-3,1-5-1-5.7-3
		c-0.13-0.44-0.25-0.85-0.35-1.23c-0.31-1.13-0.48-1.94-0.46-2.33c0.02-0.63,0.03-1.25,0.04-1.88c0.02-0.75,0.02-2.75,0.02-3.75
		c0,1,1,1,0.58,2.25c0.14,1.92,0.34,3.86,0.7,5.79c0.09,0.48,0.19,0.96,0.3,1.44c1.88,1.71,3.88,2.71,6.88,2.71c-2,0-4,1-5.55,1.52
		c0.19,0.46,0.39,0.92,0.61,1.37c-0.06,1.11-1.06,2.11-1.06,2.11c0,1,2,1,3,1c-1,2-3,3-4,4c9-4,7,10,13,13c0,0-1-1-0.81-1.41
		c-0.28-0.33-0.54-0.77-0.78-1.22c-0.25-0.45-0.48-1.03-0.71-1.52c-0.69-0.85-1.69-1.85-1.27-2.8c-0.1-0.06-0.19-0.29-0.27-0.56
		c-0.07-0.27-0.12-0.58-0.15-1.07c-1.01-4.42-4.01-7.42-3.27-11.45c-0.15-0.29-0.3-0.58-0.45-0.86s-0.3-0.57,0.18-0.89
		c1.53-0.22,3.53,0.78,4.53-1.22c-2,1-4-1-6-1c3-1,5,1,8,1c-1,2-3,0-4,1c-0.19,0.5-0.34,0.99-0.45,1.48s-0.22,0.97-0.59,1.56
		c0.04,5.96,4.04,10.96,4.98,17.34c0.07,0.34,0.06,1.12,0.06,1.62c-0.11-0.29-0.2-0.71-0.29-1.07c-1.71-5.93-4.71-11.93-5.87-18.12
		c0.15-0.34,0.21-0.65,0.27-0.96c-0.04-0.28-0.08-0.56-0.11-0.85c-1-2,3,0,5-2c-2,0-5,1-6.79-2.29c-0.14-0.34-0.23-0.66-0.33-0.99
		c-2.07-7.11-3.68-13.47-3.86-15.98c-0.11-1.36-0.24-2.68-0.49-3.93c-0.5,0-1,0.25-1.5,0.63c-0.39,0.29-0.76,0.68-0.87,1.5
		c0,0.27,0,0.55-0.03,0.83c-0.02-0.32,0-0.59,0.03-0.83c-0.04-3.56-2.68-6.42-3.44-10.21c-0.26-0.98-0.41-1.8-0.55-2.61
		c-0.94-5.74-1.18-11.53-0.94-17.29c0.04-0.92,0.09-1.83,0.16-2.72c-0.86-4.28,3.14-7.28,4.14-11.28c0,0.5,0,1,0.13,1.5
		s0.38,1,0.88,1.51c0-0.65,0-1.29,0-1.94c-0.16-0.33-0.2-0.68,0-1.07c0,0,1,0,2,0c-0.3,0.3-0.51,0.6-0.65,0.91
		c0.54,0.36,0.79,0.78,0.01,1.71c0.35,0.37,0.62,0.74,0.6,1.14c2.97-4.32,2.41-9.16,1.98-14.12c-0.04-0.5-0.08-0.99-0.12-1.49
		c-0.04-0.5-0.07-1-0.09-1.5c-0.13-3,0.05-6.01,1.33-8.96c0,0,0-0.01,0.01-0.01c0.54-0.63,1.18-1.17,1.93-1.67c3-2-2,6,1,6
		c1.5,0,0.75-3.38,1.97-5.06c0.46-0.58,1.14-0.97,2.25-1c0.01,0,0.02,0,0.02,0.01c1.76,1.06,2.76,2.06,3.76,3.06c1-4,0-8,2-12
		c0,0,0,0,0,0c3,5,2,10,2,15c2-1,3-3,3.38-5.25c0.07-0.45,0.12-0.91,0.15-1.37c-0.07-1.18-0.07-2.18-0.07-2.78
		c-0.05-0.46-0.11-0.9-0.19-1.34c-0.08-0.43-0.17-0.85-0.27-1.25c0.33,1,0.89,1.67,1.55,2.19c0.33,0.26,0.7,0.48,1.1,0.68
		c1.81,0.32,1.81,1.32,2.81,2.32c-1-1,2-2,0.51-3.22c-0.01-0.32-0.02-0.61-0.04-0.82c0.02-0.7,0.07-1.4,0.2-2.02
		s0.32-1.18,0.62-1.61c0.3-0.43,0.69-0.72,1.23-0.83c0.56-0.09,1.35,0.06,2.11,0.35c0,0,0,0,0,0c0.42,0.21,0.83,0.54,1.16,0.93
		c0.34,0.4,0.59,1.68,0.78,3.58c0.05,0.48,0.15,0.99,0.43,1.42c-1.98,0.22-0.98,1.22-1.19,1.78c0.72,0.39,0.91,0.72,1.04,1.04
		c0.07,1.51,0.11,3.17,0.15,4.95c0.01,0.44,0.02,0.89,0.02,1.34c-1,2.11,3,2.11,3,4.11c0,1-2,1-3,1c1,0,1,0,2,0c-2,0-5-1-6,2
		c1,0,3,0,4,0c-1,6,2,17-5,17c5-3,3,3,5,4v-1c2,2-3,6,2,8c-5-2,0-6-2-9c0,1,0,1,0,2c-1-3-3-6,0-8v1c-2-5,5-14-3-14
		c3-2,6-2,7.54-3.94c0.35-0.14,0.73-0.24,1.15-0.3c-0.44-0.08-0.81-0.18-2.04-0.09c-0.41,0.01-0.92,0.04-1.56,0.08
		c-0.08-0.75-0.08-1.75,0.42-2.8c0.07-0.48,0.14-0.95,0.21-1.42c0.22-1.41,0.45-2.8,0.69-4.14c0.06-0.34,0.12-0.67,0.19-1
		c-0.59-0.38-3.59-0.38-2.59-2.38c0-1,3,2,3.27-0.54c-0.02-0.29,0.04-0.59,0.11-0.9c1.6-7.02,3.64-12.12,6.15-12.75
		c0.88-0.44,1.85,2.85,2.9,8.16c0.06,0.3,0.12,0.6,0.19,0.9c-0.63,1.13,2.37,3.13,0.69,3.96c0.06,0.35,0.12,0.71,0.18,1.07
		c-2.5,0.1-5.5,2.1-8.5,1.1c3,0,6,2,8.6,1.06c0.31,0.42,0.4,0.79,0.47,1.17c0.07,0.38,0.13,0.76,0.18,1.16s0.11,0.8,0.11,1.2
		c-0.36,4.41,3.64,2.41,6.05,4.03c-0.77,0.24-1.41,0.45-5.19,1.05c-0.01,1.99,1.14,1.65,2.31,1.12c0.41-0.18,0.82-0.39,1.39-0.54
		c0.58-0.15,1.11-0.24,1.06-0.13s0.02,0.37,0.02,0.87c0,2-2.22,1.78-4,2c-0.44,0.06-0.86,0.14-1.24,0.29
		c2.24,0.71-4.76,0.71-0.16,1.63c0.43,0.17,0.95,0.27,1.51,0.47c0.06,0.4,0.12,0.81,0.19,1.21c0.13,0.84,0.26,1.69,0.39,2.53
		c0.04,0.29,0.09,0.59,0.13,0.9c0.09,0.98,0.14,1.97,0.16,2.96c0.01,0.33,0.01,0.66,0.02,1c0.01,0,0.01,1-0.13,1.01
		c0.24,0.5,0.45,0.97,0.62,1.45c1.07,3.32,1.78,6.08,2.05,9.08c0.04,0.43,0.07,0.86,0.09,1.3c0.39,2.15-0.61,4.15,1.19,5.04
		c0.14,0.5,0.3,0.99,0.42,1.46c0.08,0.31,0.16,0.62,0.25,0.91c0.08,0.3,0.16,0.58,0.25,0.86c0.28,0.87,0.28,1.87,1,2.89
		c0.17,0.4,0.34,0.76,0.51,1.08c0.34,0.63,0.68,1.07,1.02,1.31c0.14,0.1-0.23-3.12-0.86-8.02c-0.21-0.27-0.43-0.55-0.96-0.83
		c-0.35-0.14-0.68-0.25-0.99-0.32c-0.31-0.08-0.59-0.13-0.85-0.18c0.42-0.06-5.58,4.94-0.09-0.71c0.43-0.25,0.79-0.52,1.1-0.82
		c4.32-4.21-2.42-13.38-1.26-19.35c-0.05-0.64-0.12-1.13-0.19-1.63c-0.14-0.99-0.28-1.98-0.41-2.94c-0.12-0.2-0.32-0.4-0.65-0.59
		c-0.53,0-1.05,0-1.44-0.13c-1.63-1.88,3.37,0.12,1.37-1.43c0.33-0.17,0.67-0.36,1-0.57c1-0.63,2-1.38,3-1.88c-1,0-1.75,0-2.33-0.28
		c-0.29-0.14-0.18-0.38-0.15-0.73c0.49-0.99,0.49-1.99,1.49-1.99c-2,0.67-3.11,0-3.62-1.46c-0.25-0.73-0.35-1.66-0.25-2.8
		c-0.14-5.74-6.14-0.74-8.14-3.74c2,0,5,0,7.36-0.99c-0.05-0.37-0.1-0.69-0.14-0.95c1.78-1.06,0.78-3.06,0.38-4.51
		c-0.09-0.34,0-0.71,0.16-1.07c0.28-0.63,0.63-1.25,1.02-1.86c1.54-2.44,4.76-4.27,7.55-6.68c0.49-0.42,1.23-0.11,1.28,0.53
		c0.03,0.42,0.14,1.93,0.3,4.17c0.03,0.45,0.07,0.93,0.1,1.43c0,0.93-1,2.93,1,3.93c-2,0-3,0-5,0c2,1,5,1,7,2c1,1-1,0-1.81,1.2
		c-0.63,0.39-0.61,0.74-0.58,1.08c0.03,0.4,0.06,0.81,0.09,1.23c-0.69,0.49-1.69,0.49-1.69,1.49c1,0,2,0,2.12,2.22
		c0.04,0.43-0.06,1-0.22,1.43c-0.9,0.35-2.9-0.65-3.9,1.35c2,0,4-1,5,0c1,2,2,3,4.06,2.98c-0.43,0.21-0.84,0.44-1.2,0.67
		c-3.29,2.1-5.35,5.25-9.85,4.35c2,0,5,1,6.97,1.25c0.03,0.38,0.07,0.76,0.1,1.14c0.05,0.57,0.1,1.13,0.15,1.69
		c0.05,0.56,0.1,1.11,0.15,1.66c0.63,5.26,0.63,10.26,1.81,15.62c0.14,0.71,0.27,1.19,0.39,1.4c0.04,0.06,0.06-0.24,0.06-0.83
		c0-0.3,0.01-0.67,0.08-1.16c1.28-4.77-0.72-8.77-0.81-14.12c-0.06-0.57-0.12-1.09-0.18-1.6c-0.43-3.52-1.13-5.76-6.73-5.06
		c2,0,4,1,6.17-0.74c0.71-0.2,0.97-0.4,0.96-0.59c-0.02-0.59-0.03-1.19-0.05-1.78c0.42-0.28,0.83-0.55,1.67-0.91
		c0.18,0.01,6.42-0.55,5.05-0.96c-0.46-0.14-1.75-0.26-4.37-0.35c-2.44-1.68-3.44-3.68-6.44-2.68c0.5-0.5,1.25-0.5,1.99-0.59
		c0.74-0.09,1.46-0.27,1.91-1.14c1.1-1.27-1.9-3.27-0.27-4.07c0.14-0.4,0.13-0.8,0.12-1.2s-0.02-0.78-0.03-1.14
		c-0.01-0.28,0.06-0.55,0.49-0.86c-0.2-1,0.8-1,1.8-1c-3-1-6,0-8-2c2,0,3,0,5,0c2-1-1-2-0.17-2.7c0.16-0.78,0.7-1.48,0.7-1.48
		c2-3,4-5,3.36-9.41c0.1-0.84,0.34-1.45,0.64-2s0.62-1.09,1-1.59c1.5,2,1.5,4.5,1.63,6.88c0.04,0.79,0.1,1.57,0.29,2.41
		c0.09,0.72,1.09,2.72,2.09,3.73c0.49-0.01,0.99-0.51,1.49-0.88c0.5-0.38,1-0.63,1.5-0.13c0,0.09,0.03,0.48,0.1,1.12
		c-2.63,2.07,1.37,3.07,0.43,5.48c0.33,0.38,0.23,0.78,0.27,1.16c0.05,0.51,0.11,1.03,0.17,1.58c0.2,0.5,0.27,1.06,0.18,1.69
		c0.03,0.29,0.06,0.59,0.1,0.89c0.07,0.6,0.13,1.22,0.2,1.85c0.03,0.32,0.07,0.64,0.11,0.96c0.37,0.24,1.01,0.41,0.6,0.86
		s-0.42,0.79-0.38,1.13c0.03,0.25,0.06,0.51,0.08,0.77c1.94-0.28,2.4-0.28,2.95-0.29c4.65,6-1.35,1-0.9,1.24
		c-0.47,0.18-0.82,0.33-1.88,0.63c0.15,1.32,0.3,2.69,0.45,4.09c0.04,0.37,0.08,0.75,0.12,1.13c-2.14-0.07-3.14,1.93-5.14,0.93
		c9,0,6,10,6,16c0,1-3-1-4,1c3,0,6,1,7,3c1,4-2,3-5,6c-1,1,5-2,4.32,1.75c0.05,0.39,0.1,0.77,0.14,1.15
		c1.53,13.78,2.78,24.97,2.82,25.7c0.19-1.79-0.61-12.43-1.61-25.85c-0.03-0.36-0.06-0.73-0.1-1.09c-0.58-2.66-4.58-0.66-5.58-2.66
		c2,1,5-1,5-1c4-5-2-6-6-8c2,0,4,1,6,0c0,0,0-2-0.45-3.5c-0.02-0.41-0.12-0.64-0.15-1.04c-0.03-0.4-0.04-0.83,0.03-1.45
		c-1.43-3.01,1.57-7.01-2.07-10.4c0.6-0.19,0.89-0.39,1.19-0.58c-0.09-1.36-0.17-2.71-0.25-4.04c-0.02-0.38-0.05-0.76-0.07-1.14
		c0.77,0.14,1.77,0.14,1.66-1.45c-0.47-0.1-0.92-0.2-1.76-0.23c-0.02-0.37-0.04-0.74-0.06-1.11c0.73-0.38,1.15-0.67,1.67-0.99
		c-0.74-0.07-0.74-1.07-1.77-0.65c-0.02-0.36-0.04-0.72-0.06-1.08c-0.04-0.72-0.08-1.42-0.11-2.12c-0.02-0.35,0.19-0.79,0.27-1.22
		c-0.07-1-0.07-1-0.32-1.93c-0.12-0.26-0.13-0.59-0.15-0.92c-0.02-0.41-0.02-0.83-0.09-1.22s0.01-0.79-0.01-1.18
		c-0.02-0.39-0.04-0.78-0.06-1.16c-0.03-0.38-0.06-0.76-0.17-1.13c-0.2-0.37-0.09-0.74,0.03-1.09c0.07-0.36,0.07-0.71,0.08-1.06
		c-0.14-6.26,0.02-10.6,0.64-11.67c0.25-0.42,0.84-0.5,1.19-0.16c0.77,0.74,1.55,1.34,2.32,1.34c1-2-2-6,1-6c2-1,3,2,4,4h-1
		c0.58,0.58,0.82,1.48,1.11,2.34c0.07,0.2,0.08,4.09,0.08,9.47c0,0.34,0,0.68,0,1.03c0.27,4.36,0.27,7.36,0.25,11.53
		c-0.06,0.45-0.06,0.89,0.22,1.25c0.14,0.18,0.34,0.35,0.65,0.48c0.3,0.14,0.71,0.25,1.25,0.32c0.54,0.07,0.67,0.25-2.23,1.2
		c-0.04,0.62-0.09,1.22-0.17,1.77c0,0.4,0,0.8,0,1.2c0,2.09,0,4.08,0,5.9c0,0.36-0.01,0.72-0.01,1.07c0.3,0.65,0.3,0.65,0.01,1.99
		c0,0.31,0,0.62,0,0.91c0.02,3.24,0.05,5.26,0.12,5.12c0.74-1.56,1.95-6.12,3.38-11.86c0.08-0.3,0.15-0.61,0.23-0.92
		c0.19-0.32,0.38-0.65,0.56-0.99c1-0.3,1-1.2,0.95-2.14c-0.05-0.94,2.39-2.59,2.74-2.95c-0.9,0.02-1.39-0.07-2-0.13
		c0.03-0.23,0.06-0.46,0.09-0.69c0.03-0.23,0.05-0.47,0.06-0.71c0.34-0.34,0.66-0.69,1.3-1.14c1.87-1.84,0.87-1.84-1.49-1.99
		c-0.3-0.2-0.58-0.42-0.78-0.68c-0.41-0.51-0.52-1.18,0.14-2.18v1c3-2,4-5,3.5-7.64c0.08-0.3,0.16-0.59,0.24-0.89
		c1.96-7.33,3.83-13.35,5.2-14.88c0.34-0.39,0.96-0.35,1.24,0.09c0.21,0.32,0.39,0.65,0.55,0.99c0.31,0.64,0.54,1.29,0.71,1.95
		c0.23,1.08,0.57,5.79,1.02,12.61c0.02,0.31,0.04,0.62-0.02,0.94c-0.44,0.83,1.56,1.83,0.34,4.02c0.01,0.18,0.02,0.35-0.13,0.54
		c-0.15,0.19-0.47,0.39-1.11,0.6c-1.54,1.66-4.54-0.34-5.54,1.66c3,0,5,0,8,0c0,0.5,0,1-0.13,1.5c2.13-0.5,3.13,2.5,5.13,1.5
		c-1,0-3-1-4.32,0.62c-0.3,0.18-0.55,0.34-0.86,0.53c-0.18,0.12-0.39,0.25-0.63,0.39c0,0.26,0.01,0.51,0.03,0.75
		c0.03,0.51,0.09,1.01,0.16,1.52c1.62,5.18,2.62,11.18,1.11,15.98c-0.01,0.29,0.01,0.66,0.04,1.02c0.05,0.74,0.1,1.49,0.16,2.24
		c0.03,0.37,0.04,0.75-0.13,1.22c-1.56,3.72-0.56,8.72,0.44,12.72c1,0,3,0,5-1c-1,1-2,2-3,3c1,0,1,0,2,0c-3,2-3,5-3,7c1,3,2,7,1,10
		c-0.42,2.08-0.14,4.34,0.43,6.69c0.11,0.47,0.24,0.94,0.26,1.42c0.02,0.48,0.36,0.96,0.54,1.44c0.15,0.48,0.3,0.97,0.46,1.46
		c0.63,1.95,1.28,3.93,1.77,5.91c-0.14,0.28-0.13,0.52-0.05,0.75c0.31,0.9,0.62,1.5,0.94,1.76c-0.15-0.21-0.3-0.5-0.45-0.86
		s-0.3-0.8-0.45-1.31c-0.45-2.05-0.94-4.15-1.43-6.28c-0.12-0.53-0.24-1.07-0.36-1.6c-0.33-0.54-0.47-1.07-0.35-1.61
		c-0.11-0.54-0.23-1.08-0.33-1.62c-1.62-8.1-2.39-16.32,1.02-23.13c-1,0-1,0-2,0c1-1,1-2,3-2c-4,1-5-4-6-8c0-1,1,3-1,2
		c2-2,1-5,2.45-7.15c0.02-0.38,0.01-0.74,0-1.11c-0.02-0.74-0.04-1.47-0.06-2.2c-0.01-0.36-0.01-0.7,0.05-0.93
		c1.57-4.6,1.57-10.6-0.33-15.17c-0.12-0.59-0.12-1.03-0.07-1.47c0.05-0.43,0.15-0.86,0.32-1.27c0.16-0.17,0.29-0.42,0.35-0.85
		c2.31-1.83,4.31-0.83,6.31-0.83c-2,1-3-2-4.69-0.8c-1.31-0.24-1.4-0.47-1.32-0.72c0.01-0.48,0.01-0.98,0.01-1.48c-3,0-5,0-8,0
		c2-2,5-2,6.97-1.96c0.57-0.2,0.67-0.4,0.69-0.59c0.02-0.39,0.05-0.77,0.07-1.15c0.27-1.31,0.27-2.31,0.26-3.3
		c0.03-0.35,0.07-0.7,0.1-1.05c0.9-8.96,2.57-14.83,5.28-14.72c-0.05-0.68,0.44-0.75,1.01-0.64s1.19,0.45,1.93,1.05
		c1.31,0.88,2.34,7.58,3.3,15.37c0.23,0.34,0.39,0.68,0.67,1.03c0.06,0.37-0.07,0.69-0.17,1.02c-0.07,0.35-0.14,0.69-0.13,1.04
		c0.05,0.43,0.1,0.87,0.15,1.31s0.07,0.87-0.33,1.3c0.04,0.39,0.66,0.81,0.7,1.28c-0.01,0.47,0.04,0.91,0.09,1.34
		c0.41-0.34-0.59,0.66-0.59,0.66c1,1,2,1,3,1c-1,0-2,0-3,1c0,0,1,0,1.19-0.07c-0.24,0.41-0.2,0.83-0.14,1.25
		c0.05,0.42,0.1,0.83,0.15,1.24c0.05,0.36,0.09,0.71,0.14,1.06c3.66,2.52,0.66,3.52,1.13,7.33c0.11,0.5,0.19,0.97,0.29,1.4
		c0.4,1.73,0.83,2.88,1.29,3.19c-0.11-0.54-0.23-1.43-0.37-2.62c-0.05-0.39-0.09-0.82-0.14-1.28c-2.54-0.51,1.46-2.51-0.54-3.51
		c1-1,2-1,3-1c-1,0-1-1-1.27-1.76c-0.39-0.26-0.69-0.49-1.86-0.87c-0.09-1.09-0.19-2.23-0.28-3.4c-0.03-0.39,0.05-0.78,0.51-1.14
		c-2.11,0.17-0.11-1.83-0.8-2.46c-0.03-0.49-0.06-0.98-0.09-1.48c-0.08-0.52-0.29-1-0.14-1.48c-0.03-0.5-0.06-1-0.1-1.5
		c-0.02-0.33-0.03-0.67,0.06-0.98c1.96-0.93-1.04-1.93-0.34-3.02c-0.02-0.33-0.05-0.66-0.07-0.99c-0.62-8.89-1.09-17-1.09-19.2
		c0-0.67,0-1.34,0-1.99s0-1.29,0-1.92c3.13,1.88,4.69,4.53,5.66,7.48c0.2,0.59,0.37,1.19,0.52,1.8c0.81,0.72,0.81,2.72,0.86,3.77
		c0.28-1.72,0.95-3.05,1.73-4.27c1.56-2.44,3.55-4.44,4.22-7.77c0,0,0,0,0,0c2,3,6,1,8,4c1.75-1.75,1.2-4.28,1.04-6.89
		c0-0.03,0.02-0.05,0.04-0.06c3.8-1.81,3.52,5.05,1.98,14.38c-0.06,0.37-0.13,0.74-0.18,1.12c0.59,0.65,1.59,0.65,2.59,0.65
		c0,2-3,0-2.9,1.59c-0.11,0.33-0.11,0.63-0.1,0.92c0.01,0.28,0.03,0.56,0.07,0.86c0.92,1.62-2.08,2.62-1.31,4.79
		c-0.01,0.36-0.02,0.78-0.05,1.29c-0.03,0.51-0.07,1.03-0.14,1.53c-0.58,1.02-0.58,1.02-0.05,2.5c-0.2,0.17-0.21,0.67-0.25,1.16
		c-0.04,0.49-0.05,1.02-0.17,1.47c-0.06,0.22-0.1,0.46-0.15,0.69c0.27,0.26,0.54,0.52,1.45,0.8c1.6,0.41,2.6,0.41,4.6,0.41
		c-4,2-9,0-13,2c2,0,4-1,5.5,0.96c-0.13,0.36-0.26,0.73-0.39,1.11c-0.13,0.38-0.25,0.76-0.37,1.16c-0.1,0.33-0.16,0.65-0.22,0.97
		c-0.23,1.28-0.44,2.51-0.61,3.65c-0.05,0.31-0.09,0.62-0.14,0.92c0.23,2.23,1.23,5.23,0.23,7.23c3-2,1-5,1.02-6.99
		c-0.02-0.33-0.01-0.65,0.01-0.97c0.17-1.06,0.35-2.19,0.54-3.36c0.05-0.29,0.09-0.59,0.14-0.89c0.36-1.04,0.69-2.1,0.98-3.18
		c-1.23-0.1-1.63-0.2-2.16-0.29c-0.53-0.32-1.53-0.32-2.53-0.32c4-3,8,0,12-2c-2,0-4,1-5.09-0.66c-0.96-0.25-0.98-0.52-1.03-0.82
		c-0.03-0.3-0.07-0.65-0.14-1.02c-0.02-0.48,0.02-0.9,0.04-1.33c0.03-0.43,0.05-0.84,0.32-0.88c-0.06-0.65-0.08-1.47-0.04-2.28
		c0.04-0.81,0.16-1.59,0.39-2.17c-0.38-2.38,1.64-4.16,1.74-6.54c0.01-0.28,0.13-0.54,0.56-0.85c1.25-0.46,2.25-0.46,3.25-1.46
		c-1,0-3,1-3.53-0.62c0.04-0.54,0.19-1.05,0.33-1.51c0.44-1.38,0.85-2.3,1.22-2.61c0.13-0.1,2.6-9.48,2.76-9.52
		c5.93-1.57,4.33,3.7,6.66,8.35c0.09,0.18,0.28,1.23,0.54,2.81c0.06,0.4,0.13,0.83,1.01,1.28c2.01,1.81,4.01,0.81,6.01,0.81
		c-2,1-4,0-6.3,2.22c0.03,0.56,0.11,1.12,0.2,1.7c0.06,0.34,0.11,0.65,0.14,0.94c0.08,0.38,0.17,0.79,0.18,1.03s0.05,0.56,0.1,0.88
		s0.15,0.7,0.22,1.05c0.46,1.17,0.46,1.17,0.22,1.92c0.06,0.31,0.1,0.67,0.14,1.05c0.12,1.13,0.2,2.41,0.53,3.03
		c-0.01,0.22,0,0.49,0.05,0.79c0.05,0.3,0.09,0.6,0.13,0.89c0.09,0.58,0.3,1.26,0.32,1.71c0.27,0.19,0.47,0.47,0.6,0.78
		c-1.54,1-3.54,2-5.54,2c2,0,3,0,4.81,0.61c0.37,0.13,0.31,0.26,0.19,0.39c0.5-0.17,0.83-0.36,0.28-0.54
		c-1.28-0.46-3.28-0.46-4.28-0.46c2,0,4,0,4.85-1.92c-0.12-0.29-0.23-0.58-0.29-0.86c-0.05-0.28-0.05-0.56,0.05-0.83
		c-0.09-0.58-0.13-1.11-0.16-1.68c-0.02-0.28-0.04-0.57-0.02-0.8c0.02-0.24-0.03-0.58-0.1-0.95c-0.02-0.3-0.04-0.61-0.06-0.92
		c-0.02-0.31-0.04-0.62-0.06-0.93c-0.03-0.33-0.05-0.65-0.08-0.98c-0.02-0.31-0.05-0.61-0.07-0.89c-0.06-2.22-0.06-3.22-0.37-4.93
		c-0.03-0.33-0.05-0.65-0.08-0.98c-0.03-0.34-0.05-0.68-0.08-1.02c2.47-1.29,4.47-2.29,6.47-2.29c-2,0-4,0-4.98-0.69
		c-0.93-0.16-1.33-0.32-1.76-0.48c-0.39-4.92-0.7-8.87-0.7-9.48c0.03-0.65,0.1-1.27,0.25-1.86c0.09-0.38,0.22-0.75,0.38-1.09
		c0.01-0.03,0.05-0.07,0.07-0.09c2.38-1.87,5.39,4.41,8.38,11.63c0.14,0.33,0.27,0.66,0.42,0.99c2.94-0.93,6.94,1.07,9.94,1.07
		c-3,0-6,0-9.12,0.93c0.11,0.34,0.24,0.67,0.38,1.01c1.69,4.19,3.33,8.27,4.79,10.86c0.21,0.37,0.42,0.73,0.64,1.07
		c0.31,6.14,1.31,6.14,1.07-0.27c-0.04-0.39-0.07-0.79-0.1-1.23c-0.17-2.64-0.44-6.77-0.71-10.91c-0.01-0.19,0.06-0.38,0.37-0.57
		c1.68-0.88,4.68-0.88,6.68-0.88c-2,0-4-2-6.28-0.83c-0.96-0.38-0.98-0.75-1-1.13c-0.37-5.58-0.68-10.36-0.66-10.33
		c0.07,0.08,0.15,0.17,0.22,0.26c0.62,0.75,1.86,0.43,2.04-0.54c0.22-1.21,0.22-2.41,0.22-3.62c0,0,0,0,0,0c3-3,4,3,6,2
		c3.86-0.96,4.93-0.07,7.69,1.79c0.2,0.13,0.38,0.32,0.45,0.55c0.22,0.68,0.11,4.79-0.06,9.99c0.02,0.35,0.04,0.7,1.19,1.11
		c0.2,1.75,3.2-0.25,2.2,1.75c-1,0-2,0-3.45,0.39c-0.06,0.35-0.07,0.72-0.08,1.1c-0.1,3.01-0.19,6.15-0.24,9.06
		c-0.01,0.32-0.01,0.63-0.01,0.94c-0.22,2.52-1.22,6.52,2.78,6.52c-2,1-3,3-2,5c3-3,0-7,0.82-11.4c0.01-0.3,0.03-0.61,0.04-0.92
		c0.13-2.84,0.26-5.92,0.38-8.93c0.01-0.36,0.03-0.72,0.04-1.08c0.71-0.67,1.71-0.67,2.71-0.67c0,0-1-1-0.66-1.23
		c-0.82-0.29-1.3-0.51-1.94-0.74c0.27-6.41,0.52-11.83,0.77-12.9c0.17-0.73,0.98-1.12,1.66-0.81c3.55,1.65,5,4.55,5.88,7.8
		c0.21,0.75,1.26,0.79,1.49,0.04c0.01-0.02,0.02-0.05,0.02-0.07c0.23-0.73,1.25-0.71,1.49,0.02c0.68,2.12,2.19,4.09,2.67,6.32
		c0.1,0.45,0.15,0.91,0.15,1.38c0.46,0.18,1.46-5.82,1-0.05c0,0.34,0,0.71,0,1.11c-0.01,3.36-0.02,8.41-0.05,13.7
		c0,0.29,0,0.59,0,0.88c0,0.29,0,0.59,0,0.88c0,0.3,0,0.59,0,0.89c-0.01,2.07-0.02,4.14-0.02,6.13c-0.01,0.53-0.08,1.07-0.36,1.65
		c0.02,0.49-0.01,0.93-0.02,1.33c-0.01,0.4-0.01,0.76,0,1.12c0.03,0.7,0.14,1.36,0.36,2.16c0.26,0.4,0.45,0.79,0.59,1.16
		c0.67,1.89-0.02,3.56-0.02,5.23c-0.67-1.33,0-2.67,0.06-4.15c0.03-0.74-0.09-1.52-0.6-2.35c-0.23-0.75-0.6-1.63-0.72-2.51
		c-0.04-0.29-0.06-0.58-0.03-0.87c0.29-1.13,0.29-1.13,0.74-1.65c0.05-0.34,0.06-0.66,0.06-0.98c0.03-3.49,0.07-6.49,0.1-6.96
		c0.02-0.29,0.04-0.58,0.07-0.87c0.03-0.29,0.06-0.58,0.11-0.87c0.04-0.29,0.09-0.58,0.15-0.87c0.06-0.29,0.12-0.58,0.2-0.87
		c0,0,0,0,0,0c0.41-1.26,1.41-2.26,1.41-3.26c1,1,2,3,2.16,5.11c1.34-1.11,1.09-2.61,0.59-3.86s-1.22-2.23-0.75-2.25
		c1-0.13,1.88-0.06,2.64,0.15s1.43,0.59,2,1.08s1.05,1.11,1.49,1.83s0.76,1.5,1.02,2.33c0.26,0.83,0.49,1.73,0.68,2.65
		c0.17,0.81,0.15,2.95,0.06,5.64c-0.02,0.54-0.04,1.1-0.06,1.67c-0.36,1.84-0.36,2.84-0.24,4.58c0.01,0.51-0.01,1.03-0.02,1.52
		c-0.04,3.46,0.39,5.87,3.89,6.74c-1,1-2,1-3,1c1-1,4,1,3-1c-1.5-2.25-3-3.94-3.01-6.33c0-0.4,0.04-0.82,0.13-1.26
		c2.88-1.41-1.12-3.41,0.46-4.26c0.09-0.32,0.12-0.62,0.16-0.92c0.21-3.9,0.41-7.28,0.79-8.42c0.67,1.33,0.89,2.78,1.07,4.22
		s0.33,2.89,1.1,4.36c0.09,0.15,0.18,0.48,0.25,0.96c0.04,0.24,0.08,0.51,0.13,0.81c0.05,0.3,0.1,0.64,0.15,1
		c0.09,0.72,0.18,1.54,0.27,2.42c0.03,0.29,0.06,0.6,0.09,0.9c-0.61,2.51,0.39,5.51,3.39,7.51c-1,1-2,1-3,1c0,2,2,3,1,5
		c-1-3,1-5,3-7c-2,0-3-1-2.45-2.6c0-0.39,0.01-0.77,0.02-1.15c0.13-4.14,0.32-8.01,0.63-8.48c0.17-0.61,0.38-1.22,0.47-1.89
		c0.09-0.45,0.11-0.93,0.03-1.44c-0.05-0.21-0.1-0.43-0.15-0.64c0.05,0.21,0.1,0.43,0.15,0.64c0.11,0.47,0.23,0.94,0.34,1.43
		c0.16,0.71,0.32,1.44,0.47,2.19c2.03,2.73-0.93,7.69,3.97,8.72c-0.37-0.99-0.68-1.99-0.93-2.98c1,1,1,2,1,3
		c-0.03-0.01-0.04-0.01-0.07-0.02c0.24,0.65,0.51,1.3,0.81,1.95c0.15,0.32,0.34,0.66,0.74,1.06c1.98,5.2,6.98,9.2,2.98,14.2
		c2-5-2-10,0.85-13.62c0.11-0.53,0.19-1.04,0.29-1.54c0.84-3.96,1.87-7.9,3.84-11.7c0.04-0.08,0.07-0.15,0.09-0.24
		c0.18-0.69,0.34-1.38,0.46-2.09c4,2,2,6,3,9c2-4-1-10,4-10c2-1,1,4,4,5c2-12-6-27,3-35c3-2,8.99,3.99,11-3.99
		c0-0.01,0.01-0.01,0.01,0c0.48,0.49,1.94,1.83,3.9,3.59c0.39,0.35,0.8,0.72,1.23,1.11c4.32,7.48,12.32,9.48,18.32,13.48
		c-1-7-10-7-9.73-14.11c-0.12-0.27-0.25-0.5-0.37-0.72c-0.99-1.75-1.57-3.29-1.36-4.35c0,0,0.01,0,0.01,0c3,6.97,8-7.01,12.99-3.01
		c1.16,0.58,1.61,3.57,1.68,7.65c-0.14,0.31-0.24,0.63-0.46,1.01c-0.76,5.53,3.24,11.53-0.52,17.59c0.14,0.32,0.44,0.66,0.98,1.01
		c0.09,0.38,0.05,0.76-0.08,1.14c-0.77,2.27-4.92,4.43-1.25,6.31c0.01,0.43,0.02,0.84,0.03,1.21c0.02,0.74,0.06,1.34,0.14,1.75
		c0,0,0.09-0.39,0.24-1.06c0.07-0.34,0.17-0.75,0.27-1.22c1.43-3.21-2.57-1.21-2.57-3.21c3.33,0,3.56-1.33,3.79-3.04
		c0.06-0.43,0.12-0.88,0.23-1.33c0.43-0.8,0.81-1.64,1.16-2.49c0.17-0.43,0.34-0.87,0.49-1.33c0.33-4.81,2.33-9.81,2-14.54
		c-0.01-0.52-0.03-1.04-0.06-1.56c0.55-0.31,0.72-0.55,0.8-0.78c0.62-1.87,1.62-3.62,3.12-5.12c0,0,0-0.01,0,0
		c0.02,1.5,0.03,3.29,0.03,5.23c-0.28,0.22-0.6,0.45-1.33,0.75c5.76,5.22-2.24,15.22,2.76,23.22c-2-8,6-18,0-23c0,0,1,0,1.46-0.41
		c0.84-0.25,1.07-0.48,1.3-0.71c0.22-2.08,0.46-4.31,0.7-6.7c0.06-0.55,1.09,0.18,1.74,0.54c2.34,1.09,4.34,3.09,5.34,5.09l0-5h1.88
		c0.46,0,0.85,0,1.03,0C466.52,268.3,470.67,252.65,465.12,247.41z"/>
	<path class="st3" d="M647.49,243.46c2.55,0.69,4.96-1.2,8.25-0.67c0.38,0.06,0.75,0.12,1.12,0.16c0.06,0.01,0.13,0.01,0.19,0.01
		c5.73-0.16,11.09-4.2,17.11-0.11c2.02,1.03,4.71-2.05,6.73-2.05c5.82-0.99,8.51,1.6,14.19-1.63c0.25-0.14,1.61,2.61,1.46,2.36
		c-0.18-0.3-0.18-0.73-0.18-0.73c29.96,1.02,41.48,1.35,71.06,4.34c0.25,0.03,0.54-0.07,0.64-0.31c0.63-1.47,13.45-5.06,11.02-5.06
		c13.45,1.03,26.9-2.05,40.36,0c-0.67,0-0.67,0-1.35,0c4.71,1.03,9.42,1.03,14.12,1.03h-0.67c8.49-1,18.88,7.51,27.48,5.18
		c0.33-0.09,0.49-0.47,0.33-0.77c-0.65-1.24-1.61-4.34-2.04-5.75c-0.11-0.36,0.17-0.72,0.54-0.7c4.46,0.19,8.91,1.93,13.37-0.02
		c-0.67,0-1.35,2.05-2.02,1.03c28.92,2.05,58.52,0,87.51,0.4c0.3,0,0.56,0,0.76,0c0.41,0,0.63,0,0.63,0s0,176.6,0,272.78
		c0,0.6,0,1.2,0,1.8c-0.08,13.52-0.75,26.87-0.01,40.47c0,0.72,0.01,1.42,0.01,2.11c0,10.36,0,16.34,0,16.34s-0.38-3.27-1.01-8.63
		c-0.1-0.83-0.2-1.72-0.31-2.63c-0.02-0.13-0.06-0.25-0.12-0.36c-0.37-0.67-0.67-1.36-0.91-2.06c-0.25-0.73-0.45-1.45-0.61-1.96
		c-0.01-0.04-0.02-0.07-0.03-0.11c-1.11-5.06,0.22-12.22-2.46-17.33c0,1.03,0,2.05-0.67,3.08c0-0.64,0-1.3,0-1.97
		c0-0.78-0.01-1.58-0.02-2.38c0.03-1.81,0.03-4.89-1.32-6.94c-0.67-2.05-1.35,4.11-2.02,1.03c-0.67-7.19,0.67-14.38-0.39-21.81
		c-0.08-0.71-0.17-1.42-0.26-2.11c-0.09-0.71-0.19-1.39-0.28-1.97c-0.02-0.13-0.07-0.25-0.14-0.36c-2.9-4.68-0.27-9.75-0.25-14.91
		c0.06-0.75,0.11-1.5,0.15-2.26c0.12-2.27,0.12-4.58-0.18-6.89c0-1.03-1.35-1.03-1.95-0.67c-0.36,0.22-0.65,0.55-0.9,0.93
		c-0.5,0.77-0.84,1.8-1.18,2.82c0.67-5.13-0.67-9.24-0.69-14.17c-0.05-0.6-0.11-1.19-0.23-1.78c-0.11-0.58-0.27-1.14-0.51-1.68
		c-0.25-0.51-0.54-0.89-0.84-1.26c-0.3-0.37-0.61-0.76-0.93-1.16c-0.29,0.64-0.58,1.1-0.94,2.31c-0.56,2.33-0.56,5.41-1.23,7.46
		c-1.35-2.05,0-5.13-0.7-8.2c-0.06-0.68-0.13-1.36-0.21-2.03c-0.14-1.28-0.32-2.55-0.59-3.81c-0.03-0.14-0.08-0.27-0.16-0.39
		c-0.23-0.35-0.46-0.63-0.69-0.92c-0.41-0.5-0.82-1.02-1.24-1.53c-0.39-0.46-0.78-0.92-1.19-1.39c-0.11-0.12-0.24-0.22-0.39-0.28
		c-1.15-0.49-2.19-1-3.05-1.88c-0.17-0.17-0.33-0.36-0.48-0.56c-0.3-0.39-0.85-0.57-1.28-0.32c-0.08,0.05-0.16,0.1-0.23,0.16
		c-0.63,0.56-1.64,0.04-1.68-0.81c-0.08-1.97-0.26-3.96-0.87-6.02c-0.25-0.5-0.46-0.73-0.68-0.59c-0.28,0.39-0.45,0.83-0.55,1.3
		c-0.26,1.2-1.98,1.11-2.09-0.11c-0.14-1.62-0.2-3.3-0.3-4.96c-0.01-0.21-0.08-0.41-0.21-0.58c-0.24-0.33-0.49-0.63-0.73-0.93
		c-0.2-0.25-0.5-0.41-0.81-0.4c-1.68,0.1-1.59,3.29-2.28,4.85c-0.2,0.45-0.71,0.71-1.18,0.57c-2.34-0.72-0.71-5.25-1.64-7.62
		c-0.15-0.57-0.51-1.03-1.24-1.2c-0.31,0.48-0.58,0.91-0.87,1.09c-0.29,0.18-0.58,0.12-0.92-0.39c-0.45-1.03-0.6-2.17-0.67-3.35
		c-0.03-0.57-0.05-1.16-0.07-1.74c0-0.03,0-0.07,0-0.1c0.06-1.01,0.06-2,0.06-2c-0.66-0.34-1.11-0.12-1.43,0.36
		c-0.58,0.87-1.92,0.53-1.95-0.52c-0.08-2.47-0.01-5.09-1.12-6.89c-0.52-0.78-0.99-1.36-1.38-1.84c-0.77-0.95-1.19-1.47-1.19-1.47
		s-0.2-0.11-0.58-0.33c-0.38-0.21-0.94-0.53-1.65-0.96c-1.59-0.5-1.99-4.09-2.94-4.99c-0.32-0.3-0.7-0.3-1.2,0.21
		c-0.36,0.73-0.6,1.46-0.8,2.36c-0.19,0.84-0.31,1.72-0.41,2.62c-0.1,0.9-0.18,1.82-0.27,2.73c-0.04,0.39-0.09,0.78-0.14,1.17
		c-0.46,0.29-0.69,0.44-0.95,0.43c-0.26-0.02-0.56-0.19-1.16-0.55c-0.01-0.35-0.02-0.69-0.02-1.04c-0.04-1.73-0.1-3.45-0.35-5.28
		c-0.06-0.34-0.1-0.97-0.13-1.72c-1.3-2.25-3.3-1.25-4.21-1.39c-0.33,0.83-0.54,0.21-0.79-0.39c-0.12-0.3-0.25-0.59-0.39-0.88
		c-0.14-0.28-0.29-0.56-1.07-0.92c-0.85-1.68-3.85,0.32-4.85-0.68c-1-3,2,0,2.92-1.21c0.55-0.24,0.65-0.48,0.45-0.63
		c-0.12,0.21-0.63,0.49-1.46,0.77c-0.91,1.07-2.91-1.93-3.91,1.07c1,0,2,0,2.58,0.42c0.56,0.3,0.82,0.56,0.93,0.79
		c0.1,0.23,0.04,0.45-0.04,0.65c-0.46,2.14-1.46,4.14-1.46,6.14c-3,0,0-2-1-3c0,2-1,3-3,3c0,3,3,1,4,2c-2-1-5,1-6-2c4,0,4-6,2-8
		c-2,0-3-2-5-1c2-1,4,1,6.04-1.19c-0.01-0.45-0.01-0.92-0.03-1.38c-0.08-1.81-0.29-3.55-0.76-5.15c-0.47-0.77-0.76-0.43-0.97,0
		c-0.33,1.37-0.44,2.82-0.5,4.28c-0.02,0.49-0.03,0.98-0.1,1.58c-0.68,0.85-1.68,1.85-3.68,1.85c5,1,5,7,0,9c4-3,2-9-3-9
		c2,0,4,0,4.1-2.69c-0.03-0.49-0.07-0.98-0.12-1.46c-0.26-2.9-0.7-5.69-1.58-8.2c-0.39-1.1-2.01-0.86-2.06,0.3
		c-0.13,2.81-0.16,5.57-0.47,8.18c-0.05,0.44-0.11,0.87-0.18,1.29c0.31,1.57-0.69,3.57-2.69,2.57c0-1,0-2,0.21-2.67
		c-0.02-0.45-0.02-0.91-0.01-1.38c0.09-2.8,0.73-5.81,0.11-8.22c-0.15-0.6-0.38-1.16-0.72-1.18c-0.55,3.19-0.65,6.28-0.67,9.4
		c0,0.52,0,1.04,0,1.56c0.08,0.5,0.08,1.5-0.92,2.5c4,2,1,5,0,9c0,1,1,1,2,2c-5-5,1-8-3.02-11.82c0.11-0.52,0.18-0.95,0.31-1.51
		c-0.07-3.13-0.13-6.22-0.46-9.26c-0.11-0.61-0.26-1.2-0.56-1.53c-2.05-0.83-2.05,1.22-1.75,3.34c0,0.79-0.3,1.99-0.97,3.01
		c-0.42-3.21-0.58-6.42-0.64-9.63c-0.01-0.64-0.02-1.28-0.02-1.93c-0.01-0.77-0.01-2.82-0.01-3.85c0,1.03-0.67,1.03-0.39,2.31
		c-0.28,5.91-0.95,12.07-3.64,17.2c0,0,0.67,0,0.35,0.3c0.4-0.25,0.14,0.16-0.3,0.65c0.12-0.3-0.88,0.7-1.22,0.41
		c-0.36-0.12-0.66-0.42-0.72-0.84c-0.01-0.06-0.02-0.13-0.03-0.19c-0.05-0.4-0.06-0.82-0.05-1.25c0-0.15,0.04-0.3,0.11-0.43
		c0.28-0.58,0.54-1.16,0.74-1.74c0.21-0.58,0.42-1.16,0.62-1.75c0.2-0.59,0.4-1.18,0.6-1.77s0.38-1.18,0.2-1.39
		c-0.35-0.08-0.67-0.13-0.96-0.17c-0.68-0.08-1.12-0.75-0.9-1.4c1.95-5.59,4.28-10.49,4.6-17.22c0.08-1.4,0.16-2.75,0.33-4.03
		c0.34,0,0.67,0.26,1.01,0.64c0.26,0.3,0.51,0.7,0.59,1.54c0,0.28,0,0.56,0.02,0.85c0.01-0.33,0-0.6-0.02-0.85
		c0.03-3.65,1.8-6.59,2.31-10.49c0.21-1.18,0.31-2.14,0.41-3.13c0.5-4.74,0.72-9.51,0.65-14.28c-0.03-1.88-0.07-3.87-0.16-5.76
		c0-0.05,0-0.1,0.01-0.14c0.54-4.36-2.12-7.43-2.79-11.51c0,0.51,0,1.03-0.08,1.54c-0.08,0.51-0.25,1.03-0.59,1.55
		c0-0.67,0-1.33,0-1.99c0.11-0.34,0.13-0.7,0-1.1c0,0-0.67,0-1.35,0c0.2,0.31,0.34,0.62,0.44,0.93c-0.36,0.37-0.53,0.8-0.01,1.75
		c-0.24,0.38-0.41,0.76-0.4,1.17c-0.2-0.44-0.37-0.89-0.53-1.34c-0.15-0.45-0.29-0.91-0.4-1.37c-0.3-0.57-0.3-1.57-0.48-2.82
		c-0.05-0.48-0.09-0.96-0.11-1.44c-0.02-0.48-0.04-0.95-0.04-1.46c0-0.49,0-0.98,0.01-1.48c0.01-0.5,0.01-0.91,0.04-1.45
		c0.03-0.54,0.06-1.04,0.09-1.55c0.03-0.5,0.06-1.01,0.09-1.52c0.03-0.51,0.02-0.82,0.05-1.37c0.02-0.55,0.08-1.17,0.1-1.69
		c0.02-0.51,0.03-1.02,0.03-1.53c0-0.51,0-1.02-0.02-1.53s-0.04-1.02-0.08-1.53c-0.06-0.75-0.15-1.53-0.28-2.29
		c-0.13-0.76-0.29-1.52-0.5-2.27c-0.03-0.1-0.07-0.2-0.12-0.29c-0.53,1.82-0.79,0.73-1.02-0.34c-0.27-0.78-0.42-2.09-0.77-0.28
		c-0.06,0.38-0.12,0.79-0.19,1.17c-0.04,0.56-0.06,1.2-0.08,1.91c-0.01,0.28-0.01,0.58-0.01,0.88c0,0.3,0.02,0.89,0.03,1.39
		c0.01,0.5-0.02,0.36-0.25,0.88c-0.11,0.34-0.32,0.84-0.47,1.25c-0.15,0.4-0.23,0.71-0.07,0.64c0.39-0.16,0.59-0.01,0.69,0.29
		c0.1,0.3,0.11,0.77,0.12,1.23c0.01,0.46,0,0.97-0.02,2.55c-0.01,0.23-0.01,0.38-0.01,0.68c0.08,0.06,0.08,0.53,0.09,1
		c0.01,0.47,0.01,0.93,0.02,1.39c0,0.46-0.05,1.13-0.03,1.53c0.02,0.39,0.05,0.71,0.04,1.14c0,0.34-0.08,0.84-0.1,1.26
		c0.03,0.28,0.06,0.61,0.11,0.92c0.09,1.46,0.38,2.81-0.36,4.15c-0.19,0.33-0.44,0.67-0.77,1c0-0.37,0-0.77,0-1.17
		c0-0.8,0-1.65,0-2.51c0-0.43,0-0.86,0-1.29c0.01-1.03,0.01-1.03-0.02-2.52c0-0.41-0.01-0.8-0.01-1.18
		c-0.01-0.38-0.01-0.74-0.02-1.09c0-0.39,0.01-0.76,0.02-1.14s0.01-0.76,0.02-1.14c0.01-0.35-0.07-0.23-0.09-0.47
		c-0.01-0.12,0.02-0.44-0.19-0.73c0.29-1.33,0.34-1.83,0.35-2.21c0.01-0.37,0.01-0.72,0.02-1.09c0.01-0.38,0.01-0.74-0.34-0.54
		s-0.96,0.81-0.59-0.1c0.18-0.45,0.41-0.96,0.6-1.42c0.19-0.45,0.34-0.85,0.38-0.88c0.05,0.29,0.07,0.18,0.04-0.46
		c-0.05-1.28-0.06-1.84-0.07-2.37c-0.01-0.52-0.02-0.98-0.05-1.38c-0.04-0.81,0.14,0.11,0.17,0.7c-0.11-0.51-0.42-1.02-0.69-1.52
		c-0.28-0.5-0.53-1-0.63-0.77c-0.51,0.1-0.67-0.31-0.81-0.17c-0.17,0.32-0.25,0.7-0.42,0.96c-0.33,0.74-0.5,1.36-0.57,1.9
		c-0.07,0.54-0.04,0.99,0.02,1.41c-0.12,1.18-0.12,1.18-0.22,2.43c-0.17-0.59-0.36-0.14-0.7,0.55c-0.2,0.2-3.2,1.2,0.1,1.08
		c0.22-0.1,0.17,0.25,0.13,0.79c-0.04,0.54-0.09,0.73-0.13,0.86c-0.08,0.24-0.31,1.25-0.98,3.66c2.67-0.18-2.33-3.18,0.55-3.32
		c0.02-0.48,0.03-0.97,0.04-1.45c0.01-0.49-0.04-0.9-0.83-0.19c-0.04-0.61,0.19-1.17,0.41-1.64c0.23-0.47,0.45-0.87,0.44-0.59
		c0.12,1.24,0.06,0.18-0.04-1.22c-0.1-1.4-0.13-1.92-0.16-2.44c-0.04-0.52-0.08-1.05-0.13-1.58c0.07,0.13,0.34,1.54,0.51,2.27
		c-0.2-1.34-0.34-2.36-0.44-3.15c-0.24,0.21-0.56,1.46-0.41-0.32c0.15-1.77,0.16-2.22,0.15-2.5c-0.01-0.41-0.03-0.82-0.04-1.22
		c-0.37-1.84-0.37-2.84-2.2-0.6c-0.07,0.65-0.08,0.42-0.11,0.99c-0.03,0.57-0.05,1.13,0.06,3.35c0.05,0.37,0.1,0.78,0.17,1.27
		c0.13,1.51-0.29-0.25-0.35,0.55c-0.04,0.6-0.12,1.2-0.25,1.77c-0.07,0.28-0.11,0.97-0.17,1.7c-0.06,0.73-0.13,1.51-0.25,1.96
		c-0.16,0.61-0.48-0.44-0.93-1.01c-0.33,0.55-0.63,1.02-0.96,1.25c-0.31,0.29-0.62,0.46-0.96,0.54s-0.69,0.05-1.08-0.06
		s-0.83-0.29-1.25-0.25c0.91-0.3,0.91-0.3,1.38-1.16c-0.03-0.73-0.02-1.35-0.01-1.91c0.01-0.56,0.01-1.07,0.03-1.39
		s0.04-0.64,0.08-0.96c-1.56-0.88,3.44-0.88,0.78-1.43c0.08-0.35,0.18-0.87,0.3-1.49c0.24-1.24,0.35-1.6,0.46-1.88
		c0.11-0.28,0.21-0.55,0.32-0.84c0.11-0.28,0.22-0.56,0.31-0.4c0.14,0.26-0.63,0.46-0.91,0.04c-0.3-0.43-0.67-0.18-1.05,0.12
		c-0.35,0.29-0.77,0.33-1.12,0.14s-0.6-0.54-0.62-0.51c-0.03,0.03,0.01-0.9,0.06-1.76c0-0.44-0.01-0.8-0.04-1.14
		c-0.02-0.35-0.05-0.69-0.09-1.01c-0.09-0.54-0.29-0.47-0.45-1.28c-0.16-0.81-0.43-1.11-0.79-1.22c-0.38-0.09-0.91,0.06-1.42,0.36
		c-0.29,0.21-0.56,0.55-0.78,0.95c-0.15,0.26-0.27,0.56-0.37,0.87c-0.09,0.28-0.17,0.57-0.13,0.99s-0.02,0.73-0.25,0.9
		c0.11,0.35,0.17,0.53,0.15,0.8c-0.02,0.27-0.12,0.64-0.33,1.37c0.42,0.53,0.42,1.53-0.03,2.39c-0.03,0.63-0.04,1.08-0.02,1.36
		c0.02,0.28,0.02,0.69,0.04,1.19c0.49,2.37,0.49,2.72,0.33,2.41c-0.47-0.47-0.77-0.69-0.83-0.25c-0.07,0.44-0.07,0.94-0.07,1.44
		c0-0.5,0-1,0.06-1.56c0.14-0.29,0.73,0.78,0.56-1.37c-0.16-1.05-0.16-1.47-0.17-1.95c-0.03-0.16-0.03-0.46-0.04-0.8
		s-0.01-0.71,0.1-0.63c0.49-1.69-1.51-1.69-0.44-3.86c0.1-0.44,0.01-1.05-0.28-1.82c-0.96-5.33-2.97-9.48-6.18-10.7
		c-1.71-1.31-1.24,3.63-2.07,8.18c-0.21,1.14-0.49,2.25-0.29,3.84c-1.25,0.67-1.25,0.67-1.78-0.15c-0.87-1.37-0.94-1.93-1.03-2.45
		c-0.43-0.73-0.43-1.73-0.43-2.73c0,1,0,1.75,0,2.5s0.28,1.77,1.51,3.93c-1.47-1.11-3.06-2.88-3.43-3.71
		c-0.73-1.66-0.69-3.52-1.92-5.12c-0.14-0.44-0.29-0.85-0.45-1.29c-0.16-0.43-0.32-0.88-0.48-1.36c-0.36-1.02-1.83-0.85-1.96,0.23
		c-0.04,0.35-0.09,0.7-0.15,1.05c-0.06,0.35-0.12,0.7-0.19,1.14c0.06,2.63-1.94,3.63-1.94,6.63c0-2,1-5-0.77-6.74
		c-0.16-0.44-0.31-0.78-0.46-1.12c-0.89-2.02-1.53-4-1.23-7.26c0.01-0.06,0.01-0.13,0-0.2c-0.07-0.81-0.23-1.41-0.42-1.96
		c-0.2-0.57-0.42-1.12-0.67-1.63c-1.01,2.05-1.01,4.62-1.09,7.06c-0.03,0.81-0.07,1.61-0.19,2.47c-0.03,0.37-0.21,1.07-0.47,1.8
		c-0.13,0.37-0.28,0.77-0.44,1.22c-4.25,3.35-3.25,7.35-3.25,11.35c0,0.75,1.13,0.94,2.11,0.98c0.33,0.02,0.64,0.02,0.89,0.02
		c-0.23,0.54-0.49,1.01-0.77,1.45c-0.28,0.43-0.53,0.9-0.82,1.27s-0.56,0.77-0.81,1.15c-1.28,1.91-2.22,3.63-1.59,6.13v-1
		c-1,18-1,36-3,54c3.79-18.95-3.19-43.28,4.57-59.39c0.22-0.45,0.44-0.89,0.7-1.29c0.23-0.46,0.49-0.87,0.76-1.26
		c-0.61-0.12-1.13-0.3-1.57-0.53c-3.89-1.91-1.53-8.05-2.15-12.78c0-0.63,0-1.18,0-1.72c-0.02-5.34-0.19-9.03-0.57-10.04
		c-0.14-0.38-0.66-0.43-0.89-0.1c-0.25,0.36-0.5,0.67-0.75,0.9c-0.31,0.29-0.83,0.1-0.87-0.32c-0.18-2.16,1.27-5.48-0.54-5.48
		c-1.35-1.03-2.02,2.05-2.69,4.11h0.67c-0.16,0.24-0.28,0.54-0.38,0.87c-0.28,0.9-1.46,1.01-1.94,0.21
		c-2.09-3.48-6.2-0.05-8.44-5.19c-0.34,0.62-0.6,1.25-0.8,1.91c-0.21,0.65-0.36,1.32-0.48,2c-0.25,1.78-0.19,3.76-0.12,5.77
		c0.02,0.5,0.06,1,0.16,1.58c1.34,3.75-1.66,6.75-2.15,10.67c0.25-0.25,0.31-0.6,0.33-0.95c0.02-0.35,0.03-0.66,0.07-0.91
		c0.08-0.49,0.17-0.82,0.27-1.09c0.1-0.27,0.19-0.31,0.27-0.16c0.55-2.81,1.55-5.81,1-8.61c-0.03-0.58-0.08-1.15-0.16-1.7
		c-0.56-3.86-2.35-6.88-5.67-7.05c-0.34-0.02-0.59-0.26-0.78-0.54c-0.12-0.18-0.34-0.19-0.58-0.12c-0.38,0.11-0.8,0.46-1.29,1.08
		c-0.43,0.43-0.09,3.05,0.6,6.67c0.1,0.52,0.2,1.05,0.32,1.61c3.12,5.84-0.88,14.84,7.12,18.84c-5,1-1,3-1.44,5.85
		c-0.31,0.51-0.39,0.82-0.56,1.15c0-0.25,0-0.52,0.05-0.84s0.15-0.71,0.68-1.45c0.27-1.71-2.73,0.29-2.73-1.71c0-1,0-3,2-3
		c-1,0-2,0-3-1s0-1,1-1c-6-2-4-10-6.78-15.19c-0.27-0.72-0.48-1.15-0.6-1.48c-0.32-0.98-0.5-1.59-0.49-1.68
		c0.54-3.98,0.99-7.53,0.99-11.83c0-0.69,0-1.37,0-2.04c0-0.67,0-1.33,0-1.97c-2.1,1.93-3.15,4.65-3.81,7.68
		c-0.13,0.61-0.25,1.22-0.35,1.85c-0.55,0.74-0.55,2.79-0.58,3.87c-0.19-1.76-0.64-3.13-1.16-4.39c-0.81-1.95-1.81-3.63-2.42-5.88
		c-0.19-0.71-1.01-0.99-1.63-0.6c-1.01,0.64-2.23,0.5-3.21,1.28c-0.61,0.49-1.56,0.1-1.68-0.67c-0.25-1.55-0.04-3.36,0.03-5.21
		c0.02-0.43-0.51-0.69-0.84-0.41c-1.19,0.99-0.93,10.2-0.01,22.98c0.03,0.41,0.06,0.83,0.09,1.25c-0.55,4.46,0.45,7.46,0.53,11.16
		c-0.01,0.51-0.05,1-0.13,1.45c-0.37,2.29-1.62,3.85-4.95,3.85c15,12,6,42,12,61l-1-1c1,4,1,8,1,12c-1-4-2-8-2-12v1
		c-6-19,2-48-12-61c3.5,0,4.5-1.75,4.69-4.2c0.04-0.49,0.04-1.01,0.03-1.55c0.28-3.25-0.72-7.25-0.48-10.38
		c-0.03-0.36-0.06-0.71-0.09-1.06c-0.88-10.12-1.45-17.81-1.45-20.56c0-0.25-0.16-0.49-0.39-0.58c-4.02-1.5-2.67,4.48-4.6,9.36
		c-0.18,0.45-1.26-0.43-0.98-0.03c15.96,22.17,8.47,8.08-0.18-6.59c-0.34-0.57-0.07-1.3-0.17-1.9c-0.04-0.26-0.09-0.51-0.15-0.75
		c-0.13-0.5-0.62-0.82-1.14-0.76c-3.09,0.35-6.13-1.92-8.86,1.57c-0.04,0.05-0.08,0.1-0.11,0.16c-0.34,0.59-0.67,1.3-1,2.16
		c-0.67-2.05-0.67-4.11-0.67-6.16c-2.02-3.08-2.69,3.08-4.04,2.05c-2.6-0.99-3.31-0.07-5.17,1.84c-0.13,0.14-0.24,0.3-0.28,0.49
		c-0.24,1.02-0.07,2.26,0,3.49c0.02,0.41,0.06,0.84,0.04,1.24c-0.02,0.39-0.08,0.76-0.18,1.14c-0.1,0.37-0.24,0.72-0.46,1.05
		c-0.09-0.43-0.17-0.87-0.24-1.33c-0.02-0.39,0.07-0.68-0.09-1.29c-0.16-0.61-0.21-1.1-0.25-1.6c-0.14-1.49-0.27-3.01-0.47-4.41
		c-0.12-0.83-1.13-1.19-1.75-0.64c-0.33,0.29-0.62,0.61-0.89,0.96c-0.27,0.35-0.51,0.72-0.73,1.11c-0.22,0.39-0.2,1.07-0.4,1.48
		s-0.53,0.64-0.67,1.1c-0.14,0.46-0.26,0.94-0.38,1.43c1.51,2.18,0.51,2.18-1.46,2.49c-0.51-0.09-0.84,0.07-1.07,0.37
		c-0.12,0.15-0.21,0.33-0.22,0.61c-0.01,0.28,0.05,0.66,0.25,1.21c0.02,0.51,0.02,0.51-0.25,1.49c-0.83-0.44-0.97-0.01-1.08,0.43
		s-0.2,0.89-0.06,1.77c0.41-0.18-0.59,0.82-0.65,0.64c-0.16,0.19-0.25,0.53-0.29,0.96c-0.04,0.43-0.02,0.97,0.09,1.63
		s-0.13,0.85-0.13,1.37s0,1.03,0.02,1.56c0.02,0.54-0.02,1-0.02,1.52s0,1.03,0,1.54c0,0.51,0,1.03,0,1.54c0,0.45,0,0.9,0,1.35
		c0,1.35,0,2.7,0,4.04c0,0.45,0,0.9,0,1.36c0,0.46,0,0.89,0,1.34c0,0.9,0,1.8,0,2.7c0-0.51,0-1.06-0.01-1.62
		c-0.01-0.56-0.02-1.14-0.04-1.73c-0.01-0.47-0.06-1.19-0.12-1.79s-0.13-1.2-0.23-1.79c-0.02-0.08-0.04-0.17-0.06-0.25
		c-0.28-1.08-1.83-1.06-2.06,0.03c-0.14,0.67-0.24,1.39-0.28,2.12c-0.45-0.57-0.63-1.24-0.66-1.93c-0.03-0.69,0.1-1.39,0.27-2.04
		c0.2-0.35,0.42-0.83,0.52-1.44s0.14-0.86-0.02-0.87c-0.67-0.13-1.26-0.06-1.78,0.16c-0.26,0.11-0.5,0.26-0.69,0.68
		c-0.45,0.75,0.55,1.75-1.14,1.63c-0.21-0.04-0.36,0.31-0.51,0.68c-0.29,0.74-0.51,1.54-0.68,2.39c-0.09,0.43-0.17,0.87-0.08,2.99
		c0.09,2.12-0.1,1.42-0.23,1.17c-0.14-0.25-0.23-0.13-0.32-0.01c-0.16,1.44-0.27,2.89-0.39,4.23c-0.04,0.45-0.07,0.88,0.23,1.37
		c0.21,1.02,0.24,2.66-0.21,3.09c0.25-0.41,0.07-1.96-0.27-3.03c-0.46-0.46-0.52-0.84-0.56-1.23c-0.18-1.93,0.22-3.85,0.07-5.78
		c0.13,1.24,0.17,1.75,0.19,2.42c-0.38-0.86-0.73-2.18-0.84-1.45c-0.11,0.73-0.18,1.47-0.24,2.21c-0.09,1.11-0.17,2.22-0.42,3.35
		c0.26,0.44,0.34,1.31,0.44,3c-2.48,0.7-3.48-0.3-2.91-1.97c-0.39-0.77-0.47-1.11-0.5-1.45c-0.06-0.47-0.07-0.96-0.02-1.48
		c0.03-0.22,0.07-0.45,0.1-0.66c-0.03,0.21-0.07,0.44-0.1,0.66c-0.08,0.49-0.16,0.97-0.23,1.47c-0.05,0.34-0.06,0.7,0.21,1.57
		c-0.03,0.56,0.97,1.56-0.6,1.56c-0.1-0.31-0.22-0.02-0.31,0.38s-0.13,0.83-0.16,1.27c1.03,4.34-1.97,6.34-4.97,5.34c1,0,4,1,3-2
		c1,3-2,2-3,2c3,2,1,6,0,9c0-2,0-3,0-5c0,1,0,1,0.02,1.58c-0.08,0.39-0.25,0.64-0.59,0.64c-0.07-0.51-0.34-1.16-0.32-1.61
		s-0.02-0.94-0.09-1.45c-0.04-0.25-0.07-0.51-0.2-0.77c-0.13-0.26-0.4-0.53-1.19-0.91c-1.62,0.52-1.62-1.48-1.62-2.48c0,0,1,0,2,0
		c-1-3,0-6-1.58-7.88c-0.02-0.05-0.03-0.1-0.04-0.15c-0.13-0.72-0.24-1.45-0.32-2.19c-0.34,0.26-0.61,0.55-0.83,0.86
		s-0.39,0.66-0.52,1.02c-0.13,0.36-0.23,0.73-0.33,1.08c0.62,2.27-1.38,3.27-1.38,5.27c-1-3,1-5,0-8c-1-2-3-1-4,0
		c-2-5,1-11,0.39-16.39c0.12-0.55,0.14-1.1,0.16-1.65c0.21-5.47-0.26-10.43-2.9-14.02c-1.31-1.33-3.46,0.79-5.18,0.21
		c-0.34-0.12-0.67-0.34-0.97-0.73c-3.5,5.58-4.5,14.58-2.5,18.58c0,1-2,1-3,0c4,4-1,5-1,9c-1-2,2-4-1-5v1c-1-5,1-11-3-15
		c1,0,1,0,2,0c-3-3,1-6-1-9c0,1,0,1-1,1c2-3-4-11-7-7c-3,2-4,7-4,11c0,1-2-1-3-1c1-1,0-3,0.54-3.83c0.16-0.61,0.13-1.1,0.08-1.53
		c-0.19-1.73-0.46-3.07-0.85-3.76c-0.04-0.08-0.1-0.15-0.16-0.22c-0.99-1.09-2.15-1.63-3.22-1.58c-0.37,0.05-0.73,0.18-1.17,0.56
		c-0.43,0.31-1.52,2.5-2.89,5.56c-0.54,1.21-2.37,0.52-1.97-0.75c0.77-2.45,1.27-4.23,1.27-4.71c-0.34,0-0.84,0-1.26,0
		c-0.31,0-0.57,0-0.69,0C646.55,264.92,627.87,238.16,647.49,243.46z"/>
	<path class="st1" d="M401.15,276.07c-0.03-0.21-0.08-0.42-0.15-0.64C401.05,275.64,401.1,275.86,401.15,276.07z"/>
	<path class="st1" d="M405,285.43c0.25,0.99,0.56,1.99,0.93,2.98c0.03,0.01,0.04,0.01,0.07,0.02C406,287.43,406,286.43,405,285.43z"
		/>
	<path class="st1" d="M169,300.43c-1,0-2,0-2,0c0.4,0.4,0.95,0.64,1.35,0.91C168.49,301.03,168.7,300.73,169,300.43z"/>
	<path class="st1" d="M167,300.43c0,0.36,0,0.72,0,1.07c0.21,0.43,0.62,0.82,1.01,1.2c0.03-0.46,0.11-0.91,0.33-1.36
		C167.95,301.07,167.4,300.83,167,300.43z"/>
	<path class="st4" d="M437.81,255.72"/>
	<path class="st5" d="M573.07,64.27c-4.8-5.4-12.27-3.24-18.62-2.74c-9.85,0.78-19.96-0.37-29.74-1.67
		c-10.39-1.38-21.07-3.45-31.21-0.82c-8.3,2.15-15.64,7.33-24.06,8.98c-4.02,0.79-8.99,0.32-11.04-3.23
		c-2.34-4.06-0.39-14.56,5.61-14.31c0.93,0.04,1.86,0.33,2.79,0.2c3.22-0.46,3.58-4.88,5.19-7.71c2.25-3.94,7.65-4.91,12.07-3.91
		c4.42,1,8.38,3.46,12.7,4.82c2.04,0.65,4.39,1.01,6.24-0.07c2.57-1.5,3-4.98,4.63-7.47c2.55-3.9,8.03-5,12.51-3.72
		c4.48,1.29,8.15,4.45,11.51,7.67c0.48,0.46,1,0.94,1.65,1.04c0.83,0.12,1.6-0.41,2.3-0.89c4.99-3.39,11.29-4.8,17.25-3.87
		c2.05,0.32,4.13,0.95,5.71,2.3c1.58,1.35,2.56,3.55,2,5.55c-0.76,2.72-4.01,4.35-4.35,7.16c4.21,0.39,8.54,1.14,12.04,3.5
		C570.8,56.79,574.42,60.83,573.07,64.27z"/>
	<path class="st5" d="M528.52,72.31c-4.8-5.4-12.27-3.24-18.62-2.74c-9.85,0.78-19.96-0.37-29.74-1.67
		c-10.39-1.38-21.07-3.45-31.21-0.82c-8.3,2.15-15.64,7.33-24.06,8.98c-4.02,0.79-8.99,0.32-11.04-3.23
		c-2.34-4.06-0.39-14.56,5.61-14.31c0.93,0.04,1.86,0.33,2.79,0.2c3.22-0.46,3.58-4.88,5.19-7.71c2.25-3.94,7.65-4.91,12.07-3.91
		c4.42,1,8.38,3.46,12.7,4.82c2.04,0.65,4.39,1.01,6.24-0.07c2.57-1.5,3-4.98,4.63-7.47c2.55-3.9,8.03-5,12.51-3.72
		s8.15,4.45,11.51,7.67c0.48,0.46,1,0.94,1.65,1.04c0.83,0.12,1.6-0.41,2.3-0.89c4.99-3.39,11.29-4.8,17.25-3.87
		c2.05,0.32,4.13,0.95,5.71,2.3s2.56,3.55,2,5.55c-0.76,2.72-4.01,4.35-4.35,7.16c4.21,0.39,8.54,1.14,12.04,3.5
		C526.25,64.84,529.87,68.88,528.52,72.31z"/>
	<path class="st5" d="M589.6,84.09c-4.8-5.4-12.27-3.24-18.62-2.74c-9.85,0.78-19.96-0.37-29.74-1.67
		c-10.39-1.38-21.07-3.45-31.21-0.82c-8.3,2.15-15.64,7.33-24.06,8.98c-4.02,0.79-8.99,0.32-11.04-3.23
		c-2.34-4.06-0.39-14.56,5.61-14.31c0.93,0.04,1.86,0.33,2.79,0.2c3.22-0.46,3.58-4.88,5.19-7.71c2.25-3.94,7.65-4.91,12.07-3.91
		c4.42,1,8.38,3.46,12.7,4.82c2.04,0.65,4.39,1.01,6.24-0.07c2.57-1.5,3-4.98,4.63-7.47c2.55-3.9,8.03-5,12.51-3.72
		c4.48,1.29,8.15,4.45,11.51,7.67c0.48,0.46,1,0.94,1.65,1.04c0.83,0.12,1.6-0.41,2.3-0.89c4.99-3.39,11.29-4.8,17.25-3.87
		c2.05,0.32,4.13,0.95,5.71,2.3c1.58,1.35,2.56,3.55,2,5.55c-0.76,2.72-4.01,4.35-4.35,7.16c4.21,0.39,8.54,1.14,12.04,3.5
		C587.33,76.61,590.95,80.66,589.6,84.09z"/>
	<path class="st5" d="M569.64,68.62c5.95-6.69,15.22-4.02,23.09-3.4c12.22,0.97,24.75-0.46,36.87-2.07
		c12.88-1.71,26.12-4.28,38.7-1.02c10.29,2.66,19.39,9.08,29.83,11.13c4.99,0.98,11.14,0.39,13.68-4.01
		c2.9-5.03,0.49-18.05-6.95-17.73c-1.16,0.05-2.31,0.41-3.46,0.24c-3.99-0.57-4.44-6.05-6.44-9.55c-2.79-4.88-9.49-6.08-14.97-4.85
		c-5.48,1.23-10.39,4.28-15.75,5.98c-2.54,0.8-5.44,1.25-7.74-0.09c-3.18-1.87-3.72-6.17-5.74-9.26c-3.16-4.83-9.96-6.2-15.51-4.6
		c-5.55,1.59-10.1,5.51-14.27,9.51c-0.59,0.57-1.24,1.17-2.05,1.29c-1.03,0.15-1.99-0.51-2.85-1.1c-6.19-4.2-14-5.95-21.39-4.79
		c-2.54,0.4-5.12,1.17-7.08,2.84s-3.17,4.4-2.48,6.88c0.94,3.38,4.97,5.39,5.39,8.87c-5.22,0.48-10.58,1.42-14.93,4.34
		C572.45,59.35,567.96,64.36,569.64,68.62z"/>
	<path class="st5" d="M629.89,69.17c5.95-6.69,15.22-4.02,23.09-3.4c12.22,0.97,24.75-0.46,36.87-2.07
		c12.88-1.71,26.12-4.28,38.7-1.02c10.29,2.66,19.39,9.08,29.83,11.13c4.99,0.98,11.14,0.39,13.68-4.01
		c2.9-5.03,0.49-18.05-6.95-17.73c-1.16,0.05-2.31,0.41-3.46,0.24c-3.99-0.57-4.44-6.05-6.44-9.55c-2.79-4.88-9.49-6.08-14.97-4.85
		c-5.48,1.23-10.39,4.28-15.75,5.98c-2.54,0.8-5.44,1.25-7.74-0.09c-3.18-1.87-3.72-6.17-5.74-9.26c-3.16-4.83-9.96-6.2-15.51-4.6
		c-5.55,1.59-10.1,5.51-14.27,9.51c-0.59,0.57-1.24,1.17-2.05,1.29c-1.03,0.15-1.99-0.51-2.85-1.1c-6.19-4.2-14-5.95-21.39-4.79
		c-2.54,0.4-5.12,1.17-7.08,2.84c-1.96,1.67-3.17,4.4-2.48,6.88c0.94,3.38,4.97,5.39,5.39,8.87c-5.22,0.48-10.58,1.42-14.93,4.34
		C632.71,59.9,628.22,64.91,629.89,69.17z"/>
	<path class="st5" d="M575.95,96.97c-1.56-0.05-2.29-0.05-3.76-0.05c1.47-0.21,2.94-0.95,4.22-1.53c9.72,1.53,18.53-2.27,26.6-0.16
		c1.01,0.21,1.91,0.49,2.74,0.83c0.83,0.34,1.58,0.73,2.28,1.16c5.25,4.33,13.32,7.28,22.72,6.33c1.28-0.21,2.52-0.5,3.71-0.86
		c3.57-1.07,6.67-2.69,8.84-4.67c1-0.74,2.06-1.47,3.25-2.11c2.38-1.27,5.27-2.18,9.07-2.39c1.31-0.01,2.61,0.13,3.88,0.39
		c2.12,0.43,4.17,1.21,6.07,2.19c0.95,0.49,1.86,1.03,2.73,1.6c0.64,0.8,1.45,1.54,2.38,2.21s2,1.28,3.17,1.82
		c2.42,0.56,5.08,0.88,7.87,1c1.39,0.06,2.82,0.07,4.26,0.03c1.08-0.18,2.16-0.28,3.26-0.43s2.2-0.36,3.3-0.78
		c2.32-0.98,4.81-1.93,7.35-2.88c1.27-0.47,2.56-0.94,3.97-1.4c10.7-3.31,32.71-6.68,26.11-15.11c-3.67-4.21-15.41-5.48-17.57-10.79
		c-0.52-0.77-1-1.55-1.48-2.33c-0.95-1.55-1.87-3.11-2.97-4.58c-0.73-0.42-2.94-0.42-4.46-0.9c-1.53-0.17-3.05-0.25-4.53-0.26
		c-13.35-0.08-24.25,5.84-26.23,13.8c0,0.84-1.47,1.69-3.66,1.91c-1.21-0.02-2.48-0.2-3.72-0.5c-3.71-0.91-7.11-2.94-7.65-5.73
		c-0.27-0.55-0.51-1.12-0.75-1.68c-1.17-2.82-2.4-5.66-7.7-7.06c-6.6-1.26-9.54,2.95-12.88,5.43c-0.7,0.51-1.46,0.99-2.25,1.37
		c-1.56,0.78-3.22,1.2-4.68,0.78c-4.4-1.69-8.81-3.79-13.94-3.37c-1.83,0.21-3.12,0.74-4.13,1.49c-0.33,0.72-0.73,1.42-1.19,2.11
		s-0.99,1.36-1.58,2c-0.59,0.57-1.25,1.17-2.04,1.69c-0.79,0.51-1.71,0.93-2.81,1.14c-1.47,0.28-2.92,0.41-4.35,0.45
		s-2.85-0.02-4.27-0.1c-5.65-0.34-11.2-1.19-17.07,1.34c-1.71,0.63-3,1.31-3.95,2.03c-0.96,0.72-1.59,1.48-1.99,2.27
		c-1.39,4.97-2.12,10.03-1.39,15.09c0,0,2.2,0,2.61-0.16C574.15,97.45,575.03,97.24,575.95,96.97z"/>
	<g>
		<path class="st6" d="M461.39,274.29c3.86,9.16,8.84,17.74,14.77,25.43"/>
		<path class="st6" d="M463.52,263.58c4.61,4.45,8.66,9.64,11.99,15.34c4.39,7.53,7.92,16.41,14.95,20.77"/>
		<ellipse class="st7" cx="483.17" cy="285.3" rx="13.29" ry="11.02"/>
		<path class="st8" d="M490.97,310.99c-0.01,0.02-0.03,0.03-0.04,0.05c-0.82,0.91-2,1.29-3.15,1.5c-6.03,1.14-11.49,1.88-12.1-5.02
			c-0.27-3.09,0.51-11.11,2.67-13.43c3.56-3.82,14.31-2.66,14.27,4.13C492.6,301.78,493.47,308.09,490.97,310.99z"/>
		<path class="st9" d="M493.61,337.86c-0.42,0.77-1.02,1.36-1.83,1.68c-1.92,0.75-4.09-0.71-5.03-2.7s-0.94-4.35-0.84-6.6
			c0.1-2.24,0.28-4.55-0.35-6.69c-0.56,4.11-1.11,8.23-1.67,12.34c-0.14,1-0.29,2.05-0.84,2.86c-1.77,2.6-5.61,0.72-8.39,1.81
			c-0.05-6.19,0.28-12.37,0.99-18.51c0.22-1.88,0.15-7.91,1.39-9.22c1.21-1.28,3.35-0.25,5-0.56c1.64-0.31,3.26-1.34,3.93-3.03
			c-0.5,1.55,1.33,2.8,2.81,2.87s3.22-0.2,4.24,1c0.68,0.8,0.77,2,0.82,3.1c0.24,5.12,0.48,10.24,0.72,15.36
			C494.67,333.68,494.55,336.17,493.61,337.86z"/>
		<ellipse class="st7" cx="475.12" cy="281.95" rx="1.27" ry="0.47"/>
		<ellipse class="st7" cx="487.25" cy="281.78" rx="1.48" ry="0.41"/>
		<path class="st10" d="M477.65,285.8c0-1.1,3.07-1.98,6.86-1.98"/>
		<path class="st10" d="M519.8,307.41c0,0.56,0,1.01,0,1.01"/>
	</g>
	<path class="st11" d="M389.53,127.74"/>
	<path class="st11" d="M394.38,161.34"/>
	<path class="st11" d="M417.62,127.74"/>
	<circle class="st12" cx="400.66" cy="223.82" r="0.21"/>
	<g>
		<g>
			<path class="st13" d="M447.29,232.29l-2.52-3.13L437.68,210c2.15-0.87,3.54-2.29,3.49-3.88c-0.07-2.57-3.86-4.62-8.46-4.56
				c-4.6,0.05-8.27,2.19-8.19,4.76c0.05,1.61,1.54,3.01,3.78,3.82l-5.79,18.65l-2.62,3.58l1.52-0.02l-0.08,0.24l5.68-0.07
				l-1.65,13.27l2.58,0.29l1.69-13.58l8.05-0.1l-1.74,13.99l2.7,0.3l1.78-14.33L447.29,232.29z M432.99,214.48l-3.13-3.9
				c0.97,0.21,2.02,0.32,3.13,0.3c1.02-0.01,1.99-0.13,2.89-0.33L432.99,214.48z"/>
			<path class="st13" d="M426.17,214.56c0.08,2.93,12.76,5.15,28.34,4.96"/>
			<path class="st13" d="M439.31,214.41c0.04,1.46,10.87,2.52,24.2,2.36"/>
		</g>
		<ellipse class="st14" cx="430.98" cy="203.38" rx="1.3" ry="0.51"/>
		<ellipse class="st14" cx="437.56" cy="203.38" rx="1.3" ry="0.51"/>
		<ellipse class="st12" cx="431.58" cy="203.5" rx="0.61" ry="0.39"/>
		<ellipse class="st12" cx="437.56" cy="203.5" rx="0.61" ry="0.39"/>
		<path class="st15" d="M429.78,207.71c0.66,1.43,4.11,1.23,7.7-0.43"/>
	</g>
</g>
</svg>
